<svg id="Capa_1" enable-background="new 0 0 512 512" height="512" viewBox="0 0 512 512" width="512" xmlns="http://www.w3.org/2000/svg" xmlns:xlink="http://www.w3.org/1999/xlink"><linearGradient id="SVGID_1_" gradientUnits="userSpaceOnUse" x1="256" x2="256" y1="512" y2="0"><stop offset="0" stop-color="#ffc8d1"/><stop offset="1" stop-color="#fff6f7"/></linearGradient><linearGradient id="SVGID_2_" gradientUnits="userSpaceOnUse" x1="256" x2="256" y1="105" y2="407"><stop offset="0" stop-color="#fd3a84"/><stop offset="1" stop-color="#ffa68d"/></linearGradient><g><g><circle cx="256" cy="256" fill="url(#SVGID_1_)" r="256"/></g><g><g><path d="m233.031 167.176h22.969v71.059c0 4.91 3.973 8.882 8.882 8.882h17.765c4.91 0 8.882-3.973 8.882-8.882v-71.059h22.969c3.591 0 6.835-2.16 8.206-5.482 1.37-3.322.607-7.139-1.926-9.68l-40.734-44.412c-1.735-1.735-4.007-2.602-6.28-2.602s-4.545.867-6.28 2.602l-40.734 44.412c-2.533 2.542-3.296 6.358-1.926 9.68 1.372 3.323 4.616 5.482 8.207 5.482zm-128.031 142.118v88.823c0 4.905 3.977 8.882 8.882 8.882h35.529c4.905 0 8.882-3.977 8.882-8.882v-97.706h-44.412c-4.904.001-8.881 3.977-8.881 8.883zm299.398-6.28c-.013-.013-.026-.026-.039-.039-9.733-9.726-25.366-10.045-35.504-.743l-53.558 49.14c-2.236 2.059-5.319 2.755-8.05 2.091l-79.594-18.832c-4.771-1.128-7.72-5.907-6.592-10.687 1.11-4.771 5.864-7.729 10.687-6.592l55.278 13.078c13.597 3.217 27.276-5.023 30.776-18.549.039-.152.077-.302.115-.454 1.18-4.753-1.718-9.568-6.471-10.747l-71.059-17.765c-1.423-.364-2.88-.364-4.302 0l-60.025 13.5v93.997l132.125 16.518c2.906.33 5.52-.671 7.391-2.533l88.823-88.823c3.468-3.469 3.468-9.09-.001-12.56z" fill="url(#SVGID_2_)"/></g></g></g></svg>