<svg id="Capa_1" enable-background="new 0 0 512 512" height="512" viewBox="0 0 512 512" width="512" xmlns="http://www.w3.org/2000/svg" xmlns:xlink="http://www.w3.org/1999/xlink"><linearGradient id="SVGID_1_" gradientUnits="userSpaceOnUse" x1="256" x2="256" y1="512" y2="0"><stop offset="0" stop-color="#ffbef9"/><stop offset="1" stop-color="#fff1ff"/></linearGradient><linearGradient id="SVGID_2_" gradientUnits="userSpaceOnUse" x1="256" x2="256" y1="105" y2="407"><stop offset="0" stop-color="#a93aff"/><stop offset="1" stop-color="#ff81ff"/></linearGradient><g><g><g><circle cx="256" cy="256" fill="url(#SVGID_1_)" r="256"/></g></g><g><g><path d="m256 229.353c-14.694 0-26.647 11.953-26.647 26.647s11.953 26.647 26.647 26.647 26.647-11.953 26.647-26.647-11.953-26.647-26.647-26.647zm142.118 17.765h-9.332c-4.408-66.376-57.527-119.495-123.903-123.903v-9.332c0-4.91-3.973-8.882-8.882-8.882s-8.882 3.973-8.882 8.882v9.332c-66.376 4.408-119.495 57.527-123.903 123.903h-9.332c-4.91 0-8.882 3.973-8.882 8.882 0 4.91 3.973 8.882 8.882 8.882h9.332c4.408 66.376 57.527 119.495 123.903 123.903v9.332c0 4.91 3.973 8.882 8.882 8.882s8.882-3.973 8.882-8.882v-9.332c66.376-4.408 119.495-57.527 123.903-123.903h9.332c4.91 0 8.882-3.973 8.882-8.882 0-4.91-3.973-8.882-8.882-8.882zm-151-106.139v17.765c-46.786 4.244-84.13 41.582-88.374 88.374h-17.765c4.34-56.58 49.559-101.799 106.139-106.139zm0 230.042c-56.579-4.339-101.799-49.559-106.138-106.138h17.765c4.244 46.792 41.587 84.13 88.374 88.374v17.764zm8.882-70.609c-24.496 0-44.412-19.925-44.412-44.412s19.916-44.412 44.412-44.412 44.412 19.925 44.412 44.412-19.916 44.412-44.412 44.412zm8.882 70.609v-17.765c46.786-4.244 84.13-41.582 88.374-88.374h17.765c-4.34 56.58-49.559 101.799-106.139 106.139zm88.374-123.903c-4.244-46.792-41.587-84.13-88.374-88.374v-17.765c56.579 4.339 101.799 49.559 106.138 106.138h-17.764z" fill="url(#SVGID_2_)"/></g></g></g></svg>