<svg id="Capa_1" enable-background="new 0 0 512 512" height="512" viewBox="0 0 512 512" width="512" xmlns="http://www.w3.org/2000/svg" xmlns:xlink="http://www.w3.org/1999/xlink"><linearGradient id="SVGID_1_" gradientUnits="userSpaceOnUse" x1="256" x2="256" y1="512" y2="0"><stop offset="0" stop-color="#ffe59a"/><stop offset="1" stop-color="#ffffd5"/></linearGradient><linearGradient id="SVGID_2_" gradientUnits="userSpaceOnUse" x1="256" x2="256" y1="105" y2="407"><stop offset="0" stop-color="#fd5900"/><stop offset="1" stop-color="#ffde00"/></linearGradient><g><circle cx="256" cy="256" fill="url(#SVGID_1_)" r="256"/><g><g><path d="m184.941 309.294c0-14.694-11.953-26.647-26.647-26.647s-26.647 11.953-26.647 26.647 11.953 26.647 26.647 26.647 26.647-11.953 26.647-26.647zm195.412 0c0-14.694-11.953-26.647-26.647-26.647s-26.647 11.953-26.647 26.647 11.953 26.647 26.647 26.647 26.647-11.953 26.647-26.647zm-124.353 8.882c-34.28 0-62.177 27.896-62.177 62.176v17.765c0 4.91 3.973 8.882 8.882 8.882h106.588c4.909 0 8.882-3.973 8.882-8.882v-17.765c.002-34.279-27.895-62.176-62.175-62.176zm35.529-35.529c0-19.595-15.943-35.529-35.529-35.529s-35.529 15.934-35.529 35.529 15.943 35.529 35.529 35.529 35.529-15.934 35.529-35.529zm62.177 53.294c-9.945 0-19.151 2.912-27.127 7.673 5.78 11.052 9.363 23.425 9.363 36.738v17.765c0 3.129-.641 6.09-1.636 8.882h63.813c4.91 0 8.882-3.973 8.882-8.882v-8.882c-.001-29.388-23.907-53.294-53.295-53.294zm-168.284 7.674c-7.976-4.761-17.182-7.673-27.127-7.673-29.388 0-53.294 23.906-53.294 53.294v8.882c0 4.91 3.973 8.882 8.882 8.882h63.813c-.995-2.792-1.636-5.753-1.636-8.882v-17.765c-.001-13.314 3.581-25.686 9.362-36.738zm-18.245-78.733c21.443 0 39.398-15.284 43.527-35.529h116.355c14.694 0 26.647-11.953 26.647-26.647v-71.059c0-14.694-11.953-26.647-26.647-26.647h-142.118c-14.694 0-26.647 11.953-26.647 26.647v124.353c0 4.91 3.973 8.882 8.883 8.882zm53.294-124.353h71.059c4.91 0 8.882 3.973 8.882 8.882 0 4.91-3.973 8.882-8.882 8.882h-71.059c-4.91 0-8.882-3.973-8.882-8.882-.001-4.909 3.972-8.882 8.882-8.882zm0 35.53h71.059c4.91 0 8.882 3.973 8.882 8.882s-3.973 8.882-8.882 8.882h-71.059c-4.91 0-8.882-3.973-8.882-8.882s3.972-8.882 8.882-8.882z" fill="url(#SVGID_2_)"/></g></g></g></svg>