<svg id="Capa_1" enable-background="new 0 0 512 512" height="512" viewBox="0 0 512 512" width="512" xmlns="http://www.w3.org/2000/svg" xmlns:xlink="http://www.w3.org/1999/xlink"><linearGradient id="SVGID_1_" gradientUnits="userSpaceOnUse" x1="256" x2="256" y1="512" y2="0"><stop offset="0" stop-color="#c3ffe8"/><stop offset=".9973" stop-color="#f0fff4"/></linearGradient><linearGradient id="SVGID_2_" gradientUnits="userSpaceOnUse" x1="256" x2="256" y1="105" y2="407"><stop offset="0" stop-color="#00b59c"/><stop offset="1" stop-color="#9cffac"/></linearGradient><g><g><circle cx="256" cy="256" fill="url(#SVGID_1_)" r="256"/></g><g><g><path d="m256 176.059c34.28 0 62.176-27.896 62.176-62.177 0-4.91-3.973-8.882-8.882-8.882h-106.588c-4.91 0-8.882 3.973-8.882 8.882 0 34.281 27.896 62.177 62.176 62.177zm44.688 4.076c-12.765 8.638-28.147 13.689-44.688 13.689s-31.923-5.051-44.688-13.689c-42.503 41.686-70.782 131.575-70.782 164.689 0 49.183 40.664 62.177 62.176 62.177h106.588c21.512 0 62.176-12.994 62.176-62.177.001-33.114-28.278-123.003-70.782-164.689zm-44.688 102.512c14.694 0 26.647 11.953 26.647 26.647 0 11.565-7.448 21.332-17.765 25.011v10.519c0 4.91-3.973 8.882-8.882 8.882s-8.882-3.973-8.882-8.882v-10.519c-10.317-3.679-17.765-13.446-17.765-25.011 0-4.91 3.973-8.882 8.882-8.882s8.882 3.973 8.882 8.882c0 4.901 3.99 8.882 8.882 8.882s8.882-3.981 8.882-8.882-3.99-8.882-8.882-8.882c-14.694 0-26.647-11.953-26.647-26.647 0-11.565 7.448-21.332 17.765-25.011v-10.518c0-4.91 3.973-8.882 8.882-8.882s8.882 3.973 8.882 8.882v10.518c10.317 3.679 17.765 13.446 17.765 25.011 0 4.91-3.973 8.882-8.882 8.882s-8.882-3.973-8.882-8.882c0-4.901-3.99-8.882-8.882-8.882s-8.882 3.981-8.882 8.882 3.99 8.882 8.882 8.882z" fill="url(#SVGID_2_)"/></g></g></g></svg>