<svg id="Capa_1" enable-background="new 0 0 512 512" height="512" viewBox="0 0 512 512" width="512" xmlns="http://www.w3.org/2000/svg" xmlns:xlink="http://www.w3.org/1999/xlink"><linearGradient id="SVGID_1_" gradientUnits="userSpaceOnUse" x1="256" x2="256" y1="512" y2="0"><stop offset="0" stop-color="#c3ffe8"/><stop offset=".9973" stop-color="#f0fff4"/></linearGradient><linearGradient id="SVGID_2_" gradientUnits="userSpaceOnUse" x1="378.348" x2="120.121" y1="133.657" y2="391.884"><stop offset="0" stop-color="#00b59c"/><stop offset="1" stop-color="#9cffac"/></linearGradient><g><g><circle cx="256" cy="256" fill="url(#SVGID_1_)" r="256"/></g><g><g><path d="m309.292 105.005c-53.868 0-97.708 43.832-97.708 97.708 0 23.748 8.535 45.53 22.675 62.482l-19.915 19.915-6.247-6.245c-3.47-3.47-9.091-3.47-12.56 0l-87.734 87.725c-.062.059-.146.077-.207.138-1.745 1.745-2.604 4.031-2.595 6.317-.009 2.284.851 4.569 2.595 6.313l25.052 25.052c1.744 1.744 4.03 2.604 6.315 2.596.012 0 .023.006.035.006 2.273 0 4.545-.867 6.28-2.602.061-.061.079-.145.138-.207l87.734-87.734c3.468-3.468 3.47-9.091 0-12.561l-6.242-6.24 19.914-19.914c16.951 14.136 38.73 22.667 62.472 22.667 53.868 0 97.708-43.832 97.708-97.708s-43.842-97.708-97.71-97.708zm0 88.826c14.694 0 26.648 11.953 26.648 26.648 0 11.565-7.448 21.333-17.765 25.012v10.519c0 4.91-3.973 8.883-8.883 8.883s-8.883-3.973-8.883-8.883v-10.52c-10.317-3.679-17.765-13.447-17.765-25.012 0-4.91 3.973-8.883 8.883-8.883s8.883 3.973 8.883 8.883c0 4.901 3.99 8.883 8.883 8.883s8.883-3.982 8.883-8.883-3.99-8.883-8.883-8.883c-14.694 0-26.648-11.953-26.648-26.648 0-11.565 7.448-21.333 17.765-25.012v-10.519c0-4.91 3.973-8.883 8.883-8.883s8.883 3.973 8.883 8.883v10.519c10.317 3.679 17.765 13.447 17.765 25.012 0 4.91-3.973 8.883-8.883 8.883s-8.883-3.973-8.883-8.883c0-4.901-3.99-8.883-8.883-8.883s-8.883 3.982-8.883 8.883 3.99 8.884 8.883 8.884z" fill="url(#SVGID_2_)"/></g></g></g></svg>