<svg id="Capa_1" enable-background="new 0 0 512 512" height="512" viewBox="0 0 512 512" width="512" xmlns="http://www.w3.org/2000/svg" xmlns:xlink="http://www.w3.org/1999/xlink"><linearGradient id="SVGID_1_" gradientUnits="userSpaceOnUse" x1="256" x2="256" y1="512" y2="0"><stop offset="0" stop-color="#addcff"/><stop offset=".5028" stop-color="#eaf6ff"/><stop offset="1" stop-color="#eaf6ff"/></linearGradient><linearGradient id="SVGID_2_" gradientUnits="userSpaceOnUse" x1="256" x2="256" y1="105" y2="407"><stop offset="0" stop-color="#5558ff"/><stop offset="1" stop-color="#00c0ff"/></linearGradient><g><g><circle cx="256" cy="256" fill="url(#SVGID_1_)" r="256"/></g><g><g><path d="m362.588 211.588h8.882v8.882c0 4.91 3.973 8.882 8.882 8.882s8.882-3.973 8.882-8.882v-8.882h8.882c4.91 0 8.882-3.973 8.882-8.882 0-4.91-3.973-8.882-8.882-8.882h-8.882v-8.882c0-4.91-3.973-8.882-8.882-8.882-4.91 0-8.882 3.973-8.882 8.882v8.882h-8.882c-4.91 0-8.883 3.973-8.883 8.882.001 4.909 3.974 8.882 8.883 8.882zm-213.176 71.059h-35.529c-4.91 0-8.882 3.973-8.882 8.882s3.973 8.882 8.882 8.882h35.529c4.91 0 8.883-3.973 8.883-8.882s-3.974-8.882-8.883-8.882zm248.706-35.529h-133.236v-111.793l2.602 2.602c3.47 3.47 9.091 3.47 12.56 0s3.469-9.09 0-12.56l-17.754-17.754c-3.428-3.438-9.099-3.492-12.582 0l-17.754 17.754c-3.469 3.47-3.469 9.091 0 12.56 3.47 3.47 9.091 3.47 12.56 0l2.602-2.602v111.793h-133.234c-4.91 0-8.882 3.973-8.882 8.882 0 4.91 3.973 8.882 8.882 8.882h133.235v111.793l-2.602-2.602c-3.47-3.47-9.091-3.47-12.56 0s-3.469 9.091 0 12.56l17.754 17.754c1.667 1.671 3.987 2.613 6.291 2.613s4.625-.942 6.291-2.613l17.754-17.754c3.469-3.47 3.469-9.091 0-12.56-3.47-3.47-9.091-3.47-12.56 0l-2.602 2.602v-111.793h133.235c4.91 0 8.882-3.973 8.882-8.882 0-4.91-3.973-8.882-8.882-8.882zm-284.236-17.765h17.765v-115.471c0-4.906-3.977-8.882-8.882-8.882h-8.882c-4.905 0-8.882 3.976-8.882 8.882v106.588c-.001 4.906 3.976 8.883 8.881 8.883zm62.177-79.941c0-4.906-3.977-8.882-8.882-8.882h-8.882c-4.905 0-8.883 3.976-8.883 8.882v79.941h26.647zm44.412 71.059v-35.529c0-4.906-3.977-8.882-8.882-8.882h-8.883c-4.905 0-8.882 3.976-8.882 8.882v44.412h17.765c4.904-.001 8.882-3.978 8.882-8.883zm177.647 62.176h-17.765v115.471c0 4.905 3.977 8.882 8.882 8.882h8.882c4.905 0 8.882-3.977 8.882-8.882v-106.589c.001-4.906-3.976-8.882-8.881-8.882zm-62.177 79.941c0 4.905 3.977 8.882 8.882 8.882h8.882c4.905 0 8.883-3.977 8.883-8.882v-79.941h-26.647zm-44.412-71.059v35.529c0 4.905 3.977 8.882 8.882 8.882h8.883c4.905 0 8.882-3.977 8.882-8.882v-44.412h-17.765c-4.904.001-8.882 3.977-8.882 8.883z" fill="url(#SVGID_2_)"/></g></g></g></svg>