<svg id="Capa_1" enable-background="new 0 0 512 512" height="512" viewBox="0 0 512 512" width="512" xmlns="http://www.w3.org/2000/svg" xmlns:xlink="http://www.w3.org/1999/xlink"><linearGradient id="SVGID_1_" gradientUnits="userSpaceOnUse" x1="256" x2="256" y1="512" y2="0"><stop offset="0" stop-color="#ffbef9"/><stop offset="1" stop-color="#fff1ff"/></linearGradient><linearGradient id="SVGID_2_" gradientUnits="userSpaceOnUse" x1="256" x2="256" y1="105" y2="407"><stop offset="0" stop-color="#a93aff"/><stop offset="1" stop-color="#ff81ff"/></linearGradient><g><g><circle cx="256" cy="256" fill="url(#SVGID_1_)" r="256"/></g><g><g><path d="m318.176 105h-124.352c-14.694 0-26.647 11.953-26.647 26.647v248.706c0 14.694 11.953 26.647 26.647 26.647h124.353c14.694 0 26.647-11.953 26.647-26.647v-248.706c0-14.694-11.953-26.647-26.648-26.647zm-62.176 35.529c4.905 0 8.882 3.976 8.882 8.882 0 4.905-3.977 8.883-8.882 8.883s-8.882-3.977-8.882-8.883 3.977-8.882 8.882-8.882zm-26.647 88.824c0-4.91 3.973-8.882 8.882-8.882h8.882v-26.647c0-4.909 3.973-8.882 8.882-8.882s8.882 3.973 8.882 8.882v26.647h8.882c4.91 0 8.882 3.973 8.882 8.882v53.294c0 4.91-3.973 8.882-8.882 8.882h-8.882v26.647c0 4.909-3.973 8.882-8.882 8.882s-8.882-3.973-8.882-8.882v-26.647h-8.882c-4.91 0-8.882-3.973-8.882-8.882zm53.294 142.118h-53.294c-4.91 0-8.882-3.973-8.882-8.883 0-4.909 3.973-8.882 8.882-8.882h53.294c4.91 0 8.882 3.973 8.882 8.882 0 4.91-3.972 8.883-8.882 8.883zm-17.765-133.236h-17.765v35.529h17.765z" fill="url(#SVGID_2_)"/></g></g></g></svg>