<svg id="Capa_1" enable-background="new 0 0 512 512" height="512" viewBox="0 0 512 512" width="512" xmlns="http://www.w3.org/2000/svg" xmlns:xlink="http://www.w3.org/1999/xlink"><linearGradient id="SVGID_1_" gradientUnits="userSpaceOnUse" x1="256" x2="256" y1="512" y2="0"><stop offset="0" stop-color="#ffe59a"/><stop offset="1" stop-color="#ffffd5"/></linearGradient><linearGradient id="SVGID_2_" gradientUnits="userSpaceOnUse" x1="256" x2="256" y1="140.529" y2="371.471"><stop offset="0" stop-color="#fd5900"/><stop offset="1" stop-color="#ffde00"/></linearGradient><g><g><circle cx="256" cy="256" fill="url(#SVGID_1_)" r="256"/></g><g><g><path d="m318.177 149.412c0-4.909-3.973-8.882-8.882-8.882h-106.589c-4.909 0-8.882 3.973-8.882 8.882v26.647h-17.765v195.412h159.882v-195.412h-17.765v-26.647zm-62.177 115.47c14.694 0 26.647 11.953 26.647 26.647 0 11.565-7.448 21.332-17.765 25.011v10.519c0 4.909-3.973 8.882-8.882 8.882s-8.882-3.973-8.882-8.882v-10.519c-10.317-3.679-17.765-13.446-17.765-25.011 0-4.909 3.973-8.882 8.882-8.882 4.91 0 8.882 3.973 8.882 8.882 0 4.901 3.99 8.882 8.882 8.882s8.882-3.981 8.882-8.882-3.99-8.882-8.882-8.882c-14.694 0-26.647-11.953-26.647-26.647 0-11.565 7.448-21.332 17.765-25.011v-10.518c0-4.91 3.973-8.883 8.882-8.883s8.882 3.973 8.882 8.883v10.518c10.317 3.679 17.765 13.446 17.765 25.011 0 4.91-3.973 8.882-8.882 8.882-4.91 0-8.882-3.973-8.882-8.882 0-4.901-3.99-8.882-8.882-8.882s-8.882 3.981-8.882 8.882 3.99 8.882 8.882 8.882zm44.412-88.823h-88.823v-17.765h88.823zm-195.412 8.882v177.647c0 4.91 3.973 8.883 8.882 8.883h44.412v-195.412h-44.412c-4.909 0-8.882 3.972-8.882 8.882zm293.118-8.882h-44.412v195.412h44.412c4.91 0 8.882-3.973 8.882-8.883v-177.647c0-4.91-3.973-8.882-8.882-8.882z" fill="url(#SVGID_2_)"/></g></g></g></svg>