<svg id="Capa_1" enable-background="new 0 0 512 512" height="512" viewBox="0 0 512 512" width="512" xmlns="http://www.w3.org/2000/svg" xmlns:xlink="http://www.w3.org/1999/xlink"><linearGradient id="SVGID_1_" gradientUnits="userSpaceOnUse" x1="256" x2="256" y1="512" y2="0"><stop offset="0" stop-color="#ffe59a"/><stop offset="1" stop-color="#ffffd5"/></linearGradient><linearGradient id="SVGID_2_" gradientUnits="userSpaceOnUse" x1="256" x2="256" y1="105" y2="407"><stop offset="0" stop-color="#fd5900"/><stop offset="1" stop-color="#ffde00"/></linearGradient><g><g><circle cx="256" cy="256" fill="url(#SVGID_1_)" r="256"/></g><g><g><path d="m406.323 270.347-44.412-106.588c-.004-.01-.013-.016-.017-.026-1.343-3.197-4.545-5.427-8.17-5.44h-88.842v-1.635c10.317-3.679 17.765-13.446 17.765-25.011 0-14.694-11.953-26.647-26.647-26.647s-26.647 11.953-26.647 26.647c0 11.565 7.448 21.332 17.765 25.011v1.636c-45.704 0-88.787 0-88.787 0-.005-.001-.012-.002-.018-.003-3.634-.003-6.858 2.233-8.207 5.442-.004.01-.013.016-.017.026l-44.412 106.588c-.206.497-.677 3.268-.677 3.417 0 .008.002.013.002.021 0 .029.009.057.009.086.059 24.435 19.942 44.305 44.401 44.305h17.765c24.459 0 44.342-19.87 44.401-44.305 0-.029.009-.057.009-.086 0-.007.002-.013.002-.021 0-.15-.471-2.921-.677-3.417l-39.286-94.288h75.492v142.118h-8.882c-4.91 0-8.882 3.973-8.882 8.882v26.647h53.294v-26.647c0-4.91-3.973-8.882-8.882-8.882h-8.882v-142.118h75.492l-39.286 94.288c-.206.497-.677 3.268-.677 3.417 0 .008.002.013.002.021 0 .029.009.057.009.086.059 24.435 19.942 44.305 44.401 44.305h17.765c24.459 0 44.342-19.87 44.401-44.305 0-.029.009-.057.009-.086 0-.007.002-.013.002-.021-.002-.149-.473-2.92-.679-3.417zm-216.948-5.465h-62.161l31.081-74.595zm133.25 0 31.081-74.595 31.081 74.595zm-13.331 106.589h-106.588c-14.717 0-26.647 11.93-26.647 26.647 0 4.905 3.977 8.882 8.882 8.882h142.118c4.905 0 8.882-3.977 8.882-8.882 0-14.717-11.93-26.647-26.647-26.647z" fill="url(#SVGID_2_)"/></g></g></g></svg>