<svg id="Capa_1" enable-background="new 0 0 512 512" height="512" viewBox="0 0 512 512" width="512" xmlns="http://www.w3.org/2000/svg" xmlns:xlink="http://www.w3.org/1999/xlink"><linearGradient id="SVGID_1_" gradientUnits="userSpaceOnUse" x1="256" x2="256" y1="512" y2="0"><stop offset="0" stop-color="#ffe59a"/><stop offset="1" stop-color="#ffffd5"/></linearGradient><linearGradient id="SVGID_2_" gradientUnits="userSpaceOnUse" x1="256" x2="256" y1="105" y2="407"><stop offset="0" stop-color="#fd5900"/><stop offset="1" stop-color="#ffde00"/></linearGradient><g><g><circle cx="256" cy="256" fill="url(#SVGID_1_)" r="256"/></g><g><g><path d="m327.059 105c-3.352 0-6.588.439-9.727 1.143 23.904 15.528 41.844 38.687 49.693 62.315 2.767-5.791 4.446-12.199 4.446-19.046 0-24.529-19.884-44.412-44.412-44.412zm-132.391 1.143c-3.139-.704-6.375-1.143-9.727-1.143-24.528 0-44.412 19.883-44.412 44.412 0 6.847 1.679 13.255 4.446 19.046 7.849-23.628 25.789-46.787 49.693-62.315zm61.332-1.143c-52.618 0-97.706 48.844-97.706 88.823 0 33.083 18.736 66.54 54.665 70.643 3.556 10.556 13.532 18.181 25.277 18.181h35.529c11.71 0 21.668-7.59 25.242-18.103 34.419-3.235 54.699-29.154 54.699-70.72 0-39.98-45.088-88.824-97.706-88.824zm-21.738 96.769-17.765-8.882c-4.389-2.195-6.159-7.529-3.973-11.918 2.203-4.38 7.529-6.141 11.918-3.973l17.765 8.882c4.389 2.195 6.159 7.529 3.973 11.918-2.166 4.32-7.43 6.187-11.918 3.973zm30.62 27.584v8.882c0 4.909-3.973 8.882-8.882 8.882s-8.882-3.973-8.882-8.882v-8.882c-4.91 0-8.882-3.973-8.882-8.882 0-4.91 3.973-8.883 8.882-8.883h17.765c4.91 0 8.882 3.973 8.882 8.883 0 4.909-3.973 8.882-8.883 8.882zm30.62-36.466-17.765 8.882c-4.492 2.215-9.754.343-11.918-3.973-2.186-4.389-.416-9.724 3.973-11.918l17.765-8.882c4.389-2.186 9.715-.425 11.918 3.973 2.186 4.388.416 9.723-3.973 11.918zm1.232 151.936h-22.969v-35.529c0-4.91-3.973-8.883-8.882-8.883h-17.765c-4.91 0-8.882 3.973-8.882 8.883v35.529h-22.969c-3.591 0-6.835 2.16-8.206 5.482-1.37 3.322-.607 7.139 1.926 9.68l40.734 44.412c1.735 1.735 4.007 2.602 6.28 2.602s4.545-.867 6.28-2.602l40.734-44.412c2.533-2.542 3.296-6.358 1.926-9.68-1.372-3.322-4.616-5.482-8.207-5.482z" fill="url(#SVGID_2_)"/></g></g></g></svg>