<svg id="Capa_1" enable-background="new 0 0 512 512" height="512" viewBox="0 0 512 512" width="512" xmlns="http://www.w3.org/2000/svg" xmlns:xlink="http://www.w3.org/1999/xlink"><linearGradient id="SVGID_1_" gradientUnits="userSpaceOnUse" x1="256" x2="256" y1="512" y2="0"><stop offset="0" stop-color="#ffbef9"/><stop offset="1" stop-color="#fff1ff"/></linearGradient><linearGradient id="SVGID_2_" gradientUnits="userSpaceOnUse" x1="256.036" x2="256.036" y1="122.735" y2="389.265"><stop offset="0" stop-color="#a93aff"/><stop offset="1" stop-color="#ff81ff"/></linearGradient><g><g><circle cx="256" cy="256" fill="url(#SVGID_1_)" r="256"/></g><g><g><path d="m202.728 318.19h159.918c3.818 0 7.219-2.447 8.433-6.073l35.537-106.612c.902-2.707.451-5.691-1.232-8.008-1.666-2.317-4.338-3.688-7.201-3.688h-224.58l-21.665-65.001c-1.215-3.626-4.616-6.073-8.433-6.073h-29.62c-4.911 0-8.884 3.974-8.884 8.885s3.974 8.884 8.884 8.884h23.217l54.156 162.512c-8.971 4.295-15.183 13.465-15.183 24.059 0 14.697 11.956 26.653 26.653 26.653h10.521c-.996 2.793-1.637 5.754-1.637 8.884 0 14.698 11.956 26.653 26.653 26.653s26.653-11.956 26.653-26.653c0-3.13-.641-6.091-1.637-8.884h56.579c-.996 2.793-1.637 5.754-1.637 8.884 0 14.698 11.956 26.653 26.653 26.653s26.653-11.956 26.653-26.653-11.956-26.653-26.653-26.653h-142.148c-4.893 0-8.884-3.982-8.884-8.884s3.99-8.885 8.884-8.885zm115.756-46.573 8.884-35.537c1.18-4.772 5.934-7.652 10.776-6.464 4.772 1.189 7.652 6.012 6.472 10.767l-8.884 35.537c-1.188 4.772-6.024 7.651-10.776 6.463-4.771-1.188-7.652-6.011-6.472-10.766zm-44.682-33.386c0-4.911 3.974-8.885 8.884-8.885 4.911 0 8.884 3.974 8.884 8.885v35.537c0 4.911-3.974 8.884-8.884 8.884-4.911 0-8.884-3.974-8.884-8.884zm-46.573-8.615c4.668-1.206 9.596 1.692 10.776 6.464l8.884 35.537c1.18 4.755-1.701 9.578-6.472 10.767-4.656 1.192-9.574-1.637-10.776-6.463l-8.884-35.537c-1.18-4.756 1.7-9.579 6.472-10.768z" fill="url(#SVGID_2_)"/></g></g></g></svg>