<svg id="Capa_1" enable-background="new 0 0 512 512" height="512" viewBox="0 0 512 512" width="512" xmlns="http://www.w3.org/2000/svg" xmlns:xlink="http://www.w3.org/1999/xlink"><linearGradient id="SVGID_1_" gradientUnits="userSpaceOnUse" x1="256" x2="256" y1="512" y2="0"><stop offset="0" stop-color="#ffe59a"/><stop offset="1" stop-color="#ffffd5"/></linearGradient><linearGradient id="SVGID_2_" gradientUnits="userSpaceOnUse" x1="256" x2="256" y1="105" y2="407"><stop offset="0" stop-color="#fd5900"/><stop offset="1" stop-color="#ffde00"/></linearGradient><g><g><circle cx="256" cy="256" fill="url(#SVGID_1_)" r="256"/></g><g><g><path d="m256 158.294c-53.867 0-97.706 43.831-97.706 97.706s43.839 97.706 97.706 97.706 97.706-43.831 97.706-97.706-43.839-97.706-97.706-97.706zm0 88.824c19.586 0 35.529 15.935 35.529 35.529 0 16.509-11.37 30.296-26.647 34.268v10.144c0 4.91-3.973 8.883-8.882 8.883s-8.882-3.973-8.882-8.883v-10.144c-15.277-3.972-26.647-17.758-26.647-34.268 0-4.91 3.973-8.882 8.882-8.882 4.91 0 8.882 3.973 8.882 8.882 0 9.793 7.963 17.765 17.765 17.765s17.765-7.971 17.765-17.765c0-9.793-7.963-17.765-17.765-17.765-19.586 0-35.529-15.935-35.529-35.529 0-16.509 11.37-30.296 26.647-34.268v-10.144c0-4.91 3.973-8.883 8.882-8.883s8.882 3.973 8.882 8.883v10.144c15.277 3.972 26.647 17.758 26.647 34.268 0 4.91-3.973 8.882-8.882 8.882-4.91 0-8.882-3.973-8.882-8.882 0-9.793-7.963-17.765-17.765-17.765s-17.765 7.971-17.765 17.765c0 9.793 7.963 17.765 17.765 17.765zm0-142.118c-83.255 0-151 67.736-151 151 0 83.263 67.745 151 151 151s151-67.737 151-151c0-83.264-67.745-151-151-151zm0 266.471c-63.668 0-115.471-51.802-115.471-115.471s51.803-115.471 115.471-115.471 115.471 51.803 115.471 115.471-51.803 115.471-115.471 115.471z" fill="url(#SVGID_2_)"/></g></g></g></svg>