<svg id="Capa_1" enable-background="new 0 0 512 512" height="512" viewBox="0 0 512 512" width="512" xmlns="http://www.w3.org/2000/svg" xmlns:xlink="http://www.w3.org/1999/xlink"><linearGradient id="SVGID_1_" gradientUnits="userSpaceOnUse" x1="256" x2="256" y1="512" y2="0"><stop offset="0" stop-color="#ffbef9"/><stop offset="1" stop-color="#fff1ff"/></linearGradient><linearGradient id="SVGID_2_" gradientUnits="userSpaceOnUse" x1="256" x2="256" y1="105" y2="407"><stop offset="0" stop-color="#a93aff"/><stop offset="1" stop-color="#ff81ff"/></linearGradient><g><g><circle cx="256" cy="256" fill="url(#SVGID_1_)" r="256"/></g><g><g><path d="m256 158.294c-53.867 0-97.706 43.831-97.706 97.706s43.839 97.706 97.706 97.706 97.706-43.831 97.706-97.706-43.839-97.706-97.706-97.706zm35.529 88.824c4.91 0 8.882 3.973 8.882 8.882s-3.973 8.882-8.882 8.882h-26.647v17.765h26.647c4.91 0 8.882 3.973 8.882 8.882s-3.973 8.882-8.882 8.882h-26.647v26.647c0 4.91-3.973 8.883-8.882 8.883s-8.882-3.973-8.882-8.883v-26.647h-26.647c-4.91 0-8.882-3.973-8.882-8.882s3.973-8.882 8.882-8.882h26.647v-17.765h-26.647c-4.91 0-8.882-3.973-8.882-8.882s3.973-8.882 8.882-8.882h18.932l-26.323-39.485c-2.724-4.085-1.613-9.594 2.464-12.317 4.042-2.706 9.576-1.64 12.317 2.463l28.139 42.208 28.139-42.208c2.741-4.103 8.258-5.152 12.317-2.463 4.077 2.724 5.187 8.232 2.464 12.317l-26.323 39.485zm-35.529-142.118c-83.255 0-151 67.736-151 151 0 83.263 67.745 151 151 151s151-67.737 151-151c0-83.264-67.745-151-151-151zm0 266.471c-63.668 0-115.471-51.802-115.471-115.471s51.803-115.471 115.471-115.471 115.471 51.803 115.471 115.471-51.803 115.471-115.471 115.471z" fill="url(#SVGID_2_)"/></g></g></g></svg>