<svg id="Capa_1" enable-background="new 0 0 512 512" height="512" viewBox="0 0 512 512" width="512" xmlns="http://www.w3.org/2000/svg" xmlns:xlink="http://www.w3.org/1999/xlink"><linearGradient id="SVGID_1_" gradientUnits="userSpaceOnUse" x1="256" x2="256" y1="512" y2="0"><stop offset="0" stop-color="#ffc8d1"/><stop offset="1" stop-color="#fff6f7"/></linearGradient><linearGradient id="SVGID_2_" gradientUnits="userSpaceOnUse" x1="256" x2="256" y1="105" y2="407"><stop offset="0" stop-color="#fd3a84"/><stop offset="1" stop-color="#ffa68d"/></linearGradient><g><g><circle cx="256" cy="256" fill="url(#SVGID_1_)" r="256"/></g><g><g><path d="m273.765 211.588h-37.056c.989 2.775 1.527 5.768 1.527 8.882v26.647h35.529c9.802 0 17.765-7.972 17.765-17.765-.001-9.792-7.964-17.764-17.765-17.764zm0 53.294h-35.529v26.647c0 3.129-.641 6.09-1.636 8.882h37.166c9.802 0 17.765-7.971 17.765-17.765-.002-9.792-7.965-17.764-17.766-17.764zm-17.765-106.588c-53.867 0-97.706 43.831-97.706 97.706s43.839 97.706 97.706 97.706 97.706-43.831 97.706-97.706-43.839-97.706-97.706-97.706zm53.294 124.353c0 16.509-11.37 30.296-26.647 34.268v10.144c0 4.91-3.973 8.883-8.882 8.883s-8.882-3.973-8.882-8.883v-8.882h-17.765v8.882c0 4.91-3.973 8.883-8.882 8.883s-8.882-3.973-8.882-8.883v-8.882h-17.765c-4.91 0-8.883-3.973-8.883-8.882s3.973-8.882 8.883-8.882c4.892 0 8.882-3.981 8.882-8.882v-71.059c0-4.901-3.99-8.882-8.882-8.882-4.91 0-8.883-3.973-8.883-8.882 0-4.91 3.973-8.883 8.883-8.883h17.765v-8.882c0-4.91 3.973-8.883 8.882-8.883s8.882 3.973 8.882 8.883v8.882h17.765v-8.882c0-4.91 3.973-8.883 8.882-8.883s8.882 3.973 8.882 8.883v10.144c15.277 3.972 26.647 17.758 26.647 34.268 0 10.663-4.819 20.13-12.28 26.647 7.462 6.515 12.28 15.982 12.28 26.645zm-53.294-177.647c-83.255 0-151 67.736-151 151 0 83.263 67.745 151 151 151s151-67.737 151-151c0-83.264-67.745-151-151-151zm0 266.471c-63.668 0-115.471-51.802-115.471-115.471s51.803-115.471 115.471-115.471 115.471 51.803 115.471 115.471-51.803 115.471-115.471 115.471z" fill="url(#SVGID_2_)"/></g></g></g></svg>