<svg id="Capa_1" enable-background="new 0 0 512 512" height="512" viewBox="0 0 512 512" width="512" xmlns="http://www.w3.org/2000/svg" xmlns:xlink="http://www.w3.org/1999/xlink"><linearGradient id="SVGID_1_" gradientUnits="userSpaceOnUse" x1="256" x2="256" y1="512" y2="0"><stop offset="0" stop-color="#c3ffe8"/><stop offset=".9973" stop-color="#f0fff4"/></linearGradient><linearGradient id="SVGID_2_" gradientUnits="userSpaceOnUse" x1="256" x2="256" y1="140.533" y2="371.467"><stop offset="0" stop-color="#00b59c"/><stop offset="1" stop-color="#9cffac"/></linearGradient><g><g><circle cx="256" cy="256" fill="url(#SVGID_1_)" r="256"/></g><g><g><path d="m113.886 193.825c4.909 0 8.882-3.973 8.882-8.882v-26.646h26.646c4.909 0 8.882-3.973 8.882-8.882 0-4.91-3.973-8.882-8.882-8.882h-35.528c-4.909 0-8.882 3.973-8.882 8.882v35.528c0 4.91 3.973 8.882 8.882 8.882zm248.699-35.528h26.646v26.646c0 4.909 3.973 8.882 8.882 8.882s8.882-3.973 8.882-8.882v-35.528c0-4.91-3.973-8.882-8.882-8.882h-35.528c-4.909 0-8.882 3.973-8.882 8.882s3.973 8.882 8.882 8.882zm-213.17 195.406h-26.646v-26.646c0-4.909-3.973-8.882-8.882-8.882s-8.882 3.973-8.882 8.882v35.528c0 4.91 3.973 8.882 8.882 8.882h35.528c4.909 0 8.882-3.973 8.882-8.882s-3.973-8.882-8.882-8.882zm248.699-35.528c-4.909 0-8.882 3.973-8.882 8.882v26.646h-26.646c-4.909 0-8.882 3.973-8.882 8.882 0 4.91 3.973 8.882 8.882 8.882h35.528c4.909 0 8.882-3.973 8.882-8.882v-35.528c0-4.91-3.973-8.882-8.882-8.882zm-230.935-62.175c0-28.457 13.695-53.55 34.576-69.816-54.228 19.688-92.411 61.58-94.479 63.892-3.036 3.374-3.036 8.475 0 11.849 2.068 2.313 40.25 44.204 94.479 63.892-20.881-16.267-34.576-41.36-34.576-69.817zm237.544 5.924c3.036-3.374 3.036-8.475 0-11.849-2.068-2.313-40.25-44.204-94.479-63.892 20.881 16.267 34.576 41.359 34.576 69.816s-13.695 53.55-34.576 69.816c54.229-19.687 92.412-61.578 94.479-63.891zm-148.723-76.981c-39.189 0-71.057 31.876-71.057 71.057s31.868 71.057 71.057 71.057 71.057-31.877 71.057-71.057-31.868-71.057-71.057-71.057zm0 62.175c14.694 0 26.646 11.953 26.646 26.646 0 11.564-7.448 21.332-17.764 25.01v10.518c0 4.91-3.973 8.882-8.882 8.882s-8.882-3.973-8.882-8.882v-10.518c-10.317-3.679-17.764-13.446-17.764-25.01 0-4.91 3.973-8.882 8.882-8.882s8.882 3.973 8.882 8.882c0 4.901 3.99 8.882 8.882 8.882s8.882-3.981 8.882-8.882-3.99-8.882-8.882-8.882c-14.694 0-26.646-11.952-26.646-26.646 0-11.564 7.448-21.332 17.764-25.01v-10.518c0-4.91 3.973-8.882 8.882-8.882s8.882 3.973 8.882 8.882v10.518c10.317 3.679 17.764 13.446 17.764 25.01 0 4.909-3.973 8.882-8.882 8.882s-8.882-3.973-8.882-8.882c0-4.901-3.99-8.882-8.882-8.882s-8.882 3.981-8.882 8.882 3.99 8.882 8.882 8.882z" fill="url(#SVGID_2_)"/></g></g></g></svg>