<svg id="Capa_1" enable-background="new 0 0 512 512" height="512" viewBox="0 0 512 512" width="512" xmlns="http://www.w3.org/2000/svg" xmlns:xlink="http://www.w3.org/1999/xlink"><linearGradient id="SVGID_1_" gradientUnits="userSpaceOnUse" x1="256" x2="256" y1="512" y2="0"><stop offset="0" stop-color="#c3ffe8"/><stop offset=".9973" stop-color="#f0fff4"/></linearGradient><linearGradient id="SVGID_2_" gradientUnits="userSpaceOnUse" x1="256" x2="256" y1="105" y2="407"><stop offset="0" stop-color="#00b59c"/><stop offset="1" stop-color="#9cffac"/></linearGradient><g><g><circle cx="256" cy="256" fill="url(#SVGID_1_)" r="256"/></g><g><g><path d="m291.529 173.812h8.882v59.33c8.484-2.413 17.4-3.789 26.647-3.789s18.163 1.376 26.647 3.789v-59.33h8.882c3.279 0 6.28-1.804 7.824-4.692 1.561-2.889 1.388-6.393-.434-9.117l-35.529-51.295c-3.296-4.944-11.485-4.944-14.781 0l-35.529 51.295c-1.822 2.724-1.995 6.228-.434 9.117 1.545 2.888 4.546 4.692 7.825 4.692zm35.53 73.306c-44.082 0-79.941 35.859-79.941 79.941 0 44.083 35.859 79.941 79.941 79.941s79.941-35.859 79.941-79.941-35.859-79.941-79.941-79.941zm0 71.058c14.694 0 26.647 11.953 26.647 26.647 0 11.565-7.448 21.332-17.765 25.011v10.519c0 4.91-3.973 8.882-8.882 8.882-4.91 0-8.882-3.973-8.882-8.882v-10.519c-10.317-3.679-17.765-13.446-17.765-25.011 0-4.909 3.973-8.882 8.882-8.882s8.882 3.973 8.882 8.882c0 4.901 3.99 8.883 8.882 8.883s8.882-3.981 8.882-8.883c0-4.9-3.99-8.882-8.882-8.882-14.694 0-26.647-11.953-26.647-26.647 0-11.564 7.448-21.332 17.765-25.011v-10.519c0-4.91 3.973-8.882 8.882-8.882 4.91 0 8.882 3.973 8.882 8.882v10.519c10.317 3.679 17.765 13.446 17.765 25.011 0 4.91-3.973 8.882-8.882 8.882-4.91 0-8.882-3.973-8.882-8.882 0-4.901-3.99-8.882-8.882-8.882s-8.882 3.981-8.882 8.882 3.99 8.882 8.882 8.882zm-106.588 17.765h-8.882v-57.083c-8.484 2.413-17.4 3.789-26.647 3.789s-18.163-1.376-26.647-3.789v57.083h-8.882c-3.279 0-6.28 1.804-7.824 4.692-1.561 2.889-1.388 6.393.434 9.117l35.529 53.294c1.648 2.472 4.424 3.956 7.39 3.956s5.742-1.483 7.39-3.956l35.529-53.294c1.822-2.724 1.995-6.228.434-9.117-1.544-2.888-4.545-4.692-7.824-4.692zm-35.53-230.941c-44.082 0-79.941 35.859-79.941 79.941s35.859 79.941 79.941 79.941 79.941-35.859 79.941-79.941-35.859-79.941-79.941-79.941zm0 71.059c14.694 0 26.647 11.953 26.647 26.647 0 11.564-7.448 21.332-17.765 25.011v10.519c0 4.91-3.973 8.882-8.882 8.882-4.91 0-8.882-3.973-8.882-8.882v-10.519c-10.317-3.679-17.765-13.446-17.765-25.011 0-4.91 3.973-8.883 8.882-8.883 4.91 0 8.882 3.973 8.882 8.883 0 4.901 3.99 8.882 8.882 8.882s8.882-3.981 8.882-8.882-3.99-8.883-8.882-8.883c-14.694 0-26.647-11.953-26.647-26.647 0-11.564 7.448-21.332 17.765-25.011v-10.519c0-4.91 3.973-8.882 8.882-8.882 4.91 0 8.882 3.973 8.882 8.882v10.519c10.317 3.679 17.765 13.446 17.765 25.011 0 4.91-3.973 8.882-8.882 8.882s-8.882-3.973-8.882-8.882c0-4.901-3.99-8.882-8.882-8.882s-8.882 3.981-8.882 8.882 3.99 8.883 8.882 8.883z" fill="url(#SVGID_2_)"/></g></g></g></svg>