<svg id="Capa_1" enable-background="new 0 0 512 512" height="512" viewBox="0 0 512 512" width="512" xmlns="http://www.w3.org/2000/svg" xmlns:xlink="http://www.w3.org/1999/xlink"><linearGradient id="SVGID_1_" gradientUnits="userSpaceOnUse" x1="256" x2="256" y1="512" y2="0"><stop offset="0" stop-color="#ffc8d1"/><stop offset="1" stop-color="#fff6f7"/></linearGradient><linearGradient id="SVGID_2_" gradientUnits="userSpaceOnUse" x1="256" x2="256" y1="113.882" y2="398.118"><stop offset="0" stop-color="#fd3a84"/><stop offset="1" stop-color="#ffa68d"/></linearGradient><g><g><circle cx="256" cy="256" fill="url(#SVGID_1_)" r="256"/></g><g><g><path d="m333.339 316.337c-2.533-2.533-6.384-3.296-9.68-1.925-3.314 1.37-5.482 4.614-5.482 8.206v66.618c0 4.91 3.973 8.882 8.882 8.882h35.53c4.909 0 8.882-3.973 8.882-8.882v-31.088c0-2.359-.937-4.615-2.602-6.28zm-57.562-75.5c-1.665-1.666-3.921-2.602-6.28-2.602h-13.497c-4.91 0-8.882 3.973-8.882 8.882v142.118c0 4.91 3.973 8.882 8.882 8.882h35.529c4.91 0 8.882-3.973 8.882-8.882v-120.085c0-2.359-.937-4.615-2.602-6.28zm-55.306-2.602h-35.53c-4.909 0-8.882 3.973-8.882 8.882v142.118c0 4.91 3.973 8.882 8.882 8.882h35.53c4.909 0 8.882-3.973 8.882-8.882v-142.117c0-4.91-3.973-8.883-8.882-8.883zm-100.326-64.032c-2.533-2.516-6.315-3.262-9.68-1.909-3.314 1.379-5.465 4.615-5.465 8.206v208.735c0 4.91 3.973 8.882 8.882 8.882h35.529c4.91 0 8.883-3.973 8.883-8.882v-173.379c0-2.359-.937-4.632-2.62-6.297zm281.373 64.709c-3.314-1.397-7.148-.616-9.681 1.925l-7.755 7.764-78.987-78.831c-1.665-1.657-3.921-2.594-6.28-2.594h-83.862l-46.389-50.423c-1.683-1.83-4.06-2.871-6.541-2.871h-48.142c-3.522 0-6.714 2.082-8.136 5.309-1.405 3.227-.798 6.983 1.596 9.576l81.537 88.824c1.683 1.839 4.059 2.88 6.54 2.88h85.146l65.733 65.897-7.755 7.764c-2.533 2.542-3.296 6.358-1.926 9.68 1.371 3.322 4.615 5.482 8.206 5.482h53.294c4.91 0 8.882-3.973 8.882-8.882v-53.294c.002-3.592-2.166-6.836-5.48-8.206z" fill="url(#SVGID_2_)"/></g></g></g></svg>