<svg id="Capa_1" enable-background="new 0 0 512 512" height="512" viewBox="0 0 512 512" width="512" xmlns="http://www.w3.org/2000/svg" xmlns:xlink="http://www.w3.org/1999/xlink"><linearGradient id="SVGID_1_" gradientUnits="userSpaceOnUse" x1="256" x2="256" y1="512" y2="0"><stop offset="0" stop-color="#c3ffe8"/><stop offset=".9973" stop-color="#f0fff4"/></linearGradient><linearGradient id="SVGID_2_" gradientUnits="userSpaceOnUse" x1="256" x2="256" y1="118.324" y2="393.677"><stop offset="0" stop-color="#00b59c"/><stop offset="1" stop-color="#9cffac"/></linearGradient><g><g><circle cx="256" cy="256" fill="url(#SVGID_1_)" r="256"/></g><g><g><path d="m170.577 305.529c-3.296-1.388-7.13-.625-9.68 1.926l-35.53 35.529c-1.665 1.666-2.602 3.921-2.602 6.28v35.529c0 4.91 3.973 8.882 8.882 8.882h35.53c4.909 0 8.882-3.973 8.882-8.882v-71.059c0-3.59-2.169-6.834-5.482-8.205zm67.658-36.206h-35.53c-4.909 0-8.882 3.973-8.882 8.883v106.588c0 4.91 3.973 8.882 8.882 8.882h35.53c4.91 0 8.882-3.973 8.882-8.882v-106.588c.001-4.91-3.972-8.883-8.882-8.883zm71.059 0h-35.53c-4.91 0-8.882 3.973-8.882 8.883v106.588c0 4.91 3.973 8.882 8.882 8.882h35.53c4.909 0 8.882-3.973 8.882-8.882v-106.588c.001-4.91-3.972-8.883-8.882-8.883zm74.459-52.617c-3.296-1.388-7.13-.607-9.68 1.926l-35.529 35.529c-1.666 1.666-2.602 3.921-2.602 6.28v124.353c0 4.91 3.973 8.882 8.882 8.882h35.53c4.909 0 8.882-3.973 8.882-8.882v-159.882c-.001-3.591-2.169-6.835-5.483-8.206zm14.365-98.383h-53.294c-3.591 0-6.835 2.16-8.206 5.482-1.37 3.322-.607 7.139 1.926 9.68l8.622 8.631-56.295 56.148h-120.676c-2.359 0-4.632.937-6.297 2.611l-56.313 56.495c-1.648 1.666-2.585 3.92-2.585 6.271v50.093c0 3.591 2.168 6.835 5.482 8.206 3.23 1.359 7.099.656 9.681-1.925l68.457-68.457h120.675c2.359 0 4.615-.937 6.28-2.602l69.22-69.22 7.043 7.043c2.568 2.55 6.384 3.313 9.681 1.925 3.313-1.371 5.482-4.615 5.482-8.206v-53.294c-.001-4.908-3.974-8.881-8.883-8.881z" fill="url(#SVGID_2_)"/></g></g></g></svg>