<svg id="Capa_1" enable-background="new 0 0 512 512" height="512" viewBox="0 0 512 512" width="512" xmlns="http://www.w3.org/2000/svg" xmlns:xlink="http://www.w3.org/1999/xlink"><linearGradient id="SVGID_1_" gradientUnits="userSpaceOnUse" x1="256" x2="256" y1="512" y2="0"><stop offset="0" stop-color="#ffbef9"/><stop offset="1" stop-color="#fff1ff"/></linearGradient><linearGradient id="SVGID_2_" gradientUnits="userSpaceOnUse" x1="256" x2="256" y1="105" y2="407"><stop offset="0" stop-color="#a93aff"/><stop offset="1" stop-color="#ff81ff"/></linearGradient><g><g><circle cx="256" cy="256" fill="url(#SVGID_1_)" r="256"/></g><g><g><path d="m371.471 264.882h-44.412v-71.059c0-9.812-7.953-17.765-17.765-17.765s-17.765 7.953-17.765 17.765v115.471c0 4.91-3.973 8.882-8.882 8.882s-8.882-3.973-8.882-8.882v-44.412h-8.882c-14.694 0-26.647 11.953-26.647 26.647v20.81c0 34.766 13.549 67.459 38.132 92.059 1.666 1.666 3.921 2.603 6.28 2.603h71.059c2.359 0 4.615-.937 6.28-2.603 24.583-24.6 38.132-57.292 38.132-92.059v-20.81c-.001-14.694-11.954-26.647-26.648-26.647zm-97.706-71.059c0-19.595 15.943-35.529 35.53-35.529 19.586 0 35.529 15.935 35.529 35.529v29.317c20.948-10.001 35.53-31.203 35.53-55.964 0-34.339-27.838-62.176-62.177-62.176h-142.118c-34.339 0-62.177 27.837-62.177 62.176s27.838 62.177 62.177 62.177h97.706z" fill="url(#SVGID_2_)"/></g></g></g></svg>