<svg id="Capa_1" enable-background="new 0 0 512 512" height="512" viewBox="0 0 512 512" width="512" xmlns="http://www.w3.org/2000/svg" xmlns:xlink="http://www.w3.org/1999/xlink"><linearGradient id="SVGID_1_" gradientUnits="userSpaceOnUse" x1="256" x2="256" y1="512" y2="0"><stop offset="0" stop-color="#c3ffe8"/><stop offset=".9973" stop-color="#f0fff4"/></linearGradient><linearGradient id="SVGID_2_" gradientUnits="userSpaceOnUse" x1="256" x2="256" y1="105" y2="407"><stop offset="0" stop-color="#00b59c"/><stop offset="1" stop-color="#9cffac"/></linearGradient><g><g><circle cx="256" cy="256" fill="url(#SVGID_1_)" r="256"/></g><g><g><path d="m193.824 208.711v41.522c0 42.529 24.27 81.345 62.176 99.995 37.906-18.649 62.176-57.466 62.176-99.995v-41.522l-62.176-41.444zm71.058-6.002v10.518c10.317 3.679 17.764 13.446 17.764 25.011 0 4.91-3.973 8.882-8.882 8.882s-8.882-3.973-8.882-8.882c0-4.901-3.99-8.882-8.882-8.882s-8.882 3.981-8.882 8.882 3.99 8.882 8.882 8.882c14.694 0 26.647 11.953 26.647 26.646 0 11.564-7.448 21.332-17.764 25.011v10.518c0 4.91-3.973 8.882-8.882 8.882s-8.882-3.973-8.882-8.882v-10.518c-10.317-3.679-17.764-13.446-17.764-25.011 0-4.91 3.973-8.882 8.882-8.882s8.882 3.973 8.882 8.882c0 4.901 3.99 8.882 8.882 8.882s8.882-3.981 8.882-8.882-3.99-8.882-8.882-8.882c-14.694 0-26.647-11.953-26.647-26.646 0-11.565 7.448-21.332 17.764-25.011v-10.518c0-4.91 3.973-8.882 8.882-8.882s8.882 3.972 8.882 8.882zm102.632-25.155-106.587-71.058c-2.984-1.995-6.87-1.995-9.854 0l-106.587 71.058c-2.463 1.648-3.955 4.424-3.955 7.39v65.29c0 71.032 45.279 133.849 112.659 156.306.919.304 1.856.46 2.81.46s1.891-.156 2.81-.46c67.38-22.457 112.659-85.274 112.659-156.306v-65.29c0-2.966-1.492-5.742-3.955-7.39zm-31.574 72.68c0 50.865-29.96 97.149-76.314 117.915-1.145.512-2.394.772-3.626.772s-2.481-.26-3.626-.772c-46.354-20.766-76.314-67.05-76.314-117.915v-46.276c0-2.967 1.492-5.742 3.955-7.391l71.058-47.369c2.984-1.995 6.87-1.995 9.854 0l71.058 47.369c2.464 1.648 3.955 4.424 3.955 7.391z" fill="url(#SVGID_2_)"/></g></g></g></svg>