<svg id="Capa_1" enable-background="new 0 0 512 512" height="512" viewBox="0 0 512 512" width="512" xmlns="http://www.w3.org/2000/svg" xmlns:xlink="http://www.w3.org/1999/xlink"><linearGradient id="SVGID_1_" gradientUnits="userSpaceOnUse" x1="256" x2="256" y1="512" y2="0"><stop offset="0" stop-color="#ffbef9"/><stop offset="1" stop-color="#fff1ff"/></linearGradient><linearGradient id="SVGID_2_" gradientUnits="userSpaceOnUse" x1="256" x2="256" y1="407" y2="105"><stop offset="0" stop-color="#ff81ff"/><stop offset="1" stop-color="#a93aff"/></linearGradient><g><g><circle cx="256" cy="256" fill="url(#SVGID_1_)" r="256"/></g><g><g><g><path d="m335.941 184.941h71.059c0-2.31-.888-4.619-2.665-6.217l-71.059-71.059c-1.598-1.777-3.908-2.665-6.217-2.665v71.059c0 4.905 3.977 8.882 8.882 8.882zm-142.118 177.647v-222.059h-79.941c-4.91 0-8.882 3.973-8.882 8.882v248.706c0 4.91 3.973 8.882 8.882 8.882h177.647c4.91 0 8.882-3.973 8.882-8.882v-8.882h-79.941c-14.693 0-26.647-11.953-26.647-26.647zm115.471-186.529v-71.059h-88.824c-4.975 0-8.882 3.908-8.882 8.882v248.706c0 4.975 3.908 8.882 8.882 8.882h177.647c4.975 0 8.882-3.908 8.882-8.882v-159.882h-71.059c-14.693 0-26.646-11.953-26.646-26.647zm53.294 124.353h-106.588c-4.91 0-8.882-3.973-8.882-8.882 0-4.91 3.973-8.882 8.882-8.882h106.588c4.91 0 8.882 3.973 8.882 8.882.001 4.909-3.972 8.882-8.882 8.882zm8.883-62.177c0 4.91-3.973 8.882-8.882 8.882h-106.589c-4.91 0-8.882-3.973-8.882-8.882 0-4.91 3.973-8.882 8.882-8.882h106.588c4.91 0 8.883 3.973 8.883 8.882z" fill="url(#SVGID_2_)"/></g></g></g></g></svg>