<svg id="Capa_1" enable-background="new 0 0 512 512" height="512" viewBox="0 0 512 512" width="512" xmlns="http://www.w3.org/2000/svg" xmlns:xlink="http://www.w3.org/1999/xlink"><linearGradient id="SVGID_1_" gradientUnits="userSpaceOnUse" x1="256" x2="256" y1="512" y2="0"><stop offset="0" stop-color="#ffedad"/><stop offset="1" stop-color="#ffffe5"/></linearGradient><linearGradient id="SVGID_2_" gradientUnits="userSpaceOnUse" x1="256" x2="256" y1="407" y2="105.007"><stop offset="0" stop-color="#ffde00"/><stop offset="1" stop-color="#fd5900"/></linearGradient><g><g><g><circle cx="256" cy="256" fill="url(#SVGID_1_)" r="256"/></g></g><g><g><g><path d="m405.504 268.841-35.529-53.293c-3.296-4.944-11.484-4.944-14.78 0l-35.529 53.293c-1.822 2.724-1.995 6.228-.434 9.116 1.544 2.888 4.545 4.693 7.824 4.693h8.362c-3.071 24.946-19.777 40.516-52.772 49.233v-102.526h26.646c4.91 0 8.882-3.973 8.882-8.882s-3.973-8.882-8.882-8.882h-26.646v-26.829c11.068-8.223 17.764-21.329 17.764-35.346 0-24.487-19.915-44.411-44.411-44.411s-44.411 19.924-44.411 44.411c0 14.017 6.696 27.123 17.764 35.346v26.829h-26.646c-4.91 0-8.882 3.973-8.882 8.882s3.973 8.882 8.882 8.882h26.646v102.526c-32.996-8.717-49.702-24.287-52.772-49.233h8.362c3.279 0 6.28-1.804 7.824-4.693 1.561-2.888 1.388-6.393-.434-9.116l-35.529-53.293c-3.296-4.944-11.484-4.944-14.78 0l-35.529 53.293c-1.822 2.724-1.995 6.228-.434 9.116 1.544 2.888 4.545 4.693 7.824 4.693h9.194c4.493 62.99 56.676 84.71 91.718 99.299 14.052 5.838 27.323 11.354 31.035 16.949l2.776 4.155c1.648 2.463 4.424 3.947 7.39 3.947s5.742-1.483 7.39-3.947l2.776-4.163c3.713-5.577 16.984-11.094 31.018-16.94 35.06-14.581 87.243-36.301 91.736-99.299h9.194c3.279 0 6.28-1.804 7.824-4.693 1.564-2.889 1.391-6.393-.431-9.117zm-149.504-110.541c-4.905 0-8.882-3.977-8.882-8.882s3.977-8.882 8.882-8.882 8.882 3.977 8.882 8.882-3.977 8.882-8.882 8.882z" fill="url(#SVGID_2_)"/></g></g></g></g></svg>