<svg id="Capa_1" enable-background="new 0 0 512 512" height="512" viewBox="0 0 512 512" width="512" xmlns="http://www.w3.org/2000/svg" xmlns:xlink="http://www.w3.org/1999/xlink"><linearGradient id="SVGID_1_" gradientUnits="userSpaceOnUse" x1="256" x2="256" y1="512" y2="0"><stop offset="0" stop-color="#addcff"/><stop offset=".5028" stop-color="#eaf6ff"/><stop offset="1" stop-color="#eaf6ff"/></linearGradient><linearGradient id="SVGID_2_" gradientUnits="userSpaceOnUse" x1="256" x2="256" y1="407" y2="105"><stop offset="0" stop-color="#00c0ff"/><stop offset="1" stop-color="#5558ff"/></linearGradient><g><g><circle cx="256" cy="256" fill="url(#SVGID_1_)" r="256"/></g><g><g><path d="m202.985 328.87c.009-2.785 1.324-5.406 3.553-7.078l16.051-12.038v-10.262c0-2.355.936-4.615 2.602-6.281l7.869-7.869-14.332-2.867c-1.861-.372-3.553-1.331-4.83-2.735l-22.687-24.956-19.472.26v11.436l21.991 22.618c1.612 1.658 2.514 3.879 2.514 6.192v25.492zm-47.509-98.186 2.861-28.854c.301-3.036 2.139-5.705 4.868-7.069l32.729-16.358 7.845-17.275c.951-2.095 2.679-3.739 4.818-4.586l14.678-5.811-37.704-28.375c-13.222 6.989-25.468 15.995-36.344 26.871-8.777 8.777-16.335 18.446-22.601 28.8l14.289 42.95zm251.524 25.316c0-22.621-4.943-44.482-14.313-64.352l-40.697 14.017c-1.398.482-2.894.606-4.353.363l-29.406-4.901c-2.422-.404-4.569-1.792-5.93-3.834l-5.366-8.049-33.786 17.729 20.435 4.855c2.233.531 4.173 1.905 5.416 3.834l10.011 15.553 13.428-3.357c2.427-.607 4.999-.162 7.081 1.227l14.704 9.802c2.471 1.647 3.955 4.421 3.955 7.391v16.131l26.012 28.17c1.515 1.641 2.357 3.792 2.357 6.026v50.36c19.753-26.066 30.452-57.691 30.452-90.965zm-76.587 9.882v-14.851l-7.479-4.985-15.792 3.948c-3.693.923-7.563-.609-9.623-3.809l-11.522-17.899-40.036-9.512c-3.604-.856-6.298-3.859-6.76-7.535-.462-3.675 1.406-7.251 4.686-8.972l61.874-32.468c4.025-2.112 8.996-.844 11.518 2.938l7.667 11.501 23.388 3.898 35.691-12.293c-5.993-9.531-13.096-18.459-21.253-26.615-28.519-28.521-66.439-44.228-106.772-44.228-17.969 0-35.457 3.125-51.85 9.105l42.464 31.957c2.568 1.932 3.891 5.1 3.462 8.285-.43 3.184-2.546 5.889-5.533 7.071l-26.072 10.321-7.663 16.875c-.842 1.854-2.295 3.362-4.117 4.273l-31.159 15.573-2.856 28.805 22.298-.297c2.567-.043 4.98 1.024 6.691 2.907l23.413 25.754 27.74 5.55c3.212.643 5.81 3.001 6.759 6.136s.096 6.538-2.221 8.854l-17.003 17.003v11.024c0 2.796-1.316 5.429-3.553 7.106l-16.052 12.038v20.064c0 3.74-2.342 7.079-5.859 8.352-.989.358-2.011.531-3.022.531-2.586 0-5.104-1.131-6.825-3.197l-24.505-29.406c-1.33-1.596-2.059-3.608-2.059-5.687v-25.102l-21.991-22.618c-1.612-1.658-2.514-3.879-2.514-6.192v-19.053l-25.451-16.967c-1.645-1.097-2.877-2.71-3.501-4.586l-9.591-28.827c-6.842 17.394-10.43 36.094-10.43 55.348 0 40.333 15.707 78.253 44.227 106.773s66.44 44.227 106.773 44.227c38.483 0 74.761-14.308 102.781-40.391v-66.53l-26.012-28.17c-1.515-1.641-2.356-3.793-2.356-6.027z" fill="url(#SVGID_2_)"/></g></g></g></svg>