<svg id="Capa_1" enable-background="new 0 0 512 512" height="512" viewBox="0 0 512 512" width="512" xmlns="http://www.w3.org/2000/svg" xmlns:xlink="http://www.w3.org/1999/xlink"><linearGradient id="SVGID_1_" gradientUnits="userSpaceOnUse" x1="256" x2="256" y1="512" y2="0"><stop offset="0" stop-color="#addcff"/><stop offset=".5028" stop-color="#eaf6ff"/><stop offset="1" stop-color="#eaf6ff"/></linearGradient><linearGradient id="SVGID_2_" gradientUnits="userSpaceOnUse" x1="256" x2="256" y1="389.5" y2="122.5"><stop offset="0" stop-color="#00c0ff"/><stop offset="1" stop-color="#5558ff"/></linearGradient><g><g><circle cx="256" cy="256" fill="url(#SVGID_1_)" r="256"/></g><g><g><g><g><path d="m398.118 122.5h-168.765v26.7c0 4.983-3.908 8.9-8.882 8.9s-8.882-3.917-8.882-8.9v-26.7h-17.765v26.7c0 4.983-3.908 8.9-8.882 8.9s-8.882-3.917-8.882-8.9v-26.7h-17.765v26.7c0 4.983-3.908 8.9-8.883 8.9s-8.882-3.917-8.882-8.9v-26.7h-26.647c-4.975 0-8.882 3.916-8.882 8.9v44.5h302v-44.5c-.001-4.984-3.909-8.9-8.883-8.9zm-293.118 258.1c0 4.983 3.908 8.9 8.882 8.9h284.235c4.975 0 8.882-3.917 8.882-8.9v-62.3h-86.336c-9.948 21.36-31.622 35.6-55.781 35.6-44.234 0-100.903-44.5-103.213-46.458-3.02-2.314-4.085-6.231-2.842-9.791 1.242-3.737 4.618-6.051 8.349-6.051 23.449 0 34.286-13.885 46.899-29.904 11.902-15.131 25.226-32.396 50.807-32.396 23.982 0 45.656 14.062 55.781 35.6h86.337v-71.2h-302z" fill="url(#SVGID_2_)"/></g></g></g></g></g></svg>