<svg id="Capa_1" enable-background="new 0 0 512 512" height="512" viewBox="0 0 512 512" width="512" xmlns="http://www.w3.org/2000/svg" xmlns:xlink="http://www.w3.org/1999/xlink"><linearGradient id="SVGID_1_" gradientUnits="userSpaceOnUse" x1="256" x2="256" y1="512" y2="0"><stop offset="0" stop-color="#addcff"/><stop offset=".5028" stop-color="#eaf6ff"/><stop offset="1" stop-color="#eaf6ff"/></linearGradient><linearGradient id="SVGID_2_" gradientUnits="userSpaceOnUse" x1="256" x2="256" y1="407" y2="105"><stop offset="0" stop-color="#00c0ff"/><stop offset="1" stop-color="#5558ff"/></linearGradient><g><g><circle cx="256" cy="256" fill="url(#SVGID_1_)" r="256"/></g><g><g><g><g><path d="m300.318 149.412c0-24.487-19.882-44.412-44.318-44.412s-44.318 19.925-44.318 44.412 19.883 44.412 44.318 44.412 44.318-19.925 44.318-44.412zm8.864 186.529h-106.364c-24.436 0-44.318 19.924-44.318 44.412v17.765c0 4.91 3.964 8.882 8.864 8.882h177.273c4.899 0 8.864-3.973 8.864-8.882v-17.765c-.001-24.487-19.884-44.412-44.319-44.412zm-106.364-17.765h106.364c4.899 0 8.864-3.973 8.864-8.882s-3.964-8.882-8.864-8.882h-12.153c-5.878-19.711-11.677-48.54-14.681-88.823h9.107c4.899 0 8.864-3.973 8.864-8.882s-3.964-8.882-8.864-8.882h-35.455-35.455c-4.899 0-8.864 3.973-8.864 8.882 0 4.91 3.964 8.882 8.864 8.882h5.549c-3.007 40.291-8.808 69.119-14.684 88.823h-8.593c-4.899 0-8.864 3.973-8.864 8.882.002 4.91 3.966 8.882 8.865 8.882z" fill="url(#SVGID_2_)"/></g></g></g></g></g></svg>