<svg id="Capa_1" enable-background="new 0 0 512 512" height="512" viewBox="0 0 512 512" width="512" xmlns="http://www.w3.org/2000/svg" xmlns:xlink="http://www.w3.org/1999/xlink"><linearGradient id="SVGID_1_" gradientUnits="userSpaceOnUse" x1="256" x2="256" y1="512" y2="0"><stop offset="0" stop-color="#ffc8d1"/><stop offset="1" stop-color="#fff6f7"/></linearGradient><linearGradient id="SVGID_2_" gradientUnits="userSpaceOnUse" x1="256" x2="256" y1="407" y2="105"><stop offset="0" stop-color="#ffa68d"/><stop offset="1" stop-color="#fd3a84"/></linearGradient><g><g><g><circle cx="256" cy="256" fill="url(#SVGID_1_)" r="256"/></g></g><g><g><g><path d="m382.827 129.173c-30.267-30.267-77.991-31.977-110.694-5.888l116.582 116.582c26.088-32.702 24.378-80.427-5.888-110.694zm-144.108 65.504c-3.621-3.621-9.48-3.621-13.101 0l-39.302 39.302c-3.621 3.621-3.621 9.48 0 13.101l78.604 78.604c3.621 3.621 9.48 3.621 13.101 0l39.302-39.302c3.621-3.621 3.621-9.48 0-13.101zm-131.526 170.879c-3.115 3.678-2.885 9.128.518 12.531l26.202 26.202c3.403 3.403 8.853 3.633 12.531.518l92.876-78.521-53.605-53.606zm135.457-193.15 96.944 96.944c12.845-2.54 25.27-7.807 36.021-16.382l-116.583-116.582c-8.576 10.75-13.843 23.176-16.382 36.02z" fill="url(#SVGID_2_)"/></g></g></g></g></svg>