<svg id="Capa_1" enable-background="new 0 0 512 512" height="512" viewBox="0 0 512 512" width="512" xmlns="http://www.w3.org/2000/svg" xmlns:xlink="http://www.w3.org/1999/xlink"><linearGradient id="SVGID_1_" gradientUnits="userSpaceOnUse" x1="256" x2="256" y1="512" y2="0"><stop offset="0" stop-color="#addcff"/><stop offset=".5028" stop-color="#eaf6ff"/><stop offset="1" stop-color="#eaf6ff"/></linearGradient><linearGradient id="SVGID_2_" gradientUnits="userSpaceOnUse" x1="256" x2="256" y1="407" y2="105"><stop offset="0" stop-color="#00c0ff"/><stop offset="1" stop-color="#5558ff"/></linearGradient><g><g><g><circle cx="256" cy="256" fill="url(#SVGID_1_)" r="256"/></g></g><g><g><g><path d="m256 176.059c-44.082 0-79.941 35.859-79.941 79.941 0 34.691 22.34 63.992 53.288 75.028l-.011-18.837c-21.477-10.209-35.512-32.051-35.512-56.191 0-26.109 16.654-49.582 41.428-58.403 2.724-.928 5.76-.546 8.102 1.11 2.359 1.666 3.765 4.372 3.765 7.26v46.355l8.882 8.882 8.882-8.882v-46.355c0-2.888 1.405-5.595 3.765-7.26 2.359-1.657 5.413-2.038 8.102-1.11 24.773 8.822 41.428 32.294 41.428 58.403 0 24.158-14.035 45.99-35.53 56.165v18.865c30.949-11.036 53.294-40.337 53.294-75.03-.001-44.082-35.86-79.941-79.942-79.941zm44.412 79.941c0-14.07-6.8-27.063-17.765-35.295v35.295c0 2.359-.937 4.615-2.602 6.28l-17.765 17.765c-3.469 3.47-9.091 3.47-12.56 0l-17.765-17.765c-1.665-1.665-2.602-3.921-2.602-6.28v-35.295c-10.964 8.232-17.765 21.226-17.765 35.295 0 18.788 11.901 35.616 29.596 41.888 3.539 1.249 5.916 4.597 5.916 8.362l.013 28.794c2.958.333 5.844.898 8.887.898 3.04 0 5.929-.565 8.882-.898v-28.812c0-3.764 2.377-7.122 5.933-8.379 17.696-6.237 29.597-23.056 29.597-41.853zm97.706-26.647h-11.693c-3.4-16.628-9.993-32.546-19.361-46.728l8.275-8.275c3.902-3.902 3.024-9.536 0-12.56l-25.121-25.12c-3.469-3.47-9.09-3.47-12.56 0l-8.275 8.275c-14.174-9.368-30.099-15.96-46.737-19.352v-11.71c0-4.91-3.973-8.882-8.882-8.882h-35.529c-4.91 0-8.882 3.973-8.882 8.882v11.71c-16.637 3.392-32.563 9.984-46.737 19.352l-8.275-8.275c-3.47-3.47-9.091-3.47-12.56 0l-25.121 25.12c-2.996 2.996-3.913 8.647 0 12.56l8.275 8.275c-9.368 14.182-15.961 30.099-19.361 46.728h-11.693c-4.91 0-8.882 3.973-8.882 8.882v35.529c0 4.91 3.973 8.882 8.882 8.882h11.693c3.4 16.628 9.993 32.545 19.361 46.728l-8.275 8.275c-3.902 3.902-3.024 9.537 0 12.56l25.121 25.121c3.469 3.47 9.09 3.47 12.56 0l8.275-8.275c14.174 9.368 30.099 15.96 46.737 19.352v11.71c0 4.91 3.973 8.882 8.882 8.882h35.529c4.91 0 8.882-3.973 8.882-8.882v-11.71c16.637-3.392 32.563-9.984 46.737-19.352l8.275 8.275c3.47 3.47 9.091 3.47 12.56 0l25.121-25.121c2.996-2.996 3.913-8.647 0-12.56l-8.275-8.275c9.368-14.183 15.961-30.1 19.361-46.728h11.693c4.91 0 8.882-3.973 8.882-8.882v-35.529c0-4.909-3.973-8.882-8.882-8.882zm-142.118 124.353c-53.867 0-97.706-43.831-97.706-97.706s43.839-97.706 97.706-97.706 97.706 43.831 97.706 97.706-43.839 97.706-97.706 97.706z" fill="url(#SVGID_2_)"/></g></g></g></g></svg>