<svg id="Capa_1" enable-background="new 0 0 512 512" height="512" viewBox="0 0 512 512" width="512" xmlns="http://www.w3.org/2000/svg" xmlns:xlink="http://www.w3.org/1999/xlink"><linearGradient id="SVGID_1_" gradientUnits="userSpaceOnUse" x1="256" x2="256" y1="512" y2="0"><stop offset="0" stop-color="#addcff"/><stop offset=".5028" stop-color="#eaf6ff"/><stop offset="1" stop-color="#eaf6ff"/></linearGradient><linearGradient id="SVGID_2_" gradientUnits="userSpaceOnUse" x1="256" x2="256" y1="407" y2="105"><stop offset="0" stop-color="#00c0ff"/><stop offset="1" stop-color="#5558ff"/></linearGradient><g><g><circle cx="256" cy="256" fill="url(#SVGID_1_)" r="256"/></g><g><g><g><g><path d="m309.294 122.765h17.765c4.909 0 8.882-3.973 8.882-8.882s-3.973-8.883-8.882-8.883h-17.765c-21.446 0-39.386 15.283-43.513 35.529h18.502c3.679-10.317 13.446-17.764 25.011-17.764zm-17.765 35.529h-71.059c-24.487 0-44.412 19.925-44.412 44.412v124.353c.001 44.082 35.86 79.941 79.942 79.941s79.941-35.859 79.941-79.941v-124.353c0-24.487-19.924-44.412-44.412-44.412zm-8.882 97.706c0 14.694-11.953 26.647-26.647 26.647s-26.647-11.953-26.647-26.647v-35.529c0-14.694 11.953-26.647 26.647-26.647s26.647 11.953 26.647 26.647z" fill="url(#SVGID_2_)"/></g></g></g></g></g></svg>