<svg id="Capa_1" enable-background="new 0 0 512 512" height="512" viewBox="0 0 512 512" width="512" xmlns="http://www.w3.org/2000/svg" xmlns:xlink="http://www.w3.org/1999/xlink"><linearGradient id="SVGID_1_" gradientUnits="userSpaceOnUse" x1="256" x2="256" y1="512" y2="0"><stop offset="0" stop-color="#ffedad"/><stop offset="1" stop-color="#ffffe5"/></linearGradient><linearGradient id="SVGID_2_" gradientUnits="userSpaceOnUse" x1="256" x2="256" y1="407" y2="105"><stop offset="0" stop-color="#ffde00"/><stop offset="1" stop-color="#fd5900"/></linearGradient><g><g><circle cx="256" cy="256" fill="url(#SVGID_1_)" r="256"/></g><g><g><g><g><g><path d="m220.462 193.823h71.077c31.018 0 46.436 14.59 47.026 15.163 1.735 1.735 4.008 2.603 6.282 2.603 2.273 0 4.546-.868 6.282-2.603 3.471-3.47 3.471-9.09 0-12.56-.445-.444-6.524-6.198-17.831-11.484 11.307-5.287 17.386-11.04 17.831-11.485 3.453-3.452 3.445-9.012.026-12.491-3.427-3.461-9.032-3.513-12.537-.122-.642.625-16.06 15.214-47.078 15.214h-71.077c-4.911 0-8.885 3.973-8.885 8.883-.001 4.91 3.973 8.882 8.884 8.882zm0-35.529h71.077c1.29 0 2.403-.132 3.619-.189 2.977-10.122 5.266-22.109 5.266-35.34 0-3.366-1.9-6.436-4.911-7.945-.808-.4-19.87-9.82-39.513-9.82s-38.705 9.42-39.512 9.819c-3.011 1.509-4.911 4.58-4.911 7.945 0 13.459 2.362 25.65 5.416 35.88 1.148-.15 2.281-.35 3.469-.35zm92.065 56.407c-5.358-1.731-12.333-3.113-20.988-3.113 0 0-79.139 0-89.403 0-26.712 31.877-61.636 80.558-61.636 117.188.599 43.137 37.109 78.224 81.384 78.224 0 0 73.065-.105 75.442-.313 40.962-3.561 73.608-37.147 74.174-78.033v-1.596c0-34.379-32.66-80.644-58.973-112.357z" fill="url(#SVGID_2_)"/></g></g></g></g></g></g></svg>