<svg id="Capa_1" enable-background="new 0 0 512 512" height="512" viewBox="0 0 512 512" width="512" xmlns="http://www.w3.org/2000/svg" xmlns:xlink="http://www.w3.org/1999/xlink"><linearGradient id="SVGID_1_" gradientUnits="userSpaceOnUse" x1="256" x2="256" y1="512" y2="0"><stop offset="0" stop-color="#ffedad"/><stop offset="1" stop-color="#ffffe5"/></linearGradient><linearGradient id="SVGID_2_" gradientUnits="userSpaceOnUse" x1="256" x2="256" y1="407" y2="105"><stop offset="0" stop-color="#ffde00"/><stop offset="1" stop-color="#fd5900"/></linearGradient><g><g><circle cx="256" cy="256" fill="url(#SVGID_1_)" r="256"/></g><g><g><g><g><path d="m264.894 156.658c10.33-3.679 17.787-13.446 17.787-25.011 0-14.694-11.968-26.647-26.681-26.647s-26.681 11.953-26.681 26.647c0 11.565 7.457 21.332 17.787 25.011v37.165h17.787v-37.165zm112.273 138.437c-6.158-3.539-13.323-4.494-20.245-2.654-3.888 1.038-7.255 3.065-10.229 5.595l-28.437-16.397v-51.275l28.438-16.398c2.974 2.531 6.341 4.558 10.228 5.596 2.302.616 4.629.92 6.948.92 4.621 0 9.189-1.206 13.297-3.574 12.732-7.347 17.118-23.672 9.771-36.405-7.365-12.725-23.719-17.114-36.443-9.758-.008 0-.008 0-.017 0-10.021 5.789-14.757 17.127-12.781 27.894l-19.441 11.21v-7.14c0-4.975-3.913-8.883-8.894-8.883h-44.468v26.647c0 4.974-3.913 8.882-8.894 8.882s-8.894-3.909-8.894-8.882v-26.647h-44.468c-4.981 0-8.894 3.908-8.894 8.883v7.14l-19.44-11.209c1.975-10.77-2.763-22.106-12.782-27.895-.009 0-.009 0-.018 0-12.749-7.347-29.086-2.958-36.443 9.767-7.348 12.725-2.962 29.05 9.771 36.396 4.108 2.368 8.668 3.574 13.297 3.574 2.31 0 4.647-.304 6.948-.92 3.888-1.038 7.255-3.065 10.229-5.595l28.437 16.397v51.275l-28.438 16.398c-2.974-2.531-6.341-4.558-10.228-5.596-6.896-1.839-14.079-.902-20.245 2.654-12.732 7.347-17.118 23.671-9.771 36.405 4.942 8.535 13.922 13.315 23.155 13.315 4.525 0 9.111-1.145 13.306-3.557 10.021-5.789 14.757-17.127 12.781-27.894l19.441-11.21v7.14c0 4.974 3.913 8.882 8.894 8.882h44.468v37.166c-10.33 3.679-17.787 13.446-17.787 25.011 0 14.694 11.968 26.647 26.681 26.647s26.681-11.953 26.681-26.647c0-11.565-7.457-21.332-17.787-25.011v-37.166h44.468c4.981 0 8.894-3.909 8.894-8.882v-7.14l19.44 11.209c-1.975 10.77 2.766 22.106 12.799 27.895 4.187 2.412 8.764 3.557 13.28 3.557 9.232 0 18.221-4.78 23.163-13.324 7.347-12.725 2.961-29.05-9.771-36.396z" fill="url(#SVGID_2_)"/></g></g></g></g></g></svg>