<svg id="Capa_1" enable-background="new 0 0 512 512" height="512" viewBox="0 0 512 512" width="512" xmlns="http://www.w3.org/2000/svg" xmlns:xlink="http://www.w3.org/1999/xlink"><linearGradient id="SVGID_1_" gradientUnits="userSpaceOnUse" x1="256" x2="256" y1="512" y2="0"><stop offset="0" stop-color="#ffc8d1"/><stop offset="1" stop-color="#fff6f7"/></linearGradient><linearGradient id="SVGID_2_" gradientUnits="userSpaceOnUse" x1="256" x2="256" y1="407" y2="105"><stop offset="0" stop-color="#ffa68d"/><stop offset="1" stop-color="#fd3a84"/></linearGradient><g><g><circle cx="256" cy="256" fill="url(#SVGID_1_)" r="256"/></g><g><g><g><g><path d="m310.857 278.879c0 30.199-24.685 54.909-54.857 54.909s-54.857-24.71-54.857-54.909v-91.515h-73.143v91.515c0 70.649 57.417 128.121 128 128.121s128-57.472 128-128.121v-91.515h-73.143zm-85.178-119.443 40.821 13.629-26.107 26.132c-3.571 3.575-3.571 9.366 0 12.941 1.786 1.787 4.125 2.681 6.464 2.681s4.679-.894 6.464-2.681l36.571-36.606c2.241-2.244 3.161-5.488 2.438-8.571-.732-3.092-3-5.577-6.009-6.578l-40.821-13.629 26.107-26.132c3.571-3.575 3.571-9.366 0-12.941s-9.357-3.575-12.929 0l-36.571 36.606c-2.241 2.243-3.161 5.487-2.438 8.571.733 3.092 3.001 5.577 6.01 6.578zm-24.536-45.285c0-5.125-4.022-9.151-9.143-9.151h-54.857c-5.121 0-9.143 4.026-9.143 9.151v54.909h73.143zm173.714-9.151h-54.857c-5.121 0-9.143 4.026-9.143 9.151v54.909h73.143v-54.909c0-5.125-4.022-9.151-9.143-9.151z" fill="url(#SVGID_2_)"/></g></g></g></g></g></svg>