<svg id="Capa_1" enable-background="new 0 0 512 512" height="512" viewBox="0 0 512 512" width="512" xmlns="http://www.w3.org/2000/svg" xmlns:xlink="http://www.w3.org/1999/xlink"><linearGradient id="SVGID_1_" gradientUnits="userSpaceOnUse" x1="256" x2="256" y1="512" y2="0"><stop offset="0" stop-color="#ffc8d1"/><stop offset="1" stop-color="#fff6f7"/></linearGradient><linearGradient id="SVGID_2_" gradientUnits="userSpaceOnUse" x1="256" x2="256" y1="407" y2="105"><stop offset="0" stop-color="#ffa68d"/><stop offset="1" stop-color="#fd3a84"/></linearGradient><g><g><circle cx="256" cy="256" fill="url(#SVGID_1_)" r="256"/></g><g><g><g><path d="m167.177 264.882c2.273 0 4.545-.868 6.28-2.602l82.543-82.543 29.249 29.249c3.47 3.47 9.091 3.47 12.56 0l73.661-73.661v14.087c0 4.91 3.973 8.882 8.882 8.882s8.882-3.973 8.882-8.882v-35.529c0-1.156-.234-2.306-.683-3.392-.9-2.175-2.633-3.908-4.808-4.808-1.085-.449-2.236-.683-3.392-.683h-35.53c-4.909 0-8.882 3.973-8.882 8.882s3.973 8.882 8.882 8.882h14.087l-67.381 67.381-29.249-29.249c-3.469-3.47-9.091-3.47-12.56 0l-88.823 88.823c-3.47 3.47-3.47 9.091 0 12.561 1.736 1.735 4.009 2.602 6.282 2.602zm230.941 124.353h-275.353v-275.353c0-4.91-3.973-8.882-8.882-8.882-4.91 0-8.882 3.973-8.882 8.882v284.235c0 4.91 3.973 8.882 8.882 8.882h284.235c4.91 0 8.882-3.973 8.882-8.882s-3.973-8.882-8.882-8.882zm-17.765-177.647h-53.294c-4.91 0-8.882 3.973-8.882 8.882v151h71.059v-151c-.001-4.909-3.974-8.882-8.883-8.882zm-142.118 53.294c-4.91 0-8.882 3.973-8.882 8.882v97.706h71.059v-97.706c0-4.91-3.973-8.882-8.882-8.882zm-26.647 62.177c0-4.909-3.973-8.882-8.883-8.882h-53.294c-4.909 0-8.882 3.973-8.882 8.882v44.412h71.059z" fill="url(#SVGID_2_)"/></g></g></g></g></svg>