<svg id="Capa_1" enable-background="new 0 0 512 512" height="512" viewBox="0 0 512 512" width="512" xmlns="http://www.w3.org/2000/svg" xmlns:xlink="http://www.w3.org/1999/xlink"><linearGradient id="SVGID_1_" gradientUnits="userSpaceOnUse" x1="256" x2="256" y1="512" y2="0"><stop offset="0" stop-color="#ffedad"/><stop offset="1" stop-color="#ffffe5"/></linearGradient><linearGradient id="SVGID_2_" gradientUnits="userSpaceOnUse" x1="256.009" x2="256.009" y1="406.983" y2="105"><stop offset="0" stop-color="#ffde00"/><stop offset="1" stop-color="#fd5900"/></linearGradient><g><g><circle cx="256" cy="256" fill="url(#SVGID_1_)" r="256"/></g><g><g><g><path d="m404.508 107.492c-3.322-3.322-8.699-3.322-12.021 0l-79.242 79.242c-9.471-4.492-21.119-2.922-28.945 4.903-9.943 9.943-9.943 26.12 0 36.063s26.119 9.943 36.062 0c7.826-7.826 9.395-19.474 4.903-28.945l79.242-79.243c3.324-3.322 3.324-8.698.001-12.02zm-72.125 132.229c-16.57 16.569-43.534 16.569-60.104 0-16.57-16.57-16.57-43.535 0-60.104 9.55-9.55 22.973-13.77 35.974-11.933l26.618-26.618h-68.589c-1.114-.001-2.222.222-3.268.656-1.038.431-1.975 1.051-2.757 1.833l-152.75 152.75c-3.322 3.322-3.322 8.699 0 12.021l96.167 96.167c3.322 3.322 8.699 3.322 12.021 0l152.75-152.75c.782-.782 1.402-1.719 1.833-2.757.434-1.046.657-2.154.656-3.268v-68.588l-26.618 26.618c1.837 12.999-2.383 26.423-11.933 35.973z" fill="url(#SVGID_2_)"/></g></g></g></g></svg>