<svg id="Capa_1" enable-background="new 0 0 512 512" height="512" viewBox="0 0 512 512" width="512" xmlns="http://www.w3.org/2000/svg" xmlns:xlink="http://www.w3.org/1999/xlink"><linearGradient id="SVGID_1_" gradientUnits="userSpaceOnUse" x1="256" x2="256" y1="512" y2="0"><stop offset="0" stop-color="#ffedad"/><stop offset="1" stop-color="#ffffe5"/></linearGradient><linearGradient id="SVGID_2_" gradientUnits="userSpaceOnUse" x1="256" x2="256" y1="406.821" y2="105"><stop offset="0" stop-color="#ffde00"/><stop offset="1" stop-color="#fd5900"/></linearGradient><g><g><circle cx="256" cy="256" fill="url(#SVGID_1_)" r="256"/></g><g><g><g><path d="m366.508 127.372c-29.829-29.829-78.358-29.829-108.187 0-23.085 23.085-28.825 58.044-14.944 87.069l-117.765 117.764c-3.322 3.322-3.322 8.699 0 12.021l60.104 60.104c3.322 3.322 8.699 3.322 12.021 0l24.042-24.042c3.322-3.322 3.322-8.699 0-12.021l-30.052-30.052 12.021-12.021 18.031 18.031c3.322 3.322 8.699 3.322 12.021 0l24.042-24.042c3.322-3.322 3.322-8.699 0-12.021l-18.031-18.031 39.629-39.629c29.025 13.881 63.984 8.141 87.069-14.944 29.828-29.828 29.828-78.357-.001-108.186zm-24.042 84.146c-16.57 16.569-43.534 16.569-60.104 0-16.57-16.57-16.57-43.535 0-60.104 16.57-16.57 43.534-16.57 60.104 0 16.57 16.569 16.57 43.534 0 60.104z" fill="url(#SVGID_2_)"/></g></g></g></g></svg>