<svg id="Capa_1" enable-background="new 0 0 512 512" height="512" viewBox="0 0 512 512" width="512" xmlns="http://www.w3.org/2000/svg" xmlns:xlink="http://www.w3.org/1999/xlink"><linearGradient id="SVGID_1_" gradientUnits="userSpaceOnUse" x1="256" x2="256" y1="512" y2="0"><stop offset="0" stop-color="#addcff"/><stop offset=".5028" stop-color="#eaf6ff"/><stop offset="1" stop-color="#eaf6ff"/></linearGradient><linearGradient id="SVGID_2_" gradientUnits="userSpaceOnUse" x1="256" x2="256" y1="407" y2="105"><stop offset="0" stop-color="#00c0ff"/><stop offset="1" stop-color="#5558ff"/></linearGradient><g><g><circle cx="256" cy="256" fill="url(#SVGID_1_)" r="256"/></g><g><g><g><path d="m356.349 186.175 19.167-19.128c3.477-3.47 3.477-9.09 0-12.56s-9.109-3.47-12.585 0l-19.167 19.128c-21.393-18.697-48.756-30.64-78.864-32.635v-18.215h8.9c4.919 0 8.9-3.973 8.9-8.882s-3.981-8.883-8.9-8.883h-35.6c-4.919 0-8.9 3.973-8.9 8.882s3.981 8.882 8.9 8.882h8.9v18.215c-30.108 1.995-57.471 13.938-78.864 32.635l-19.167-19.128c-3.477-3.47-9.109-3.47-12.585 0s-3.477 9.09 0 12.56l19.167 19.128c-20.573 23.446-33.151 54.047-33.151 87.59 0 73.471 59.884 133.236 133.5 133.236s133.5-59.765 133.5-133.235c0-33.543-12.579-64.144-33.151-87.59zm-100.349 114.237c-14.723 0-26.7-11.953-26.7-26.647 0-11.565 7.463-21.332 17.8-25.011v-46.048c0-4.91 3.98-8.883 8.9-8.883s8.9 3.973 8.9 8.883v46.048c10.337 3.679 17.8 13.446 17.8 25.011 0 14.694-11.977 26.647-26.7 26.647z" fill="url(#SVGID_2_)"/></g></g></g></g></svg>