<svg id="Capa_1" enable-background="new 0 0 512 512" height="512" viewBox="0 0 512 512" width="512" xmlns="http://www.w3.org/2000/svg" xmlns:xlink="http://www.w3.org/1999/xlink"><linearGradient id="SVGID_1_" gradientUnits="userSpaceOnUse" x1="256" x2="256" y1="512" y2="0"><stop offset="0" stop-color="#ffc8d1"/><stop offset="1" stop-color="#fff6f7"/></linearGradient><linearGradient id="SVGID_2_" gradientUnits="userSpaceOnUse" x1="256" x2="256" y1="372" y2="105"><stop offset="0" stop-color="#ffa68d"/><stop offset="1" stop-color="#fd3a84"/></linearGradient><g><g><circle cx="256" cy="256" fill="url(#SVGID_1_)" r="256"/></g><g><g><g><path d="m398.118 193.999h-284.236c-4.91 0-8.882 3.981-8.882 8.9v35.6c0 4.919 3.973 8.9 8.882 8.9h284.235c4.91 0 8.882-3.98 8.882-8.9v-35.6c.001-4.92-3.972-8.9-8.881-8.9zm-239.486 171.543c1.093 3.824 4.58 6.458 8.544 6.458h177.647c3.964 0 7.451-2.634 8.544-6.458l28.613-100.343h-251.96zm141.78-73.643c0-4.919 3.973-8.9 8.883-8.9 4.909 0 8.882 3.98 8.882 8.9v53.4c0 4.919-3.973 8.9-8.882 8.9-4.91 0-8.883-3.98-8.883-8.9zm-53.294 0c0-4.919 3.973-8.9 8.882-8.9s8.882 3.98 8.882 8.9v53.4c0 4.919-3.973 8.9-8.882 8.9s-8.882-3.98-8.882-8.9zm-53.295 0c0-4.919 3.973-8.9 8.882-8.9 4.91 0 8.883 3.98 8.883 8.9v53.4c0 4.919-3.973 8.9-8.883 8.9-4.909 0-8.882-3.98-8.882-8.9zm33.587-172.439c3.062-3.841 2.438-9.439-1.388-12.516-3.833-3.059-9.411-2.416-12.49 1.391l-54.182 67.863h22.761zm102.48 56.739h22.761l-54.182-67.863c-3.079-3.824-8.648-4.458-12.491-1.391-3.825 3.077-4.449 8.674-1.387 12.516z" fill="url(#SVGID_2_)"/></g></g></g></g></svg>