<svg id="Capa_1" enable-background="new 0 0 512 512" height="512" viewBox="0 0 512 512" width="512" xmlns="http://www.w3.org/2000/svg" xmlns:xlink="http://www.w3.org/1999/xlink"><linearGradient id="SVGID_1_" gradientUnits="userSpaceOnUse" x1="256" x2="256" y1="512" y2="0"><stop offset="0" stop-color="#addcff"/><stop offset=".5028" stop-color="#eaf6ff"/><stop offset="1" stop-color="#eaf6ff"/></linearGradient><linearGradient id="SVGID_2_" gradientUnits="userSpaceOnUse" x1="256" x2="256" y1="105" y2="407"><stop offset="0" stop-color="#5558ff"/><stop offset="1" stop-color="#00c0ff"/></linearGradient><g><circle cx="256" cy="256" fill="url(#SVGID_1_)" r="256"/><g><g><path d="m158.294 184.941v-8.882h8.882c4.909 0 8.882-3.973 8.882-8.882s-3.973-8.882-8.882-8.882h-8.882v-8.882c0-4.91-3.973-8.882-8.883-8.882-4.909 0-8.882 3.973-8.882 8.882v8.882h-8.882c-4.909 0-8.882 3.973-8.882 8.882s3.973 8.882 8.882 8.882h8.882v8.882c0 4.91 3.973 8.882 8.882 8.882 4.91 0 8.883-3.972 8.883-8.882zm222.059-26.647h-8.882v-8.882c0-4.91-3.973-8.882-8.882-8.882-4.91 0-8.883 3.973-8.883 8.882v8.882h-8.882c-4.909 0-8.882 3.973-8.882 8.882s3.973 8.882 8.882 8.882h8.882v8.882c0 4.91 3.973 8.882 8.883 8.882 4.909 0 8.882-3.973 8.882-8.882v-8.882h8.882c4.909 0 8.882-3.973 8.882-8.882s-3.973-8.882-8.882-8.882zm-142.118-17.765h8.882v8.882c0 4.91 3.973 8.882 8.882 8.882s8.882-3.973 8.882-8.882v-8.882h8.882c4.91 0 8.882-3.973 8.882-8.882 0-4.91-3.973-8.882-8.882-8.882h-8.882v-8.882c0-4.91-3.973-8.882-8.882-8.882s-8.882 3.973-8.882 8.882v8.882h-8.882c-4.91 0-8.882 3.973-8.882 8.882 0 4.91 3.973 8.882 8.882 8.882zm-92.91 142.118 96.291 124.353-28.085-124.353zm86.526 0 24.149 108.609 24.149-108.609zm18.713-71.059-17.764 53.294h46.4l-17.765-53.294zm-18.736 0h-46.887c-2.967 0-5.742 1.483-7.39 3.955l-32.893 49.339h69.405zm38.556 195.412 96.291-124.353h-68.206zm56.675-195.412h-46.887l17.765 53.294h69.405l-32.893-49.339c-1.648-2.471-4.424-3.955-7.39-3.955z" fill="url(#SVGID_2_)"/></g></g></g></svg>