<svg id="Capa_1" enable-background="new 0 0 512 512" height="512" viewBox="0 0 512 512" width="512" xmlns="http://www.w3.org/2000/svg" xmlns:xlink="http://www.w3.org/1999/xlink"><linearGradient id="SVGID_1_" gradientUnits="userSpaceOnUse" x1="256" x2="256" y1="512" y2="0"><stop offset="0" stop-color="#ffbef9"/><stop offset="1" stop-color="#fff1ff"/></linearGradient><linearGradient id="SVGID_2_" gradientUnits="userSpaceOnUse" x1="256" x2="256" y1="122.761" y2="389.239"><stop offset="0" stop-color="#a93aff"/><stop offset="1" stop-color="#ff81ff"/></linearGradient><g><g><circle cx="256" cy="256" fill="url(#SVGID_1_)" r="256"/></g><g><g><path d="m353.706 131.651c0-2.854-1.37-5.534-3.695-7.208-2.325-1.665-5.274-2.143-7.998-1.214l-158.503 52.834h170.196zm-71.059 177.647v-35.529c0-19.595 15.943-35.529 35.529-35.529h71.059v-17.765c0-14.694-11.953-26.647-26.647-26.647h-230.941c-14.694 0-26.647 11.953-26.647 26.647v142.118c0 14.694 11.953 26.647 26.647 26.647h230.941c14.694 0 26.647-11.953 26.647-26.647v-17.765h-71.059c-19.586 0-35.529-15.935-35.529-35.53zm106.588-53.294h-71.059c-9.802 0-17.765 7.972-17.765 17.765v35.529c0 9.793 7.963 17.765 17.765 17.765h71.059c9.802 0 17.765-7.972 17.765-17.765v-35.529c0-9.793-7.963-17.765-17.765-17.765zm-53.294 44.412c-4.905 0-8.882-3.977-8.882-8.882 0-4.906 3.977-8.882 8.882-8.882s8.882 3.976 8.882 8.882c.001 4.905-3.977 8.882-8.882 8.882z" fill="url(#SVGID_2_)"/></g></g></g></svg>