<svg id="Capa_1" enable-background="new 0 0 512 512" height="512" viewBox="0 0 512 512" width="512" xmlns="http://www.w3.org/2000/svg" xmlns:xlink="http://www.w3.org/1999/xlink"><linearGradient id="SVGID_1_" gradientUnits="userSpaceOnUse" x1="256" x2="256" y1="512" y2="0"><stop offset="0" stop-color="#ffbef9"/><stop offset="1" stop-color="#fff1ff"/></linearGradient><linearGradient id="SVGID_2_" gradientUnits="userSpaceOnUse" x1="256.012" x2="256.012" y1="105.068" y2="407"><stop offset="0" stop-color="#a93aff"/><stop offset="1" stop-color="#ff81ff"/></linearGradient><g><g><circle cx="256" cy="256" fill="url(#SVGID_1_)" r="256"/></g><g><g><path d="m304.289 295.711c-3.469-3.469-9.09-3.469-12.559 0l-12.56 12.559c-3.452 3.452-9.09 3.487-12.576 0l-62.796-62.805c-3.469-3.461-3.469-9.098 0-12.559l12.559-12.559c3.469-3.469 3.469-9.09 0-12.559l-62.796-62.805c-3.331-3.331-9.229-3.331-12.559 0l-12.559 12.559c-15.109 15.092-23.418 35.171-23.418 56.516 0 21.354 8.309 41.433 23.418 56.525l113.033 113.05c15.577 15.578 36.046 23.367 56.516 23.367 20.487 0 40.956-7.789 56.534-23.366l12.559-12.568c3.469-3.469 3.469-9.09 0-12.559zm22.776-190.643c-44.079 0-79.935 35.856-79.935 79.935s35.856 79.935 79.935 79.935 79.935-35.857 79.935-79.936-35.856-79.934-79.935-79.934zm0 71.053c14.693 0 26.645 11.952 26.645 26.645 0 11.564-7.447 21.33-17.763 25.009v10.518c0 4.909-3.972 8.882-8.882 8.882s-8.882-3.972-8.882-8.882v-10.518c-10.316-3.679-17.763-13.445-17.763-25.009 0-4.909 3.972-8.882 8.882-8.882s8.882 3.972 8.882 8.882c0 4.901 3.99 8.882 8.882 8.882s8.882-3.981 8.882-8.882-3.99-8.882-8.882-8.882c-14.693 0-26.645-11.952-26.645-26.645 0-11.564 7.447-21.33 17.763-25.009v-10.518c0-4.909 3.972-8.882 8.882-8.882s8.882 3.972 8.882 8.882v10.518c10.316 3.679 17.763 13.445 17.763 25.009 0 4.909-3.972 8.882-8.882 8.882s-8.882-3.972-8.882-8.882c0-4.901-3.99-8.882-8.882-8.882s-8.882 3.981-8.882 8.882c.001 4.901 3.99 8.882 8.882 8.882z" fill="url(#SVGID_2_)"/></g></g></g></svg>