<svg id="Capa_1" enable-background="new 0 0 512 512" height="512" viewBox="0 0 512 512" width="512" xmlns="http://www.w3.org/2000/svg" xmlns:xlink="http://www.w3.org/1999/xlink"><linearGradient id="SVGID_1_" gradientUnits="userSpaceOnUse" x1="256" x2="256" y1="512" y2="0"><stop offset="0" stop-color="#addcff"/><stop offset=".5028" stop-color="#eaf6ff"/><stop offset="1" stop-color="#eaf6ff"/></linearGradient><linearGradient id="SVGID_2_" gradientUnits="userSpaceOnUse" x1="256" x2="256" y1="105" y2="407"><stop offset="0" stop-color="#5558ff"/><stop offset="1" stop-color="#00c0ff"/></linearGradient><g><g><circle cx="256" cy="256" fill="url(#SVGID_1_)" r="256"/></g><g><g><path d="m404.398 249.72-44.412-40.734c-2.533-2.533-6.384-3.305-9.68-1.926-3.313 1.371-5.482 4.615-5.482 8.206v22.969c-26.352 0-51.577 9.724-71.059 27.367v-98.426h22.969c3.591 0 6.835-2.16 8.206-5.482 1.37-3.322.607-7.139-1.926-9.68l-40.734-44.412c-3.469-3.47-9.091-3.47-12.56 0l-40.734 44.412c-2.533 2.542-3.296 6.358-1.926 9.68 1.371 3.322 4.615 5.482 8.206 5.482h22.969v98.417c-19.482-17.643-44.707-27.358-71.059-27.358v-22.969c0-3.591-2.169-6.835-5.482-8.206-3.279-1.388-7.147-.607-9.68 1.926l-44.412 40.734c-3.47 3.47-3.47 9.091 0 12.56l44.412 40.734c2.55 2.542 6.401 3.314 9.68 1.926 3.313-1.371 5.482-4.615 5.482-8.206v-22.969c39.19 0 71.059 31.878 71.059 71.059v53.294c0 4.91 3.973 8.882 8.882 8.882h17.765c4.91 0 8.882-3.973 8.882-8.882v-53.294c0-39.181 31.869-71.059 71.059-71.059v22.969c0 3.591 2.169 6.835 5.482 8.206 3.296 1.37 7.13.616 9.68-1.926l44.412-40.734c3.47-3.47 3.47-9.09.001-12.56z" fill="url(#SVGID_2_)"/></g></g></g></svg>