<svg id="Capa_1" enable-background="new 0 0 512 512" height="512" viewBox="0 0 512 512" width="512" xmlns="http://www.w3.org/2000/svg" xmlns:xlink="http://www.w3.org/1999/xlink"><linearGradient id="SVGID_1_" gradientUnits="userSpaceOnUse" x1="256" x2="256" y1="512" y2="0"><stop offset="0" stop-color="#ffc8d1"/><stop offset="1" stop-color="#fff6f7"/></linearGradient><linearGradient id="SVGID_2_" gradientUnits="userSpaceOnUse" x1="255.829" x2="255.829" y1="105" y2="407"><stop offset="0" stop-color="#fd3a84"/><stop offset="1" stop-color="#ffa68d"/></linearGradient><g><g><circle cx="256" cy="256" fill="url(#SVGID_1_)" r="256"/></g><g><g><path d="m264.711 123.214v-9.331c0-4.91-3.973-8.882-8.882-8.882-4.91 0-8.882 3.973-8.882 8.882v9.316c-78.44 4.464-140.089 67.237-141.945 146.801-.104 4.762 3.556 8.761 8.31 9.073 4.805.234 8.9-3.192 9.403-7.928 1.457-13.697 12.855-24.027 26.526-24.027 14.694 0 26.647 11.953 26.647 26.647 0 4.91 3.973 8.882 8.882 8.882 4.91 0 8.882-3.973 8.882-8.882 0-14.694 11.953-26.647 26.647-26.647s26.647 11.953 26.647 26.647v106.588c0 14.694 11.953 26.647 26.647 26.647s26.647-11.953 26.647-26.647c0-4.91-3.973-8.882-8.882-8.882s-8.882 3.973-8.882 8.882c0 4.901-3.99 8.882-8.882 8.882s-8.882-3.981-8.882-8.882v-106.588c0-14.694 11.953-26.647 26.647-26.647s26.647 11.953 26.647 26.647c0 4.91 3.973 8.882 8.882 8.882 4.91 0 8.882-3.973 8.882-8.882 0-14.694 11.953-26.647 26.647-26.647 13.67 0 25.068 10.331 26.526 24.027.503 4.736 4.615 8.154 9.403 7.928 4.754-.312 8.414-4.311 8.31-9.073-1.822-78.19-64.697-142.164-141.945-146.786z" fill="url(#SVGID_2_)"/></g></g></g></svg>