<svg id="Capa_1" enable-background="new 0 0 512 512" height="512" viewBox="0 0 512 512" width="512" xmlns="http://www.w3.org/2000/svg" xmlns:xlink="http://www.w3.org/1999/xlink"><linearGradient id="SVGID_1_" gradientUnits="userSpaceOnUse" x1="256" x2="256" y1="512" y2="0"><stop offset="0" stop-color="#ffc8d1"/><stop offset="1" stop-color="#fff6f7"/></linearGradient><linearGradient id="SVGID_2_" gradientUnits="userSpaceOnUse" x1="256" x2="256" y1="105" y2="407"><stop offset="0" stop-color="#fd3a84"/><stop offset="1" stop-color="#ffa68d"/></linearGradient><g><g><circle cx="256" cy="256" fill="url(#SVGID_1_)" r="256"/></g><g><g><path d="m402.09 248.054-119.77-59.884c.131-1.07.326-2.123.326-3.229 0-4.91-3.973-8.882-8.882-8.882s-8.882 3.973-8.882 8.882c0 4.901-3.99 8.882-8.882 8.882s-8.882-3.981-8.882-8.882c0-3.313 1.822-6.332 4.753-7.876 8.032-4.216 13.011-12.95 13.011-22.804v-40.378c0-4.91-3.973-8.882-8.882-8.882s-8.882 3.973-8.882 8.882v40.378c0 3.131-1.405 5.976-3.504 7.087-8.796 4.623-14.26 13.662-14.26 23.594 0 1.106.195 2.159.326 3.229l-119.77 59.884c-4.554 2.277-4.407 6.167-4.91 7.946v142.118c0 4.91 3.973 8.882 8.882 8.882h284.235c4.91 0 8.882-3.973 8.882-8.882v-142.119c-.502-1.777-.338-5.66-4.909-7.946zm-217.149 114.534c0 4.91-3.973 8.882-8.882 8.882-4.91 0-8.882-3.973-8.882-8.882v-71.059c0-4.91 3.973-8.882 8.882-8.882s8.882 3.973 8.882 8.882zm53.294 0c0 4.91-3.973 8.882-8.882 8.882-4.91 0-8.882-3.973-8.882-8.882v-71.059c0-4.91 3.973-8.882 8.882-8.882s8.882 3.973 8.882 8.882zm53.294 0c0 4.91-3.973 8.882-8.882 8.882s-8.882-3.973-8.882-8.882v-71.059c0-4.91 3.973-8.882 8.882-8.882 4.91 0 8.882 3.973 8.882 8.882zm53.294 0c0 4.91-3.973 8.882-8.882 8.882s-8.882-3.973-8.882-8.882v-71.059c0-4.91 3.973-8.882 8.882-8.882 4.91 0 8.882 3.973 8.882 8.882zm-193.312-115.47 86.043-43.022c4.793 4.617 11.28 7.492 18.446 7.492s13.652-2.875 18.446-7.492l86.043 43.022z" fill="url(#SVGID_2_)"/></g></g></g></svg>