<svg id="Capa_1" enable-background="new 0 0 512 512" height="512" viewBox="0 0 512 512" width="512" xmlns="http://www.w3.org/2000/svg" xmlns:xlink="http://www.w3.org/1999/xlink"><linearGradient id="SVGID_1_" gradientUnits="userSpaceOnUse" x1="256" x2="256" y1="512" y2="0"><stop offset="0" stop-color="#ffe59a"/><stop offset="1" stop-color="#ffffd5"/></linearGradient><linearGradient id="SVGID_2_" gradientUnits="userSpaceOnUse" x1="256" x2="256" y1="105" y2="407"><stop offset="0" stop-color="#fd5900"/><stop offset="1" stop-color="#ffde00"/></linearGradient><g><g><circle cx="256" cy="256" fill="url(#SVGID_1_)" r="256"/></g><g><g><path d="m273.765 264.882c44.082 0 79.941-35.859 79.941-79.941s-35.859-79.941-79.941-79.941-79.941 35.859-79.941 79.941 35.859 79.941 79.941 79.941zm0-71.059c-14.694 0-26.647-11.953-26.647-26.647 0-11.565 7.448-21.332 17.765-25.011v-10.519c0-4.909 3.973-8.882 8.882-8.882s8.882 3.973 8.882 8.882v10.519c10.317 3.679 17.765 13.446 17.765 25.011 0 4.909-3.973 8.882-8.882 8.882-4.91 0-8.882-3.973-8.882-8.882 0-4.901-3.99-8.882-8.882-8.882s-8.882 3.981-8.882 8.882 3.99 8.882 8.882 8.882c14.694 0 26.647 11.953 26.647 26.647 0 11.565-7.448 21.332-17.765 25.011v10.519c0 4.909-3.973 8.882-8.882 8.882s-8.882-3.973-8.882-8.882v-10.519c-10.317-3.679-17.765-13.446-17.765-25.011 0-4.909 3.973-8.882 8.882-8.882s8.882 3.973 8.882 8.882c0 4.901 3.99 8.882 8.882 8.882s8.882-3.981 8.882-8.882-3.99-8.882-8.882-8.882zm-168.765 115.471v88.823c0 4.905 3.977 8.882 8.882 8.882h35.529c4.905 0 8.882-3.977 8.882-8.882v-97.706h-44.412c-4.904.001-8.881 3.977-8.881 8.883zm299.398-6.28c-.013-.013-.026-.026-.039-.039-9.734-9.726-25.367-10.045-35.504-.743l-53.558 49.14c-2.236 2.059-5.319 2.755-8.05 2.09l-79.594-18.832c-4.771-1.128-7.72-5.907-6.592-10.687 1.11-4.771 5.864-7.729 10.687-6.592l55.278 13.078c13.597 3.217 27.276-5.023 30.776-18.549.039-.152.077-.302.115-.454 1.18-4.753-1.718-9.568-6.471-10.747l-71.059-17.765c-1.423-.364-2.88-.364-4.302 0l-60.025 13.5v93.997l132.125 16.518c.382.043.746.069 1.111.069 2.342 0 4.597-.928 6.28-2.602l88.824-88.823c3.467-3.469 3.467-9.089-.002-12.559z" fill="url(#SVGID_2_)"/></g></g></g></svg>