<svg id="Capa_1" enable-background="new 0 0 512 512" height="512" viewBox="0 0 512 512" width="512" xmlns="http://www.w3.org/2000/svg" xmlns:xlink="http://www.w3.org/1999/xlink"><linearGradient id="SVGID_1_" gradientUnits="userSpaceOnUse" x1="256" x2="256" y1="512" y2="0"><stop offset="0" stop-color="#addcff"/><stop offset=".5028" stop-color="#eaf6ff"/><stop offset="1" stop-color="#eaf6ff"/></linearGradient><linearGradient id="SVGID_2_" gradientUnits="userSpaceOnUse" x1="256" x2="256" y1="122.765" y2="389.235"><stop offset="0" stop-color="#5558ff"/><stop offset="1" stop-color="#00c0ff"/></linearGradient><g><g><circle cx="256" cy="256" fill="url(#SVGID_1_)" r="256"/></g><g><g><path d="m335.941 371.471h-29.122l-5.921-17.765h-89.795l-5.921 17.765h-29.122c-4.91 0-8.882 3.973-8.882 8.882s3.973 8.882 8.882 8.882h159.882c4.91 0 8.882-3.973 8.882-8.882-.001-4.91-3.973-8.882-8.883-8.882zm-86.221-109.191-29.249-29.249-44.412 44.412v5.204h124.353v-58.499l-38.132 38.132c-3.469 3.47-9.091 3.47-12.56 0zm148.398-139.515h-284.236c-4.91 0-8.882 3.973-8.882 8.882v195.412c0 4.909 3.973 8.882 8.882 8.882h284.235c4.91 0 8.882-3.973 8.882-8.882v-195.412c.001-4.909-3.972-8.882-8.881-8.882zm-44.412 79.941c0 4.91-3.973 8.882-8.882 8.882s-8.882-3.973-8.882-8.882v-14.087l-17.765 17.765v85.146c0 4.91-3.973 8.882-8.882 8.882h-142.118c-4.91 0-8.882-3.973-8.882-8.882v-17.765c0-2.359.937-4.615 2.602-6.28l53.294-53.294c3.47-3.47 9.091-3.47 12.56 0l29.249 29.249 46.997-46.988c.018-.017.018-.035.035-.052l20.35-20.341h-14.087c-4.91 0-8.883-3.973-8.883-8.882 0-4.91 3.973-8.882 8.883-8.882h35.529c3.98 0 8.882 3.557 8.882 8.882z" fill="url(#SVGID_2_)"/></g></g></g></svg>