<svg id="Capa_1" enable-background="new 0 0 512 512" height="512" viewBox="0 0 512 512" width="512" xmlns="http://www.w3.org/2000/svg" xmlns:xlink="http://www.w3.org/1999/xlink"><linearGradient id="SVGID_1_" gradientUnits="userSpaceOnUse" x1="256" x2="256" y1="512" y2="0"><stop offset="0" stop-color="#ffc8d1"/><stop offset="1" stop-color="#fff6f7"/></linearGradient><linearGradient id="SVGID_2_" gradientUnits="userSpaceOnUse" x1="256" x2="256" y1="105" y2="407"><stop offset="0" stop-color="#fd3a84"/><stop offset="1" stop-color="#ffa68d"/></linearGradient><g><g><circle cx="256" cy="256" fill="url(#SVGID_1_)" r="256"/></g><g><g><path d="m220.471 282.647h-71.059c-4.91 0-8.882 3.973-8.882 8.882v106.588c0 4.91 3.973 8.882 8.882 8.882 4.91 0 8.882-3.973 8.882-8.882v-79.941h53.294v79.941c0 4.91 3.973 8.882 8.882 8.882 4.91 0 8.882-3.973 8.882-8.882v-106.588c.001-4.909-3.972-8.882-8.881-8.882zm-106.589-71.059h142.118c4.91 0 8.882-3.973 8.882-8.882v-88.823c0-4.91-3.973-8.882-8.882-8.882h-142.118c-4.91 0-8.882 3.973-8.882 8.882v88.823c0 4.909 3.973 8.882 8.882 8.882zm29.25-41.809 17.765-17.765c3.47-3.469 9.091-3.469 12.56 0l11.485 11.485 14.704-14.704c-3.384-1.253-5.821-4.442-5.821-8.266 0-4.909 3.973-8.882 8.882-8.882h17.765c4.862 0 8.882 3.984 8.882 8.882v17.765c0 4.909-3.973 8.882-8.882 8.882-3.823 0-7.012-2.438-8.265-5.822l-20.984 20.984c-3.47 3.47-9.091 3.47-12.56 0l-11.485-11.485-11.485 11.485c-3.47 3.47-9.091 3.47-12.56 0s-3.471-9.09-.001-12.559zm103.986 228.339c0 4.91 3.973 8.882 8.882 8.882h142.118c4.91 0 8.882-3.973 8.882-8.882v-62.177h-159.882zm62.176-35.53h35.529c4.91 0 8.882 3.973 8.882 8.883 0 4.909-3.973 8.882-8.882 8.882h-35.529c-4.91 0-8.882-3.973-8.882-8.882 0-4.91 3.973-8.883 8.882-8.883zm88.824-115.47h-186.53v-17.765h-53.294v17.765h-44.412c-4.91 0-8.882 3.973-8.882 8.882v142.118c0 4.91 3.973 8.882 8.882 8.882 4.91 0 8.882-3.973 8.882-8.882v-133.236h124.353v53.294h159.883v-62.176c0-4.91-3.973-8.882-8.882-8.882zm-53.294 44.411h-35.529c-4.91 0-8.882-3.973-8.882-8.882s3.973-8.882 8.882-8.882h35.529c4.91 0 8.882 3.973 8.882 8.882 0 4.91-3.973 8.882-8.882 8.882z" fill="url(#SVGID_2_)"/></g></g></g></svg>