<svg id="Capa_1" enable-background="new 0 0 512 512" height="512" viewBox="0 0 512 512" width="512" xmlns="http://www.w3.org/2000/svg" xmlns:xlink="http://www.w3.org/1999/xlink"><linearGradient id="SVGID_1_" gradientUnits="userSpaceOnUse" x1="256" x2="256" y1="512" y2="0"><stop offset="0" stop-color="#addcff"/><stop offset=".5028" stop-color="#eaf6ff"/><stop offset="1" stop-color="#eaf6ff"/></linearGradient><linearGradient id="SVGID_2_" gradientUnits="userSpaceOnUse" x1="256" x2="256" y1="105" y2="407"><stop offset="0" stop-color="#5558ff"/><stop offset="1" stop-color="#00c0ff"/></linearGradient><g><g><circle cx="256" cy="256" fill="url(#SVGID_1_)" r="256"/></g><g><g><path d="m184.941 264.882h8.882v26.647c0 4.91 3.973 8.882 8.882 8.882 4.91 0 8.882-3.973 8.882-8.882v-26.647h8.882c4.91 0 8.882-3.973 8.882-8.882v-53.294c0-4.909-3.973-8.882-8.882-8.882h-8.882v-26.647c0-4.91-3.973-8.882-8.882-8.882-4.91 0-8.882 3.973-8.882 8.882v26.647h-8.882c-4.91 0-8.882 3.973-8.882 8.882v53.294c0 4.91 3.973 8.882 8.882 8.882zm71.059-35.529h8.882v26.647c0 4.91 3.973 8.882 8.882 8.882s8.882-3.973 8.882-8.882v-26.647h8.882c4.91 0 8.882-3.973 8.882-8.882v-53.294c0-4.91-3.973-8.882-8.882-8.882h-8.882v-26.647c0-4.909-3.973-8.882-8.882-8.882s-8.882 3.973-8.882 8.882v26.647h-8.882c-4.91 0-8.882 3.973-8.882 8.882v53.294c0 4.909 3.972 8.882 8.882 8.882zm71.059 35.529h8.882v26.647c0 4.91 3.973 8.882 8.882 8.882s8.882-3.973 8.882-8.882v-26.647h8.882c4.91 0 8.882-3.973 8.882-8.882v-53.294c0-4.909-3.973-8.882-8.882-8.882h-8.882v-26.647c0-4.91-3.973-8.882-8.882-8.882s-8.882 3.973-8.882 8.882v26.647h-8.882c-4.91 0-8.882 3.973-8.882 8.882v53.294c-.001 4.91 3.972 8.882 8.882 8.882zm77.339 109.191-17.765-17.765c-3.47-3.47-9.091-3.47-12.56 0-3.47 3.47-3.47 9.091 0 12.56l2.602 2.602h-22.969v-44.412c0-4.91-3.973-8.882-8.882-8.882s-8.882 3.973-8.882 8.882v44.412h-53.294v-79.941c0-4.909-3.973-8.882-8.882-8.882s-8.882 3.973-8.882 8.882v79.941h-53.294v-44.412c0-4.91-3.973-8.882-8.882-8.882-4.91 0-8.882 3.973-8.882 8.882v44.412h-53.294v-236.145l2.602 2.602c3.47 3.469 9.091 3.469 12.56 0 3.47-3.47 3.47-9.091 0-12.56l-17.765-17.765c-3.47-3.47-9.091-3.47-12.56 0l-17.765 17.765c-3.47 3.47-3.47 9.091 0 12.56s9.091 3.469 12.56 0l2.602-2.602v245.028c0 4.909 3.973 8.882 8.882 8.882h245.028l-2.602 2.602c-3.47 3.47-3.47 9.091 0 12.56 3.47 3.47 9.091 3.47 12.56 0l17.765-17.765c3.468-3.469 3.468-9.09-.001-12.559z" fill="url(#SVGID_2_)"/></g></g></g></svg>