<svg id="Capa_1" enable-background="new 0 0 512 512" height="512" viewBox="0 0 512 512" width="512" xmlns="http://www.w3.org/2000/svg" xmlns:xlink="http://www.w3.org/1999/xlink"><linearGradient id="SVGID_1_" gradientUnits="userSpaceOnUse" x1="256" x2="256" y1="512" y2="0"><stop offset="0" stop-color="#c3ffe8"/><stop offset=".9973" stop-color="#f0fff4"/></linearGradient><linearGradient id="SVGID_2_" gradientUnits="userSpaceOnUse" x1="256" x2="256" y1="176.059" y2="335.941"><stop offset="0" stop-color="#00b59c"/><stop offset="1" stop-color="#9cffac"/></linearGradient><g><g><circle cx="256" cy="256" fill="url(#SVGID_1_)" r="256"/></g><g><g><path d="m371.471 327.059v8.882h26.647c4.91 0 8.882-3.973 8.882-8.882v-26.647h-8.882c-14.694 0-26.647 11.953-26.647 26.647zm-17.765-142.118v-8.882h-195.412v8.882c0 24.487-19.916 44.412-44.412 44.412h-8.882v53.294h8.882c24.496 0 44.412 19.925 44.412 44.412v8.882h195.412v-8.882c0-24.487 19.916-44.412 44.412-44.412h8.882v-53.294h-8.882c-24.496 0-44.412-19.925-44.412-44.412zm-168.765 79.941h-17.765c-4.91 0-8.882-3.973-8.882-8.882s3.973-8.882 8.882-8.882h17.765c4.91 0 8.882 3.973 8.882 8.882s-3.972 8.882-8.882 8.882zm71.059-17.764c14.694 0 26.647 11.953 26.647 26.647 0 11.565-7.448 21.332-17.765 25.011v10.519c0 4.909-3.973 8.882-8.882 8.882s-8.882-3.973-8.882-8.882v-10.519c-10.317-3.679-17.765-13.446-17.765-25.011 0-4.91 3.973-8.882 8.882-8.882 4.91 0 8.882 3.973 8.882 8.882 0 4.901 3.99 8.882 8.882 8.882s8.882-3.981 8.882-8.882-3.99-8.882-8.882-8.882c-14.694 0-26.647-11.953-26.647-26.647 0-11.565 7.448-21.332 17.765-25.011v-10.519c0-4.909 3.973-8.882 8.882-8.882s8.882 3.973 8.882 8.882v10.519c10.317 3.679 17.765 13.446 17.765 25.011 0 4.909-3.973 8.882-8.882 8.882-4.91 0-8.882-3.973-8.882-8.882 0-4.901-3.99-8.882-8.882-8.882s-8.882 3.981-8.882 8.882 3.99 8.882 8.882 8.882zm88.823 17.764h-17.765c-4.91 0-8.882-3.973-8.882-8.882s3.973-8.882 8.882-8.882h17.765c4.91 0 8.882 3.973 8.882 8.882s-3.972 8.882-8.882 8.882zm53.295-88.823h-26.647v8.882c0 14.694 11.953 26.647 26.647 26.647h8.882v-26.647c0-4.91-3.973-8.882-8.882-8.882zm-284.236 124.353h-8.882v26.647c0 4.909 3.973 8.882 8.882 8.882h26.647v-8.882c0-14.694-11.953-26.647-26.647-26.647zm26.647-115.471v-8.882h-26.647c-4.91 0-8.882 3.973-8.882 8.882v26.647h8.882c14.694 0 26.647-11.953 26.647-26.647z" fill="url(#SVGID_2_)"/></g></g></g></svg>