<svg id="Capa_1" enable-background="new 0 0 512 512" height="512" viewBox="0 0 512 512" width="512" xmlns="http://www.w3.org/2000/svg" xmlns:xlink="http://www.w3.org/1999/xlink"><linearGradient id="SVGID_1_" gradientUnits="userSpaceOnUse" x1="256" x2="256" y1="512" y2="0"><stop offset="0" stop-color="#ffbef9"/><stop offset="1" stop-color="#fff1ff"/></linearGradient><linearGradient id="SVGID_2_" gradientUnits="userSpaceOnUse" x1="256" x2="256" y1="122.765" y2="389.235"><stop offset="0" stop-color="#a93aff"/><stop offset="1" stop-color="#ff81ff"/></linearGradient><g><g><circle cx="256" cy="256" fill="url(#SVGID_1_)" r="256"/></g><g><g><path d="m327.059 229.353h-195.412c-14.694 0-26.647 11.953-26.647 26.647v106.588c0 14.694 11.953 26.647 26.647 26.647h195.412c14.694 0 26.647-11.953 26.647-26.647v-106.588c0-14.694-11.953-26.647-26.647-26.647zm-186.53 26.647h53.294c4.91 0 8.882 3.973 8.882 8.882s-3.973 8.882-8.882 8.882h-53.294c-4.909 0-8.882-3.973-8.882-8.882s3.973-8.882 8.882-8.882zm88.824 53.294h-88.824c-4.909 0-8.882-3.973-8.882-8.883 0-4.909 3.973-8.882 8.882-8.882h88.824c4.909 0 8.882 3.973 8.882 8.882 0 4.91-3.973 8.883-8.882 8.883zm151-186.529h-213.176c-14.694 0-26.647 11.953-26.647 26.647v8.883h266.47v-8.883c0-14.694-11.953-26.647-26.647-26.647zm-239.824 88.823h186.53c24.496 0 44.412 19.925 44.412 44.412v44.412h8.882c14.694 0 26.647-11.953 26.647-26.647v-97.706h-266.471z" fill="url(#SVGID_2_)"/></g></g></g></svg>