<svg id="Capa_1" enable-background="new 0 0 512 512" height="512" viewBox="0 0 512 512" width="512" xmlns="http://www.w3.org/2000/svg" xmlns:xlink="http://www.w3.org/1999/xlink"><linearGradient id="SVGID_1_" gradientUnits="userSpaceOnUse" x1="256" x2="256" y1="512" y2="0"><stop offset="0" stop-color="#ffc8d1"/><stop offset="1" stop-color="#fff6f7"/></linearGradient><linearGradient id="SVGID_2_" gradientUnits="userSpaceOnUse" x1="256" x2="256" y1="131.647" y2="380.353"><stop offset="0" stop-color="#fd3a84"/><stop offset="1" stop-color="#ffa68d"/></linearGradient><g><g><circle cx="256" cy="256" fill="url(#SVGID_1_)" r="256"/></g><g><g><path d="m398.118 220.471h-17.053c-6.02-12.794-15.353-24.721-27.358-34.94v-45.002c0-4.909-3.973-8.882-8.882-8.882-17.99 0-33.777 10.765-40.665 26.69-17.904-5.855-37.42-8.926-57.041-8.926-78.364.001-142.119 47.813-142.119 106.589 0 32.771 19.343 62.844 53.294 83.168v32.303c0 4.909 3.973 8.882 8.882 8.882h35.529c4.91 0 8.883-3.973 8.883-8.882v-12.326c23.385 4.58 47.673 4.58 71.059 0v12.326c0 4.909 3.973 8.882 8.882 8.882h35.53c4.909 0 8.882-3.973 8.882-8.882v-32.303c20.61-12.396 36.345-29.024 45.106-47.639h17.071c4.91 0 8.882-3.973 8.882-8.882v-53.294c0-4.91-3.973-8.882-8.882-8.882zm-124.353-17.765h-71.059c-4.909 0-8.882-3.973-8.882-8.882s3.973-8.882 8.882-8.882h71.059c4.91 0 8.882 3.973 8.882 8.882s-3.973 8.882-8.882 8.882zm53.294 35.529c-4.905 0-8.882-3.977-8.882-8.882 0-4.906 3.977-8.882 8.882-8.882s8.882 3.976 8.882 8.882c0 4.905-3.977 8.882-8.882 8.882z" fill="url(#SVGID_2_)"/></g></g></g></svg>