<svg id="Capa_1" enable-background="new 0 0 512 512" height="512" viewBox="0 0 512 512" width="512" xmlns="http://www.w3.org/2000/svg" xmlns:xlink="http://www.w3.org/1999/xlink"><linearGradient id="SVGID_1_" gradientUnits="userSpaceOnUse" x1="256" x2="256" y1="512" y2="0"><stop offset="0" stop-color="#addcff"/><stop offset=".5028" stop-color="#eaf6ff"/><stop offset="1" stop-color="#eaf6ff"/></linearGradient><linearGradient id="SVGID_2_" gradientUnits="userSpaceOnUse" x1="256" x2="256" y1="113.882" y2="398.118"><stop offset="0" stop-color="#5558ff"/><stop offset="1" stop-color="#00c0ff"/></linearGradient><g><g><circle cx="256" cy="256" fill="url(#SVGID_1_)" r="256"/></g><g><g><path d="m167.176 167.177c9.812 0 17.765-7.954 17.765-17.765v-26.647c0-4.906-3.977-8.882-8.882-8.882h-17.765c-4.905 0-8.882 3.976-8.882 8.882v26.647c0 9.81 7.953 17.765 17.764 17.765zm177.648 0c9.812 0 17.765-7.954 17.765-17.765v-26.647c0-4.906-3.977-8.882-8.882-8.882h-17.765c-4.905 0-8.882 3.976-8.882 8.882v26.647c-.001 9.81 7.952 17.765 17.764 17.765zm-97.706 168.764h-17.765v17.765h17.765zm35.529 0h-17.765v17.765h17.765zm35.529 0h-17.765v17.765h17.765zm35.53-35.529h-17.765v17.765h17.765zm-35.53 0h-17.765v17.765h17.765zm-142.117 0h-17.765v17.765h17.765zm35.529 0h-17.765v17.765h17.765zm0 35.529h-17.765v17.765h17.765zm142.118-71.059h-17.765v17.765h17.765zm-71.059 35.53h-17.765v17.765h17.765zm-35.529 0h-17.765v17.765h17.765zm106.588 35.529h-17.765v17.765h17.765zm-248.706 53.294c0 4.909 3.973 8.882 8.882 8.882h284.235c4.91 0 8.882-3.973 8.882-8.882v-168.764h-301.999zm35.529-133.235c0-4.91 3.973-8.882 8.882-8.882h213.177c4.91 0 8.882 3.973 8.882 8.882v106.588c0 4.91-3.973 8.883-8.882 8.883h-213.176c-4.91 0-8.882-3.973-8.882-8.883v-106.588zm257.589-106.588h-17.765c0 19.595-15.943 35.53-35.529 35.53s-35.529-15.934-35.529-35.53h-106.589c0 19.595-15.943 35.53-35.529 35.53s-35.529-15.934-35.529-35.53h-17.765c-4.91 0-8.882 3.973-8.882 8.883v44.412h302v-44.412c-.001-4.91-3.974-8.883-8.883-8.883zm-79.942 115.47h-17.765v17.765h17.765zm-142.117 71.059h-17.765v17.765h17.765zm0-71.059h-17.765v17.765h17.765zm106.588 0h-17.765v17.765h17.765zm-35.529 0h-17.765v17.765h17.765zm-35.53 0h-17.765v17.765h17.765z" fill="url(#SVGID_2_)"/></g></g></g></svg>