<svg id="Capa_1" enable-background="new 0 0 512 512" height="512" viewBox="0 0 512 512" width="512" xmlns="http://www.w3.org/2000/svg" xmlns:xlink="http://www.w3.org/1999/xlink"><linearGradient id="SVGID_1_" gradientUnits="userSpaceOnUse" x1="256" x2="256" y1="512" y2="0"><stop offset="0" stop-color="#ffc8d1"/><stop offset="1" stop-color="#fff6f7"/></linearGradient><linearGradient id="SVGID_2_" gradientUnits="userSpaceOnUse" x1="256" x2="256" y1="105" y2="407"><stop offset="0" stop-color="#fd3a84"/><stop offset="1" stop-color="#ffa68d"/></linearGradient><g><g><circle cx="256" cy="256" fill="url(#SVGID_1_)" r="256"/></g><g><g><path d="m297.81 320.779-32.927-32.927v-31.852c0-4.91-3.973-8.882-8.882-8.882s-8.882 3.973-8.882 8.882v31.852l-32.927 32.927c-3.47 3.469-3.47 9.09 0 12.56s9.091 3.47 12.56 0l29.248-29.249 29.249 29.249c3.47 3.47 9.091 3.47 12.56 0 3.47-3.47 3.47-9.091.001-12.56zm-112.869-11.485c0-14.694-11.953-26.647-26.647-26.647s-26.647 11.953-26.647 26.647 11.953 26.647 26.647 26.647 26.647-11.953 26.647-26.647zm-26.647 26.647c-29.388 0-53.294 23.906-53.294 53.294v8.882c0 4.91 3.973 8.882 8.882 8.882h88.823c4.91 0 8.882-3.973 8.882-8.882v-8.882c.001-29.388-23.905-53.294-53.293-53.294zm124.353-204.294c0-14.694-11.953-26.647-26.647-26.647s-26.647 11.953-26.647 26.647 11.953 26.647 26.647 26.647 26.647-11.953 26.647-26.647zm-71.059 97.706h88.823c4.91 0 8.882-3.973 8.882-8.882v-8.883c0-29.388-23.906-53.294-53.294-53.294s-53.294 23.906-53.294 53.294v8.883c.001 4.909 3.974 8.882 8.883 8.882zm168.765 79.941c0-14.694-11.953-26.647-26.647-26.647s-26.647 11.953-26.647 26.647 11.953 26.647 26.647 26.647 26.647-11.953 26.647-26.647zm-26.647 26.647c-29.388 0-53.294 23.906-53.294 53.294v8.882c0 4.91 3.973 8.882 8.882 8.882h88.823c4.91 0 8.882-3.973 8.882-8.882v-8.882c.001-29.388-23.905-53.294-53.293-53.294z" fill="url(#SVGID_2_)"/></g></g></g></svg>