<svg id="Capa_1" enable-background="new 0 0 512 512" height="512" viewBox="0 0 512 512" width="512" xmlns="http://www.w3.org/2000/svg" xmlns:xlink="http://www.w3.org/1999/xlink"><linearGradient id="SVGID_1_" gradientUnits="userSpaceOnUse" x1="256" x2="256" y1="512" y2="0"><stop offset="0" stop-color="#ffc8d1"/><stop offset="1" stop-color="#fff6f7"/></linearGradient><linearGradient id="SVGID_2_" gradientUnits="userSpaceOnUse" x1="256" x2="256" y1="105" y2="407"><stop offset="0" stop-color="#fd3a84"/><stop offset="1" stop-color="#ffa68d"/></linearGradient><g><g><circle cx="256" cy="256" fill="url(#SVGID_1_)" r="256"/></g><g><g><path d="m215.266 167.177h22.969v35.529c0 4.91 3.973 8.882 8.882 8.882h17.765c4.91 0 8.882-3.973 8.882-8.882v-35.529h22.969c3.591 0 6.835-2.16 8.206-5.482 1.37-3.322.607-7.139-1.926-9.68l-40.734-44.412c-1.735-1.735-4.007-2.602-6.28-2.602s-4.545.867-6.28 2.602l-40.734 44.412c-2.533 2.542-3.296 6.358-1.926 9.68 1.372 3.322 4.616 5.482 8.207 5.482zm147.322 26.646h-17.765c-4.975 0-8.882 3.908-8.882 8.882s3.908 8.882 8.882 8.882h8.882c9.812 0 17.765 7.953 17.765 17.765 0 9.81-7.953 17.765-17.765 17.765h-9.78c.585 2.871.898 5.841.898 8.882v26.647h17.765c24.638 0 44.412-19.753 44.412-44.412 0-24.514-19.896-44.411-44.412-44.411zm-195.411 0h-17.765c-24.515 0-44.412 19.896-44.412 44.412 0 24.658 19.774 44.412 44.412 44.412h17.765v-26.647c0-3.042.312-6.011.898-8.882h-9.78c-9.812 0-17.765-7.954-17.765-17.765 0-9.812 7.953-17.765 17.765-17.765h8.882c4.975 0 8.882-3.909 8.882-8.882 0-4.975-3.908-8.883-8.882-8.883zm133.235 35.53c-17.123 0-25.936 3.383-33.014 6.098-8.709 3.348-14.087 3.348-22.796 0-7.078-2.715-15.891-6.098-33.014-6.098-14.694 0-26.647 11.953-26.647 26.647v71.059c0 2.359.937 4.615 2.602 6.28l15.162 15.163v5.204h26.647c4.909 0 8.882 3.973 8.882 8.882 0 4.91-3.973 8.883-8.882 8.883h-26.647v8.882c0 14.694 11.953 26.647 26.647 26.647h53.294c14.694 0 26.647-11.953 26.647-26.647v-8.882h-26.647c-4.909 0-8.882-3.973-8.882-8.883 0-4.909 3.973-8.882 8.882-8.882h26.647v-5.204l15.162-15.163c1.666-1.666 2.602-3.921 2.602-6.28v-71.059c.002-14.694-11.951-26.647-26.645-26.647zm-54.231 75.032c-2.164 4.315-7.426 6.188-11.918 3.973l-17.765-8.883c-4.389-2.195-6.159-7.529-3.973-11.918 2.203-4.38 7.529-6.141 11.918-3.973l17.765 8.882c4.389 2.195 6.159 7.529 3.973 11.919zm49.321-4.91-17.765 8.883c-4.488 2.214-9.752.347-11.918-3.973-2.186-4.389-.416-9.724 3.973-11.918l17.765-8.882c4.389-2.186 9.715-.425 11.918 3.973 2.186 4.388.416 9.722-3.973 11.917z" fill="url(#SVGID_2_)"/></g></g></g></svg>