<svg id="Capa_1" enable-background="new 0 0 512 512" height="512" viewBox="0 0 512 512" width="512" xmlns="http://www.w3.org/2000/svg" xmlns:xlink="http://www.w3.org/1999/xlink"><linearGradient id="SVGID_1_" gradientUnits="userSpaceOnUse" x1="256" x2="256" y1="512" y2="0"><stop offset="0" stop-color="#c3ffe8"/><stop offset=".9973" stop-color="#f0fff4"/></linearGradient><linearGradient id="SVGID_2_" gradientUnits="userSpaceOnUse" x1="256" x2="256" y1="105" y2="407"><stop offset="0" stop-color="#00b59c"/><stop offset="1" stop-color="#9cffac"/></linearGradient><g><g><circle cx="256" cy="256" fill="url(#SVGID_1_)" r="256"/></g><g><g><path d="m211.588 158.294h88.823c4.905 0 8.882-3.977 8.882-8.883v-17.765c0-4.906-3.977-8.882-8.882-8.882h-26.647c0-9.812-7.953-17.765-17.765-17.765s-17.765 7.953-17.765 17.765h-26.647c-4.905 0-8.882 3.976-8.882 8.882v17.765c.001 4.906 3.978 8.883 8.883 8.883zm151-17.765h-35.529v8.882c0 14.694-11.953 26.647-26.647 26.647h-88.823c-14.694 0-26.647-11.953-26.647-26.647v-8.882h-35.529c-4.91 0-8.882 3.973-8.882 8.882v248.706c0 4.91 3.973 8.882 8.882 8.882h213.177c4.91 0 8.882-3.973 8.882-8.882v-248.705c-.001-4.91-3.974-8.883-8.884-8.883zm-97.706 106.589c0-4.91 3.973-8.882 8.882-8.882h8.882v-26.647c0-4.909 3.973-8.882 8.882-8.882 4.91 0 8.882 3.973 8.882 8.882v26.647h8.882c4.91 0 8.882 3.973 8.882 8.882v53.294c0 4.91-3.973 8.882-8.882 8.882h-8.882v26.647c0 4.909-3.973 8.882-8.882 8.882-4.91 0-8.882-3.973-8.882-8.882v-26.647h-8.882c-4.91 0-8.882-3.973-8.882-8.882zm-71.058 0c0-4.91 3.973-8.882 8.882-8.882h8.882v-26.647c0-4.909 3.973-8.882 8.882-8.882 4.91 0 8.882 3.973 8.882 8.882v26.647h8.882c4.91 0 8.882 3.973 8.882 8.882v53.294c0 4.91-3.973 8.882-8.882 8.882h-8.882v26.647c0 4.909-3.973 8.882-8.882 8.882-4.91 0-8.882-3.973-8.882-8.882v-26.647h-8.882c-4.91 0-8.882-3.973-8.882-8.882zm133.235 133.235h-142.118c-4.91 0-8.882-3.973-8.882-8.882 0-4.91 3.973-8.882 8.882-8.882h142.118c4.91 0 8.882 3.973 8.882 8.882s-3.973 8.882-8.882 8.882zm-97.706-124.353h-17.765v35.529h17.765zm71.059 0h-17.765v35.529h17.765z" fill="url(#SVGID_2_)"/></g></g></g></svg>