<svg id="Capa_1" enable-background="new 0 0 512 512" height="512" viewBox="0 0 512 512" width="512" xmlns="http://www.w3.org/2000/svg" xmlns:xlink="http://www.w3.org/1999/xlink"><linearGradient id="SVGID_1_" gradientUnits="userSpaceOnUse" x1="256" x2="256" y1="512" y2="0"><stop offset="0" stop-color="#ffe59a"/><stop offset="1" stop-color="#ffffd5"/></linearGradient><linearGradient id="SVGID_2_" gradientUnits="userSpaceOnUse" x1="256" x2="256" y1="122.765" y2="389.235"><stop offset="0" stop-color="#fd5900"/><stop offset="1" stop-color="#ffde00"/></linearGradient><g><g><circle cx="256" cy="256" fill="url(#SVGID_1_)" r="256"/></g><g><g><path d="m398.118 371.471h-8.882v-8.882c0-4.91-3.973-8.882-8.882-8.882h-248.707c-4.909 0-8.882 3.973-8.882 8.882v8.882h-8.882c-4.91 0-8.882 3.973-8.882 8.882s3.973 8.882 8.882 8.882h284.235c4.91 0 8.882-3.973 8.882-8.882s-3.973-8.882-8.882-8.882zm-284.236-159.883h284.235c4.112 0 7.703-2.836 8.639-6.844.954-4.008-.989-8.145-4.667-9.984l-142.118-71.059c-2.498-1.249-5.447-1.249-7.946 0l-142.115 71.059c-3.678 1.839-5.621 5.977-4.667 9.984.937 4.008 4.528 6.844 8.639 6.844zm142.118-44.411c4.905 0 8.882 3.976 8.882 8.882 0 4.905-3.977 8.882-8.882 8.882s-8.882-3.977-8.882-8.882c0-4.907 3.977-8.882 8.882-8.882zm-49.616 62.176h-60.65l12.56 12.56v81.468l-12.56 12.561h60.65l-12.56-12.561v-81.468zm79.941 0h-60.65l12.56 12.56v81.468l-12.56 12.561h60.65l-12.56-12.561v-81.468zm79.941 0h-60.65l12.56 12.56v81.468l-12.56 12.561h60.65l-12.56-12.561v-81.468z" fill="url(#SVGID_2_)"/></g></g></g></svg>