<svg id="Capa_1" enable-background="new 0 0 512 512" height="512" viewBox="0 0 512 512" width="512" xmlns="http://www.w3.org/2000/svg" xmlns:xlink="http://www.w3.org/1999/xlink"><linearGradient id="SVGID_1_" gradientUnits="userSpaceOnUse" x1="256" x2="256" y1="512" y2="0"><stop offset="0" stop-color="#addcff"/><stop offset=".5028" stop-color="#eaf6ff"/><stop offset="1" stop-color="#eaf6ff"/></linearGradient><linearGradient id="SVGID_2_" gradientUnits="userSpaceOnUse" x1="256" x2="256" y1="105" y2="407"><stop offset="0" stop-color="#5558ff"/><stop offset="1" stop-color="#00c0ff"/></linearGradient><g><g><circle cx="256" cy="256" fill="url(#SVGID_1_)" r="256"/></g><g><g><path d="m368.279 195.879-106.589-88.823c-3.296-2.741-8.084-2.741-11.38 0l-106.588 88.824c-2.863 2.394-3.938 6.332-2.654 9.854 1.266 3.513 4.597 5.855 8.344 5.855h42.66l-33.639 184.941c-.469 2.594.243 5.256 1.926 7.277s4.181 3.192 6.818 3.192h177.647c2.637 0 5.135-1.171 6.818-3.192s2.394-4.684 1.926-7.277l-33.638-184.942h42.66c3.747 0 7.078-2.342 8.344-5.855 1.283-3.522.207-7.46-2.655-9.854zm-112.279 86.768c14.694 0 26.647 11.953 26.647 26.647 0 11.565-7.448 21.332-17.765 25.011v10.518c0 4.91-3.973 8.883-8.882 8.883s-8.882-3.973-8.882-8.883v-10.518c-10.317-3.679-17.765-13.446-17.765-25.011 0-4.909 3.973-8.882 8.882-8.882s8.882 3.973 8.882 8.882c0 4.901 3.99 8.882 8.882 8.882s8.882-3.981 8.882-8.882-3.99-8.882-8.882-8.882c-14.694 0-26.647-11.953-26.647-26.647 0-11.565 7.448-21.332 17.765-25.011v-10.519c0-4.91 3.973-8.882 8.882-8.882s8.882 3.973 8.882 8.882v10.519c10.317 3.679 17.765 13.446 17.765 25.011 0 4.91-3.973 8.882-8.882 8.882s-8.882-3.973-8.882-8.882c0-4.901-3.99-8.882-8.882-8.882s-8.882 3.981-8.882 8.882 3.99 8.882 8.882 8.882z" fill="url(#SVGID_2_)"/></g></g></g></svg>