<svg id="Capa_1" enable-background="new 0 0 512 512" height="512" viewBox="0 0 512 512" width="512" xmlns="http://www.w3.org/2000/svg" xmlns:xlink="http://www.w3.org/1999/xlink"><linearGradient id="SVGID_1_" gradientUnits="userSpaceOnUse" x1="256" x2="256" y1="512" y2="0"><stop offset="0" stop-color="#ffe59a"/><stop offset="1" stop-color="#ffffd5"/></linearGradient><linearGradient id="SVGID_2_" gradientUnits="userSpaceOnUse" x1="256" x2="256" y1="122.768" y2="389.232"><stop offset="0" stop-color="#fd5900"/><stop offset="1" stop-color="#ffde00"/></linearGradient><g><g><circle cx="256" cy="256" fill="url(#SVGID_1_)" r="256"/></g><g><g><path d="m228.347 307.142c-.989-3.955-4.545-6.731-8.622-6.731h-88.075c-4.077 0-7.633 2.776-8.622 6.731l-17.764 71.057c-.659 2.654-.069 5.465 1.613 7.616 1.683 2.16 4.268 3.417 7.009 3.417h123.604c2.741 0 5.326-1.258 7.009-3.417 1.683-2.151 2.273-4.961 1.614-7.616zm178.389 71.057-17.764-71.057c-.989-3.955-4.545-6.731-8.622-6.731h-88.075c-4.077 0-7.633 2.776-8.622 6.731l-17.764 71.057c-.659 2.654-.069 5.465 1.614 7.616 1.683 2.16 4.268 3.417 7.009 3.417h123.604c2.741 0 5.326-1.258 7.009-3.417 1.68-2.151 2.27-4.962 1.611-7.616zm-213.657-95.553h125.842c2.741 0 5.326-1.258 7.009-3.417 1.683-2.151 2.273-4.961 1.614-7.616l-17.764-71.057c-.989-3.956-4.545-6.731-8.622-6.731h-90.313c-4.077 0-7.633 2.776-8.622 6.731l-17.764 71.057c-.659 2.655-.069 5.465 1.614 7.616 1.68 2.16 4.265 3.417 7.006 3.417zm-61.429-71.057h8.882v8.882c0 4.909 3.973 8.882 8.882 8.882s8.882-3.973 8.882-8.882v-8.882h8.882c4.909 0 8.882-3.973 8.882-8.882s-3.973-8.882-8.882-8.882h-8.882v-8.882c0-4.909-3.973-8.882-8.882-8.882s-8.882 3.973-8.882 8.882v8.882h-8.882c-4.909 0-8.882 3.973-8.882 8.882 0 4.91 3.973 8.882 8.882 8.882zm213.171 0h8.882v8.882c0 4.909 3.973 8.882 8.882 8.882s8.882-3.973 8.882-8.882v-8.882h8.882c4.909 0 8.882-3.973 8.882-8.882s-3.973-8.882-8.882-8.882h-8.882v-8.882c0-4.909-3.973-8.882-8.882-8.882s-8.882 3.973-8.882 8.882v8.882h-8.882c-4.909 0-8.882 3.973-8.882 8.882 0 4.91 3.973 8.882 8.882 8.882zm-106.585-53.293h8.882v8.882c0 4.909 3.973 8.882 8.882 8.882s8.882-3.973 8.882-8.882v-8.882h8.882c4.91 0 8.882-3.973 8.882-8.882s-3.973-8.882-8.882-8.882h-8.882v-8.882c0-4.909-3.973-8.882-8.882-8.882s-8.882 3.973-8.882 8.882v8.882h-8.882c-4.91 0-8.882 3.973-8.882 8.882s3.972 8.882 8.882 8.882z" fill="url(#SVGID_2_)"/></g></g></g></svg>