<svg id="Capa_1" enable-background="new 0 0 512 512" height="512" viewBox="0 0 512 512" width="512" xmlns="http://www.w3.org/2000/svg" xmlns:xlink="http://www.w3.org/1999/xlink"><linearGradient id="SVGID_1_" gradientUnits="userSpaceOnUse" x1="256" x2="256" y1="512" y2="0"><stop offset="0" stop-color="#c3ffe8"/><stop offset=".9973" stop-color="#f0fff4"/></linearGradient><linearGradient id="SVGID_2_" gradientUnits="userSpaceOnUse" x1="256" x2="256" y1="105" y2="407"><stop offset="0" stop-color="#00b59c"/><stop offset="1" stop-color="#9cffac"/></linearGradient><g><g><circle cx="256" cy="256" fill="url(#SVGID_1_)" r="256"/></g><g><g><path d="m256 158.294c-53.867 0-97.706 43.831-97.706 97.706s43.839 97.706 97.706 97.706 97.706-43.831 97.706-97.706-43.839-97.706-97.706-97.706zm17.765 97.706c4.91 0 8.882 3.973 8.882 8.882s-3.973 8.882-8.882 8.882h-26.647v26.647h44.412c4.91 0 8.882 3.973 8.882 8.882 0 4.91-3.973 8.882-8.882 8.882h-71.059c-4.91 0-8.882-3.973-8.882-8.882s3.973-8.882 8.882-8.882h8.882v-26.647h-8.882c-4.91 0-8.882-3.973-8.882-8.882s3.973-8.882 8.882-8.882h8.882v-26.647c0-19.595 15.943-35.53 35.529-35.53s35.529 15.935 35.529 35.53c0 4.91-3.973 8.882-8.882 8.882-4.91 0-8.882-3.973-8.882-8.882 0-9.793-7.963-17.765-17.765-17.765s-17.765 7.971-17.765 17.765v26.647zm-17.765-151c-83.255 0-151 67.736-151 151 0 83.263 67.745 151 151 151s151-67.737 151-151c0-83.264-67.745-151-151-151zm0 266.471c-63.668 0-115.471-51.802-115.471-115.471s51.803-115.471 115.471-115.471 115.471 51.803 115.471 115.471-51.803 115.471-115.471 115.471z" fill="url(#SVGID_2_)"/></g></g></g></svg>