<svg id="Capa_1" enable-background="new 0 0 512 512" height="512" viewBox="0 0 512 512" width="512" xmlns="http://www.w3.org/2000/svg" xmlns:xlink="http://www.w3.org/1999/xlink"><linearGradient id="SVGID_1_" gradientUnits="userSpaceOnUse" x1="256" x2="256" y1="512" y2="0"><stop offset="0" stop-color="#addcff"/><stop offset=".5028" stop-color="#eaf6ff"/><stop offset="1" stop-color="#eaf6ff"/></linearGradient><linearGradient id="SVGID_2_" gradientUnits="userSpaceOnUse" x1="256" x2="256" y1="105" y2="407"><stop offset="0" stop-color="#5558ff"/><stop offset="1" stop-color="#00c0ff"/></linearGradient><g><g><circle cx="256" cy="256" fill="url(#SVGID_1_)" r="256"/></g><g><g><path d="m232.023 267.417c-1.662-3.474-2.671-7.316-2.671-11.417 0-11.565 7.448-21.332 17.765-25.011v-18.502c-20.251 4.126-35.529 22.067-35.529 43.513 0 9.039 2.745 17.435 7.4 24.458zm50.624-11.417c0 4.102-1.008 7.943-2.671 11.417l13.035 13.041c4.655-7.023 7.4-15.419 7.4-24.458 0-21.446-15.278-39.386-35.529-43.513v18.502c10.317 3.679 17.765 13.446 17.765 25.011zm-26.647 26.647c-4.101 0-7.941-1.008-11.415-2.669l-13.034 13.039c7.02 4.651 15.412 7.396 24.449 7.396s17.43-2.744 24.449-7.396l-13.034-13.039c-3.474 1.661-7.314 2.669-11.415 2.669zm0-17.765c4.892 0 8.882-3.981 8.882-8.882s-3.99-8.882-8.882-8.882-8.882 3.981-8.882 8.882 3.99 8.882 8.882 8.882zm-97.706 71.059h195.412v-177.647h-195.412zm97.706-142.118c34.28 0 62.176 27.896 62.176 62.177 0 34.164-27.794 62.176-62.176 62.176-34.163 0-62.176-27.797-62.176-62.176 0-34.28 27.896-62.177 62.176-62.177zm142.118-88.823h-284.236c-4.91 0-8.882 3.973-8.882 8.882v266.471c0 4.91 3.973 8.882 8.882 8.882h8.882v8.882c0 4.91 3.973 8.882 8.882 8.882h35.529c4.91 0 8.882-3.973 8.882-8.882v-8.882h159.882v8.882c0 4.91 3.973 8.882 8.882 8.882h35.529c4.91 0 8.882-3.973 8.882-8.882v-8.882h8.882c4.91 0 8.882-3.973 8.882-8.882v-266.471c.004-4.909-3.969-8.882-8.878-8.882zm-26.647 239.823c0 4.91-3.973 8.883-8.882 8.883h-213.177c-4.91 0-8.882-3.973-8.882-8.883v-195.411c0-4.91 3.973-8.882 8.882-8.882h213.177c4.91 0 8.882 3.973 8.882 8.882z" fill="url(#SVGID_2_)"/></g></g></g></svg>