<svg id="Capa_1" enable-background="new 0 0 512 512" height="512" viewBox="0 0 512 512" width="512" xmlns="http://www.w3.org/2000/svg" xmlns:xlink="http://www.w3.org/1999/xlink"><linearGradient id="SVGID_1_" gradientUnits="userSpaceOnUse" x1="256" x2="256" y1="512" y2="0"><stop offset="0" stop-color="#ffe59a"/><stop offset="1" stop-color="#ffffd5"/></linearGradient><linearGradient id="SVGID_2_" gradientUnits="userSpaceOnUse" x1="256" x2="256" y1="105" y2="407"><stop offset="0" stop-color="#fd5900"/><stop offset="1" stop-color="#ffde00"/></linearGradient><g><g><circle cx="256" cy="256" fill="url(#SVGID_1_)" r="256"/></g><g><g><path d="m184.941 220.471c0-14.694-11.953-26.647-26.647-26.647s-26.647 11.953-26.647 26.647 11.953 26.647 26.647 26.647 26.647-11.953 26.647-26.647zm26.647 88.823v-8.882c0-29.388-23.906-53.294-53.294-53.294s-53.294 23.906-53.294 53.294v8.882c0 4.91 3.973 8.882 8.882 8.882h88.824c4.909 0 8.882-3.972 8.882-8.882zm168.765-88.823c0-14.694-11.953-26.647-26.647-26.647s-26.647 11.953-26.647 26.647 11.953 26.647 26.647 26.647 26.647-11.953 26.647-26.647zm-26.647 26.647c-29.388 0-53.294 23.906-53.294 53.294v8.882c0 4.91 3.973 8.882 8.882 8.882h88.824c4.91 0 8.882-3.973 8.882-8.882v-8.882c0-29.389-23.906-53.294-53.294-53.294zm-191.925-85.328c25.172-25.164 58.637-39.025 94.219-39.025 26.83 0 52.447 7.899 74.222 22.563l-3.041-.149c-4.944-.347-9.073 3.548-9.299 8.44-.243 4.901 3.539 9.064 8.431 9.308l29.752 1.457c2.897-.633 5.085-.341 7.477-3.461 1.77-2.316 2.307-5.352 1.423-8.127l-9.906-30.88c-1.509-4.667-6.506-7.243-11.172-5.742-4.684 1.5-7.252 6.497-5.76 11.172l.789 2.455c-24.418-16.115-52.988-24.801-82.916-24.801-40.335 0-78.241 15.709-106.779 44.229-3.47 3.47-3.47 9.091 0 12.561 3.47 3.469 9.09 3.469 12.56 0zm188.438 188.42c-25.172 25.164-58.637 39.025-94.219 39.025-26.83 0-52.447-7.899-74.222-22.564l3.041.15c5.048.243 9.073-3.539 9.299-8.44.243-4.901-3.539-9.064-8.431-9.308l-29.752-1.457c-2.897-.104-5.708 1.154-7.477 3.461-1.77 2.316-2.307 5.352-1.423 8.127l9.906 30.88c1.48 4.587 6.406 7.255 11.172 5.742 4.684-1.5 7.252-6.497 5.76-11.172l-.789-2.455c24.418 16.115 52.988 24.801 82.916 24.801 40.335 0 78.241-15.709 106.779-44.229 3.47-3.47 3.47-9.091 0-12.561s-9.09-3.47-12.56 0z" fill="url(#SVGID_2_)"/></g></g></g></svg>