<svg id="Capa_1" enable-background="new 0 0 512 512" height="512" viewBox="0 0 512 512" width="512" xmlns="http://www.w3.org/2000/svg" xmlns:xlink="http://www.w3.org/1999/xlink"><linearGradient id="SVGID_1_" gradientUnits="userSpaceOnUse" x1="256" x2="256" y1="512" y2="0"><stop offset="0" stop-color="#addcff"/><stop offset=".5028" stop-color="#eaf6ff"/><stop offset="1" stop-color="#eaf6ff"/></linearGradient><linearGradient id="SVGID_2_" gradientUnits="userSpaceOnUse" x1="256" x2="256" y1="105" y2="407"><stop offset="0" stop-color="#5558ff"/><stop offset="1" stop-color="#00c0ff"/></linearGradient><g><g><circle cx="256" cy="256" fill="url(#SVGID_1_)" r="256"/></g><g><g><path d="m247.118 407h17.765v-53.294h-17.765zm88.823 0h17.765v-53.294h-17.765zm-177.647 0h17.765v-53.294h-17.765zm239.824-248.706h-79.941v-44.412c0-4.91-3.973-8.882-8.882-8.882h-106.589c-4.91 0-8.882 3.973-8.882 8.882v44.412h-79.941c-4.91 0-8.882 3.973-8.882 8.882v230.941c0 4.91 3.973 8.882 8.882 8.882h26.647v-62.177c0-4.909 3.973-8.882 8.882-8.882h35.529c4.91 0 8.882 3.973 8.882 8.882v62.178h35.529v-62.177c0-4.909 3.973-8.882 8.882-8.882h35.529c4.91 0 8.882 3.973 8.882 8.882v62.177h35.529v-62.177c0-4.909 3.973-8.882 8.882-8.882h35.529c4.91 0 8.882 3.973 8.882 8.882v62.177h26.647c4.91 0 8.882-3.973 8.882-8.882v-230.942c.004-4.909-3.969-8.882-8.878-8.882zm-213.177 159.882h-35.529c-4.91 0-8.882-3.973-8.882-8.882s3.973-8.882 8.882-8.882h35.529c4.91 0 8.882 3.973 8.882 8.882.001 4.91-3.972 8.882-8.882 8.882zm0-35.529h-35.529c-4.91 0-8.882-3.973-8.882-8.882s3.973-8.882 8.882-8.882h35.529c4.91 0 8.882 3.973 8.882 8.882s-3.972 8.882-8.882 8.882zm0-35.529h-35.529c-4.91 0-8.882-3.973-8.882-8.882s3.973-8.882 8.882-8.882h35.529c4.91 0 8.882 3.973 8.882 8.882s-3.972 8.882-8.882 8.882zm0-35.53h-35.529c-4.91 0-8.882-3.973-8.882-8.882 0-4.91 3.973-8.883 8.882-8.883h35.529c4.91 0 8.882 3.973 8.882 8.883.001 4.909-3.972 8.882-8.882 8.882zm88.824 106.588h-35.529c-4.91 0-8.882-3.973-8.882-8.882s3.973-8.882 8.882-8.882h35.529c4.91 0 8.882 3.973 8.882 8.882 0 4.91-3.973 8.882-8.882 8.882zm0-35.529h-35.529c-4.91 0-8.882-3.973-8.882-8.882s3.973-8.882 8.882-8.882h35.529c4.91 0 8.882 3.973 8.882 8.882s-3.973 8.882-8.882 8.882zm0-35.529h-35.529c-4.91 0-8.882-3.973-8.882-8.882s3.973-8.882 8.882-8.882h35.529c4.91 0 8.882 3.973 8.882 8.882s-3.973 8.882-8.882 8.882zm0-35.53h-35.529c-4.91 0-8.882-3.973-8.882-8.882 0-4.91 3.973-8.883 8.882-8.883h35.529c4.91 0 8.882 3.973 8.882 8.883 0 4.909-3.973 8.882-8.882 8.882zm0-35.529h-35.529c-4.91 0-8.882-3.973-8.882-8.882s3.973-8.882 8.882-8.882h35.529c4.91 0 8.882 3.973 8.882 8.882s-3.973 8.882-8.882 8.882zm88.823 142.117h-35.529c-4.91 0-8.882-3.973-8.882-8.882s3.973-8.882 8.882-8.882h35.529c4.91 0 8.882 3.973 8.882 8.882.001 4.91-3.972 8.882-8.882 8.882zm0-35.529h-35.529c-4.91 0-8.882-3.973-8.882-8.882s3.973-8.882 8.882-8.882h35.529c4.91 0 8.882 3.973 8.882 8.882s-3.972 8.882-8.882 8.882zm0-35.529h-35.529c-4.91 0-8.882-3.973-8.882-8.882s3.973-8.882 8.882-8.882h35.529c4.91 0 8.882 3.973 8.882 8.882s-3.972 8.882-8.882 8.882zm0-35.53h-35.529c-4.91 0-8.882-3.973-8.882-8.882 0-4.91 3.973-8.883 8.882-8.883h35.529c4.91 0 8.882 3.973 8.882 8.883.001 4.909-3.972 8.882-8.882 8.882z" fill="url(#SVGID_2_)"/></g></g></g></svg>