<svg id="Capa_1" enable-background="new 0 0 512 512" height="512" viewBox="0 0 512 512" width="512" xmlns="http://www.w3.org/2000/svg" xmlns:xlink="http://www.w3.org/1999/xlink"><linearGradient id="SVGID_1_" gradientUnits="userSpaceOnUse" x1="256" x2="256" y1="512" y2="0"><stop offset="0" stop-color="#ffe59a"/><stop offset="1" stop-color="#ffffd5"/></linearGradient><linearGradient id="SVGID_2_" gradientUnits="userSpaceOnUse" x1="256" x2="256" y1="105" y2="407"><stop offset="0" stop-color="#fd5900"/><stop offset="1" stop-color="#ffde00"/></linearGradient><g><g><circle cx="256" cy="256" fill="url(#SVGID_1_)" r="256"/></g><g><g><path d="m140.529 309.294v88.824c0 4.905 3.977 8.882 8.882 8.882h35.53c4.905 0 8.882-3.977 8.882-8.882v-97.706h-44.412c-4.904 0-8.882 3.976-8.882 8.882zm177.648-62.176h-53.294v53.294h53.294zm-8.883 71.058h-53.294c-4.905 0-8.882-3.977-8.882-8.882v-26.647h-8.882c-2.359 0-4.615.937-6.28 2.602l-15.162 15.163h-5.204v88.824h5.204l15.164 15.164c1.665 1.666 3.924 2.601 6.279 2.601h71.059c14.717 0 26.647-11.93 26.647-26.647v-35.53c-.002-14.718-11.932-26.648-26.649-26.648zm53.294-213.176h-142.117c-4.91 0-8.882 3.973-8.882 8.882v106.588c0 4.909 3.973 8.882 8.882 8.882h142.118c4.909 0 8.882-3.973 8.882-8.882v-106.588c0-4.909-3.973-8.882-8.883-8.882zm-38.131 59.574-26.647 26.647c-3.47 3.47-9.091 3.47-12.56 0l-17.765-17.765c-3.47-3.47-3.47-9.09 0-12.56s9.091-3.47 12.56 0l11.484 11.484 20.367-20.367c3.469-3.47 9.09-3.47 12.56 0s3.47 9.091.001 12.561z" fill="url(#SVGID_2_)"/></g></g></g></svg>