<svg id="Capa_1" enable-background="new 0 0 512 512" height="512" viewBox="0 0 512 512" width="512" xmlns="http://www.w3.org/2000/svg" xmlns:xlink="http://www.w3.org/1999/xlink"><linearGradient id="SVGID_1_" gradientUnits="userSpaceOnUse" x1="256" x2="256" y1="512" y2="0"><stop offset="0" stop-color="#ffc8d1"/><stop offset="1" stop-color="#fff6f7"/></linearGradient><linearGradient id="SVGID_2_" gradientUnits="userSpaceOnUse" x1="256" x2="256" y1="380.25" y2="131.75"><stop offset="0" stop-color="#ffa68d"/><stop offset="1" stop-color="#fd3a84"/></linearGradient><g><g><circle cx="256" cy="256" fill="url(#SVGID_1_)" r="256"/></g><g><g><g><path d="m398.133 131.75h-284.24c-4.911 0-8.893 3.981-8.893 8.893v195.214c0 4.911 3.981 8.893 8.893 8.893h27.107v26.625c0 7.878 9.574 11.841 15.136 6.275l32.869-32.9h209.129c4.901 0 8.867-3.969 8.867-8.875v-195.25c-.001-4.906-3.967-8.875-8.868-8.875zm-138.048 176.858c-1.284.669-2.68.999-4.085.999s-2.802-.33-4.085-.999c-66.002-34.191-75.856-71.62-75.856-90.891 0-28.259 19.508-50.396 44.412-50.396 16.732 0 28.564 7.72 35.529 14.182 6.965-6.461 18.797-14.182 35.529-14.182 24.904 0 44.412 22.137 44.412 50.396 0 19.271-9.854 56.701-75.856 90.891z" fill="url(#SVGID_2_)"/></g></g></g></g></svg>