<svg id="Capa_1" enable-background="new 0 0 512 512" height="512" viewBox="0 0 512 512" width="512" xmlns="http://www.w3.org/2000/svg" xmlns:xlink="http://www.w3.org/1999/xlink"><linearGradient id="SVGID_1_" gradientUnits="userSpaceOnUse" x1="256" x2="256" y1="512" y2="0"><stop offset="0" stop-color="#ffc8d1"/><stop offset="1" stop-color="#fff6f7"/></linearGradient><linearGradient id="SVGID_2_" gradientUnits="userSpaceOnUse" x1="256" x2="256" y1="407" y2="105"><stop offset="0" stop-color="#ffa68d"/><stop offset="1" stop-color="#fd3a84"/></linearGradient><g><g><g><circle cx="256" cy="256" fill="url(#SVGID_1_)" r="256"/></g></g><g><g id="Puzzle_1_"><g><path d="m229.321 407c-24.525 0-44.464-19.925-44.464-44.412 0-2.993.295-5.968.903-8.882h-45.367c-4.915 0-8.893-3.973-8.893-8.882v-58.048c0-3.175 1.702-6.107 4.446-7.694 2.796-1.579 6.149-1.57 8.91.009 4.012 2.325 8.615 3.556 13.322 3.556 14.711 0 26.679-11.953 26.679-26.647s-11.967-26.647-26.679-26.647c-4.707 0-9.31 1.232-13.322 3.556-2.762 1.587-6.114 1.596-8.91.009-2.744-1.587-4.446-4.519-4.446-7.694v-58.048c0-4.91 3.977-8.882 8.893-8.882h45.367c-.608-2.915-.903-5.89-.903-8.882 0-24.487 19.939-44.412 44.464-44.412s44.464 19.925 44.464 44.412c0 2.993-.295 5.968-.903 8.882h45.367c4.915 0 8.893 3.973 8.893 8.882v45.305c2.918-.59 5.888-.893 8.893-.893 24.525 0 44.464 19.925 44.464 44.412s-19.939 44.412-44.464 44.412c-3.005 0-5.975-.304-8.893-.893v45.305c0 4.91-3.977 8.882-8.893 8.882h-45.367c.608 2.915.903 5.89.903 8.882.001 24.487-19.939 44.412-44.464 44.412z" fill="url(#SVGID_2_)"/></g></g></g></g></svg>