<svg id="Capa_1" enable-background="new 0 0 512 512" height="512" viewBox="0 0 512 512" width="512" xmlns="http://www.w3.org/2000/svg" xmlns:xlink="http://www.w3.org/1999/xlink"><linearGradient id="SVGID_1_" gradientUnits="userSpaceOnUse" x1="256" x2="256" y1="512" y2="0"><stop offset="0" stop-color="#ffc8d1"/><stop offset="1" stop-color="#fff6f7"/></linearGradient><linearGradient id="SVGID_2_" gradientUnits="userSpaceOnUse" x1="256" x2="256" y1="407" y2="105"><stop offset="0" stop-color="#ffa68d"/><stop offset="1" stop-color="#fd3a84"/></linearGradient><g><g><circle cx="256" cy="256" fill="url(#SVGID_1_)" r="256"/></g><g><g><path d="m256 105c-83.263 0-151 67.737-151 151s67.737 151 151 151 151-67.737 151-151-67.737-151-151-151zm-44.412 71.059c19.595 0 35.529 15.934 35.529 35.529s-15.935 35.53-35.529 35.53c-19.595 0-35.529-15.935-35.529-35.53s15.934-35.529 35.529-35.529zm88.824 159.882c-19.595 0-35.529-15.934-35.529-35.53 0-19.595 15.935-35.529 35.529-35.529 19.595 0 35.529 15.935 35.529 35.529 0 19.596-15.934 35.53-35.529 35.53zm32.927-144.72-142.118 142.118c-1.735 1.735-4.007 2.602-6.28 2.602s-4.545-.867-6.28-2.602c-3.47-3.47-3.47-9.091 0-12.56l142.118-142.118c3.47-3.47 9.09-3.47 12.56 0s3.47 9.09 0 12.56z" fill="url(#SVGID_2_)"/></g></g></g></svg>