<svg id="Capa_1" enable-background="new 0 0 512 512" height="512" viewBox="0 0 512 512" width="512" xmlns="http://www.w3.org/2000/svg" xmlns:xlink="http://www.w3.org/1999/xlink"><linearGradient id="SVGID_1_" gradientUnits="userSpaceOnUse" x1="256" x2="256" y1="512" y2="0"><stop offset="0" stop-color="#addcff"/><stop offset=".5028" stop-color="#eaf6ff"/><stop offset="1" stop-color="#eaf6ff"/></linearGradient><linearGradient id="SVGID_2_" gradientUnits="userSpaceOnUse" x1="256" x2="256" y1="407" y2="105"><stop offset="0" stop-color="#00c0ff"/><stop offset="1" stop-color="#5558ff"/></linearGradient><g><g><circle cx="256" cy="256" fill="url(#SVGID_1_)" r="256"/></g><g><g><path d="m380.353 318.177h-248.706c-4.909 0-8.882 3.973-8.882 8.882s3.973 8.882 8.882 8.882h97.706v53.294h-8.882c-4.91 0-8.882 3.973-8.882 8.882s3.973 8.882 8.882 8.882h71.059c4.91 0 8.882-3.973 8.882-8.882s-3.973-8.882-8.882-8.882h-8.882v-53.294h97.706c4.909 0 8.882-3.973 8.882-8.882-.001-4.91-3.974-8.882-8.883-8.882zm17.765-213.177h-44.412v35.529h8.882c4.975 0 8.882 3.908 8.882 8.882s-3.908 8.883-8.882 8.883h-35.529c-4.975 0-8.882-3.909-8.882-8.883 0-4.975 3.908-8.882 8.882-8.882h8.882v-35.529h-71.059v35.529h8.882c4.975 0 8.882 3.908 8.882 8.882s-3.908 8.883-8.882 8.883h-35.529c-4.975 0-8.882-3.909-8.882-8.883 0-4.975 3.908-8.882 8.882-8.882h8.882v-35.529h-71.059v35.529h8.882c4.975 0 8.882 3.908 8.882 8.882s-3.908 8.883-8.882 8.883h-35.529c-4.975 0-8.882-3.909-8.882-8.883 0-4.975 3.908-8.882 8.882-8.882h8.882v-35.529h-44.412c-4.975 0-8.882 3.908-8.882 8.882v177.647c0 4.974 3.908 8.882 8.882 8.882h284.235c4.975 0 8.882-3.909 8.882-8.882v-177.647c.002-4.974-3.906-8.882-8.88-8.882z" fill="url(#SVGID_2_)"/></g></g></g></svg>