<svg id="Capa_1" enable-background="new 0 0 512 512" height="512" viewBox="0 0 512 512" width="512" xmlns="http://www.w3.org/2000/svg" xmlns:xlink="http://www.w3.org/1999/xlink"><linearGradient id="SVGID_1_" gradientUnits="userSpaceOnUse" x1="256" x2="256" y1="512" y2="0"><stop offset="0" stop-color="#c3ffe8"/><stop offset=".9973" stop-color="#f0fff4"/></linearGradient><linearGradient id="SVGID_2_" gradientUnits="userSpaceOnUse" x1="256" x2="256" y1="407" y2="105"><stop offset="0" stop-color="#9cffac"/><stop offset="1" stop-color="#00b59c"/></linearGradient><g><g><g><circle cx="256" cy="256" fill="url(#SVGID_1_)" r="256"/></g></g><g><g><g><path d="m263.946 198.733c-3.019-6.02-12.873-6.02-15.891 0l-53.295 106.588c-1.37 2.75-1.232 6.02.382 8.64 1.631 2.619 4.493 4.216 7.564 4.216h26.647v79.941c0 4.91 3.973 8.882 8.882 8.882h35.529c4.91 0 8.882-3.973 8.882-8.882v-79.941h26.647c3.071 0 5.933-1.596 7.564-4.216 1.614-2.62 1.752-5.89.382-8.64zm63.113-93.733h-142.118c-21.165 0-41.237 8.292-56.608 23.429-15.041 15.267-23.333 35.339-23.333 56.512 0 44.082 35.859 79.941 79.941 79.941h10.181l37.041-74.095c4.441-8.848 13.566-14.33 23.837-14.33s19.396 5.482 23.819 14.313l37.063 74.112h10.177c21.165 0 41.237-8.292 56.608-23.429 15.041-15.266 23.333-35.338 23.333-56.512 0-44.082-35.859-79.941-79.941-79.941z" fill="url(#SVGID_2_)"/></g></g></g></g></svg>