<svg id="Capa_1" enable-background="new 0 0 512 512" height="512" viewBox="0 0 512 512" width="512" xmlns="http://www.w3.org/2000/svg" xmlns:xlink="http://www.w3.org/1999/xlink"><linearGradient id="SVGID_1_" gradientUnits="userSpaceOnUse" x1="256" x2="256" y1="512" y2="0"><stop offset="0" stop-color="#c3ffe8"/><stop offset=".9973" stop-color="#f0fff4"/></linearGradient><linearGradient id="SVGID_2_" gradientUnits="userSpaceOnUse" x1="256" x2="256" y1="407" y2="105"><stop offset="0" stop-color="#9cffac"/><stop offset="1" stop-color="#00b59c"/></linearGradient><g><g><circle cx="256" cy="256" fill="url(#SVGID_1_)" r="256"/></g><g><g id="Puzzle_2_"><g><path d="m256 407c-19.579 0-35.5-15.934-35.5-35.529 0-4.432.832-10.765 2.279-17.765h-64.404c-4.906 0-8.875-3.973-8.875-8.882v-66.869c0-2.776 1.291-5.387 3.501-7.069 2.21-1.665 5.07-2.221 7.74-1.492 10.834 3.001 20.168 4.372 24.259 4.372 9.785 0 17.75-7.972 17.75-17.765s-7.965-17.765-17.75-17.765c-4.091 0-13.425 1.371-24.259 4.372-2.687.737-5.538.191-7.74-1.492-2.21-1.683-3.501-4.294-3.501-7.069v-66.869c0-4.91 3.969-8.882 8.875-8.882h64.404c-1.447-7-2.279-13.332-2.279-17.765 0-19.597 15.921-35.531 35.5-35.531s35.5 15.934 35.5 35.529c0 4.432-.832 10.765-2.279 17.765h64.404c4.906 0 8.875 3.973 8.875 8.882v66.869c0 2.776-1.291 5.387-3.501 7.069-2.184 1.683-5.044 2.238-7.74 1.492-10.834-3.001-20.168-4.372-24.259-4.372-9.785 0-17.75 7.972-17.75 17.765s7.965 17.765 17.75 17.765c4.091 0 13.425-1.371 24.259-4.372 2.687-.746 5.538-.182 7.74 1.492 2.21 1.683 3.501 4.294 3.501 7.069v66.869c0 4.91-3.969 8.882-8.875 8.882h-64.404c1.447 7 2.279 13.332 2.279 17.765 0 19.597-15.921 35.531-35.5 35.531z" fill="url(#SVGID_2_)"/></g></g></g></g></svg>