<svg id="Capa_1" enable-background="new 0 0 512 512" height="512" viewBox="0 0 512 512" width="512" xmlns="http://www.w3.org/2000/svg" xmlns:xlink="http://www.w3.org/1999/xlink"><linearGradient id="SVGID_1_" gradientUnits="userSpaceOnUse" x1="256" x2="256" y1="512" y2="0"><stop offset="0" stop-color="#ffc8d1"/><stop offset="1" stop-color="#fff6f7"/></linearGradient><linearGradient id="SVGID_2_" gradientUnits="userSpaceOnUse" x1="256" x2="256" y1="407" y2="105"><stop offset="0" stop-color="#ffa68d"/><stop offset="1" stop-color="#fd3a84"/></linearGradient><g><g><circle cx="256" cy="256" fill="url(#SVGID_1_)" r="256"/></g><g><g><path d="m398.118 247.118h-27.097c-4.339-56.58-49.559-101.799-106.138-106.138v-27.097c0-4.91-3.973-8.882-8.882-8.882s-8.882 3.973-8.882 8.882v27.097c-56.58 4.339-101.799 49.559-106.138 106.138h-27.097c-4.91 0-8.882 3.973-8.882 8.882s3.973 8.882 8.882 8.882h27.097c4.339 56.58 49.559 101.799 106.138 106.138v27.097c0 4.91 3.973 8.882 8.882 8.882s8.882-3.973 8.882-8.882v-27.097c56.58-4.339 101.799-49.559 106.138-106.138h27.097c4.91 0 8.882-3.973 8.882-8.882s-3.973-8.882-8.882-8.882zm-151-88.374v18.212c-36.906 4.152-66.009 33.255-70.161 70.161h-18.212c4.242-46.792 41.58-84.13 88.373-88.373zm0 194.512c-46.793-4.243-84.131-41.581-88.374-88.374h18.212c4.152 36.906 33.255 66.009 70.161 70.161v18.213zm8.882-52.844c-4.91 0-8.882 3.973-8.882 8.883v7.985c-27.125-3.933-48.464-25.271-52.396-52.396h7.985c4.91 0 8.883-3.973 8.883-8.882s-3.973-8.882-8.883-8.882h-7.985c3.933-27.125 25.271-48.464 52.396-52.396v7.985c0 4.91 3.973 8.882 8.882 8.882s8.882-3.973 8.882-8.882v-7.985c27.125 3.933 48.464 25.271 52.396 52.396h-7.985c-4.91 0-8.883 3.973-8.883 8.882s3.973 8.882 8.883 8.882h7.985c-3.933 27.125-25.271 48.464-52.396 52.396v-7.985c0-4.91-3.972-8.883-8.882-8.883zm8.882 52.844v-18.212c36.906-4.152 66.009-33.255 70.161-70.161h18.212c-4.242 46.792-41.58 84.13-88.373 88.373zm70.161-106.138c-4.152-36.906-33.255-66.009-70.161-70.161v-18.212c46.793 4.243 84.131 41.581 88.374 88.374h-18.213z" fill="url(#SVGID_2_)"/></g></g></g></svg>