<svg id="Capa_1" enable-background="new 0 0 512 512" height="512" viewBox="0 0 512 512" width="512" xmlns="http://www.w3.org/2000/svg" xmlns:xlink="http://www.w3.org/1999/xlink"><linearGradient id="SVGID_1_" gradientUnits="userSpaceOnUse" x1="256" x2="256" y1="512" y2="0"><stop offset="0" stop-color="#ffedad"/><stop offset="1" stop-color="#ffffe5"/></linearGradient><linearGradient id="SVGID_2_" gradientUnits="userSpaceOnUse" x1="256" x2="256" y1="407" y2="105"><stop offset="0" stop-color="#ffde00"/><stop offset="1" stop-color="#fd5900"/></linearGradient><g><g><circle cx="256" cy="256" fill="url(#SVGID_1_)" r="256"/></g><g><g><g><g><path d="m256 105c-53.99 0-98 43.878-98 97.706 0 29.667 14.433 48.853 28.509 67.506 11.154 14.828 21.749 28.995 24.33 47.965h90.322c2.582-18.97 13.177-33.137 24.33-47.965 14.076-18.653 28.509-37.839 28.509-67.506 0-39.438-31.182-97.706-98-97.706zm-44.545 257.588c0 24.516 19.956 44.412 44.545 44.412s44.545-19.896 44.545-44.412v-26.647h-89.091v26.647z" fill="url(#SVGID_2_)"/></g></g></g></g></g></svg>