<svg id="Capa_1" enable-background="new 0 0 512 512" height="512" viewBox="0 0 512 512" width="512" xmlns="http://www.w3.org/2000/svg" xmlns:xlink="http://www.w3.org/1999/xlink"><linearGradient id="SVGID_1_" gradientUnits="userSpaceOnUse" x1="256" x2="256" y1="512" y2="0"><stop offset="0" stop-color="#ffbef9"/><stop offset="1" stop-color="#fff1ff"/></linearGradient><linearGradient id="SVGID_2_" gradientUnits="userSpaceOnUse" x1="256" x2="256" y1="407" y2="105"><stop offset="0" stop-color="#ff81ff"/><stop offset="1" stop-color="#a93aff"/></linearGradient><g><g><circle cx="256" cy="256" fill="url(#SVGID_1_)" r="256"/></g><g><g><g><g><path d="m256 180.495c0 6.454-5.018 14.226-6.951 16.681-3.025 3.843-2.392 9.42 1.439 12.465 1.638 1.301 3.588 1.934 5.521 1.934 2.6 0 5.174-1.136 6.925-3.322 1.101-1.388 10.816-13.94 10.816-27.758s-9.716-26.371-10.816-27.758c-1.803-2.247-6.934-10.132-6.934-16.655 0-6.454 5.018-14.226 6.951-16.681 3.025-3.843 2.392-9.42-1.439-12.465-3.839-3.062-9.386-2.411-12.446 1.388-1.101 1.388-10.816 13.939-10.816 27.758s9.716 26.37 10.816 27.758c1.803 2.246 6.934 10.131 6.934 16.655zm-53.25 0c0 6.454-5.018 14.226-6.951 16.681-3.025 3.843-2.392 9.42 1.439 12.465 1.638 1.301 3.588 1.934 5.521 1.934 2.6 0 5.174-1.136 6.925-3.322 1.101-1.388 10.816-13.94 10.816-27.758s-9.716-26.371-10.816-27.758c-1.803-2.247-6.934-10.132-6.934-16.655 0-6.454 5.018-14.226 6.951-16.681 3.025-3.843 2.392-9.42-1.439-12.465-3.848-3.062-9.395-2.411-12.446 1.388-1.1 1.387-10.816 13.939-10.816 27.758s9.716 26.37 10.816 27.758c1.803 2.246 6.934 10.131 6.934 16.655zm133.125 48.854h-213c-4.906 0-8.875 3.973-8.875 8.882v53.295c0 63.67 51.759 115.474 115.375 115.474s115.375-51.804 115.375-115.474v-53.295c0-4.91-3.969-8.882-8.875-8.882zm25.225.756c.832 2.577 1.4 5.274 1.4 8.125v10.519c10.308 3.679 17.75 13.446 17.75 25.011 0 15.192-8.56 29.697-20.13 42.43-2.277 12.115-6.238 23.612-11.562 34.338 24.172-18.777 49.442-45.746 49.442-76.767 0-21.925-15.998-40.073-36.9-43.656z" fill="url(#SVGID_2_)"/></g></g></g></g></g></svg>