<svg id="Capa_1" enable-background="new 0 0 512 512" height="512" viewBox="0 0 512 512" width="512" xmlns="http://www.w3.org/2000/svg" xmlns:xlink="http://www.w3.org/1999/xlink"><linearGradient id="SVGID_1_" gradientUnits="userSpaceOnUse" x1="256" x2="256" y1="512" y2="0"><stop offset="0" stop-color="#ffedad"/><stop offset="1" stop-color="#ffffe5"/></linearGradient><linearGradient id="SVGID_2_" gradientUnits="userSpaceOnUse" x1="256" x2="256" y1="407" y2="105"><stop offset="0" stop-color="#ffde00"/><stop offset="1" stop-color="#fd5900"/></linearGradient><g><g><circle cx="256" cy="256" fill="url(#SVGID_1_)" r="256"/></g><g><g><g><g><path d="m220.46 229.353c4.911 0 8.885-3.973 8.885-8.882v-71.059c0-14.694 11.956-26.647 26.655-26.647s26.655 11.953 26.655 26.647v71.059c0 4.909 3.974 8.882 8.885 8.882s8.885-3.973 8.885-8.882v-71.059c0-24.487-19.93-44.412-44.424-44.412s-44.424 19.925-44.424 44.412v71.059c-.001 4.909 3.973 8.882 8.883 8.882zm151.009 168.027-17.77-213.176c-.382-4.606-4.225-8.146-8.85-8.146h-26.655v44.412c0 14.694-11.956 26.647-26.655 26.647s-26.655-11.953-26.655-26.647v-44.412h-17.77v44.412c0 14.694-11.956 26.647-26.655 26.647s-26.655-11.953-26.655-26.647v-44.412h-26.655c-4.625 0-8.468 3.539-8.85 8.146l-17.77 213.176c-.208 2.472.633 4.927 2.308 6.749 1.683 1.83 4.061 2.871 6.542 2.871h213.237c2.481 0 4.859-1.041 6.542-2.871 1.677-1.822 2.519-4.276 2.311-6.749z" fill="url(#SVGID_2_)"/></g></g></g></g></g></svg>