<svg id="Capa_1" enable-background="new 0 0 512 512" height="512" viewBox="0 0 512 512" width="512" xmlns="http://www.w3.org/2000/svg" xmlns:xlink="http://www.w3.org/1999/xlink"><linearGradient id="SVGID_1_" gradientUnits="userSpaceOnUse" x1="256" x2="256" y1="512" y2="0"><stop offset="0" stop-color="#ffbef9"/><stop offset="1" stop-color="#fff1ff"/></linearGradient><linearGradient id="SVGID_2_" gradientUnits="userSpaceOnUse" x1="256" x2="256" y1="407" y2="105"><stop offset="0" stop-color="#ff81ff"/><stop offset="1" stop-color="#a93aff"/></linearGradient><g><g><g><circle cx="256" cy="256" fill="url(#SVGID_1_)" r="256"/></g></g><g><g><g><g><g><path d="m229.375 211.58h-106.5c-4.906 0-8.875 3.973-8.875 8.883v44.414h124.25v-44.414c0-4.91-3.969-8.883-8.875-8.883zm-115.375 124.358h124.25v-53.296c-25.642 0-97.414 0-124.25 0zm0 62.179c0 4.91 3.969 8.883 8.875 8.883h106.5c4.906 0 8.875-3.973 8.875-8.883v-44.414c-25.642 0-97.414 0-124.25 0zm275.125-115.475h-106.5c-4.906 0-8.875 3.973-8.875 8.883v44.414h124.25v-44.414c0-4.91-3.969-8.883-8.875-8.883zm-115.375 115.475c0 4.91 3.969 8.883 8.875 8.883h106.5c4.906 0 8.875-3.973 8.875-8.883v-44.414c-26.272 0-98.514 0-124.25 0zm-126.85-242.436 20.35-20.368v49.618c0 4.91 3.969 8.883 8.875 8.883s8.875-3.973 8.875-8.883v-49.618l20.35 20.368c3.467 3.47 9.083 3.47 12.55 0s3.467-9.091 0-12.561l-35.489-35.52c-3.458-3.47-9.119-3.465-12.571 0l-35.489 35.52c-3.467 3.47-3.467 9.091 0 12.561s9.082 3.47 12.549 0zm159.75 71.062 20.35-20.368v49.619c0 4.91 3.969 8.883 8.875 8.883s8.875-3.973 8.875-8.883v-49.619l20.35 20.368c3.467 3.47 9.083 3.47 12.55 0s3.467-9.091 0-12.561l-35.489-35.52c-3.458-3.47-9.119-3.464-12.571 0l-35.489 35.52c-3.467 3.47-3.467 9.091 0 12.561s9.082 3.47 12.549 0z" fill="url(#SVGID_2_)"/></g></g></g></g></g></g></svg>