<svg id="Capa_1" enable-background="new 0 0 512 512" height="512" viewBox="0 0 512 512" width="512" xmlns="http://www.w3.org/2000/svg" xmlns:xlink="http://www.w3.org/1999/xlink"><linearGradient id="SVGID_1_" gradientUnits="userSpaceOnUse" x1="256" x2="256" y1="512" y2="0"><stop offset="0" stop-color="#addcff"/><stop offset=".5028" stop-color="#eaf6ff"/><stop offset="1" stop-color="#eaf6ff"/></linearGradient><linearGradient id="SVGID_2_" gradientUnits="userSpaceOnUse" x1="256" x2="256" y1="407" y2="105"><stop offset="0" stop-color="#00c0ff"/><stop offset="1" stop-color="#5558ff"/></linearGradient><g><g><circle cx="256" cy="256" fill="url(#SVGID_1_)" r="256"/></g><g><g><g><path d="m256 353.706c-14.694 0-26.647 11.953-26.647 26.647s11.953 26.647 26.647 26.647 26.647-11.953 26.647-26.647-11.953-26.647-26.647-26.647zm-151-79.941v17.765c0 21.473 15.267 39.396 35.529 43.515v-104.795c-20.262 4.119-35.529 22.042-35.529 43.515zm248.706 62.176v-106.588h-26.647c-4.975 0-8.882 3.908-8.882 8.882v88.823c0 4.974 3.908 8.883 8.882 8.883zm17.765-105.691v104.795c20.262-4.12 35.529-22.043 35.529-43.516v-17.765c0-21.472-15.267-39.395-35.529-43.514zm-115.471-125.25c-60.67 0-110.456 47.067-115.021 106.588h17.765c4.508-49.723 46.379-88.824 97.256-88.824s92.748 39.101 97.256 88.824h17.765c-4.565-59.521-54.351-106.588-115.021-106.588zm53.294 266.471h-9.781c.585 2.871.899 5.841.899 8.882s-.313 6.011-.899 8.882h9.781c24.708 0 45.92-14.6 55.94-35.529h-20.637c-8.116 10.72-20.852 17.765-35.303 17.765zm-124.353-142.118h-26.647v106.588h26.647c4.975 0 8.882-3.909 8.882-8.883v-88.823c0-4.974-3.907-8.882-8.882-8.882z" fill="url(#SVGID_2_)"/></g></g></g></g></svg>