<?xml version="1.0" encoding="UTF-8" standalone="no"?>
<svg
   xmlns:dc="http://purl.org/dc/elements/1.1/"
   xmlns:cc="http://creativecommons.org/ns#"
   xmlns:rdf="http://www.w3.org/1999/02/22-rdf-syntax-ns#"
   xmlns:svg="http://www.w3.org/2000/svg"
   xmlns="http://www.w3.org/2000/svg"
   xmlns:sodipodi="http://sodipodi.sourceforge.net/DTD/sodipodi-0.dtd"
   xmlns:inkscape="http://www.inkscape.org/namespaces/inkscape"
   viewBox="0 0 270.23 270.23999"
   version="1.1"
   id="svg88"
   sodipodi:docname="iFinancing2.svg"
   inkscape:version="1.0.1 (3bc2e813f5, 2020-09-07)"
   width="270.23001"
   height="270.23999">
  <metadata
     id="metadata92">
    <rdf:RDF>
      <cc:Work
         rdf:about="">
        <dc:format>image/svg+xml</dc:format>
        <dc:type
           rdf:resource="http://purl.org/dc/dcmitype/StillImage" />
        <dc:title>iFinancing</dc:title>
      </cc:Work>
    </rdf:RDF>
  </metadata>
  <sodipodi:namedview
     pagecolor="#ffffff"
     bordercolor="#666666"
     borderopacity="1"
     objecttolerance="10"
     gridtolerance="10"
     guidetolerance="10"
     inkscape:pageopacity="0"
     inkscape:pageshadow="2"
     inkscape:window-width="1366"
     inkscape:window-height="705"
     id="namedview90"
     showgrid="false"
     inkscape:zoom="1.4739726"
     inkscape:cx="135.115"
     inkscape:cy="101.08736"
     inkscape:window-x="-8"
     inkscape:window-y="-8"
     inkscape:window-maximized="1"
     inkscape:current-layer="svg88" />
  <defs
     id="defs54">
    <style
       id="style52">.a{fill:#fff;}.b,.d{fill:none;}.b{stroke:#fff;stroke-miterlimit:10;}.c{font-size:48.06px;fill:#231f20;font-family:Poppins-Thin, Poppins;font-weight:200;}.e{fill:#ee3947;}.f{fill:#8e1929;}.g{fill:#6f1020;}.h{fill:#9b1c2b;}.i{fill:#5e0a1d;}.j{fill:#cc2745;}.k{fill:#af1f30;}</style>
  </defs>
  <title
     id="title56">iFinancing</title>
  <rect
     class="a"
     x="29.920002"
     y="21"
     width="217"
     height="207"
     id="rect58" />
  <rect
     class="b"
     x="34.420002"
     y="21.5"
     width="207"
     height="212"
     id="rect60" />
  <path
     class="d"
     d="m 127.83,151.21 -17.95,-0.27 0.21,-31.32 h -0.3 c -0.82,-8.51 -10.659998,-15.17 -19.489998,-15.17 -8.22,0 -17.31,5.78 -19.19,13.46 l -0.38,75.63 v 1.94 c 0,9 9.85,16.22 18.81,16.22 8.96,0 18.799998,-7.26 18.799998,-16.22 a 17.72,17.72 0 0 0 -0.12,-1.94 h 0.12 v 2.39 l 0.52,-31 20.5,0.15 0.3,28 c 0,0 2.33,19.46 21.06,19.46 14,0 18,-18.38 17.95,-19.08 l 0.3,-43.48 39.55,-7.71 v 0 c 21.61,-5.35 13.32,-44.17 0,-42.77 l -1.24,0.2 c -0.2,-0.08 -62.43,12.16 -62.43,12.16 -20.05,4.16 -17.02,39.35 -17.02,39.35 z"
     id="path64" />
  <polygon
     class="d"
     points="14.61,69.63 0,69.71 "
     id="polygon66" />
  <path
     class="d"
     d="m 144.72,100.83 62,-11.07 c 1.42,-0.35 1.82,-0.42 3.15,-0.73 13.72,-8.28 13.33,-36.37 -1.26,-40.71 l -1.19,-0.37 -62,14.06 c -27.31,7.21 -23.12,35.91 -0.7,38.82 z"
     id="path68" />
  <path
     class="d"
     d="m 91.300002,98.23 a 25.3,25.3 0 1 0 -25,-28.87 24.82,24.82 0 0 0 -0.29,3.58 25.19,25.19 0 0 0 4.43,14.29 c 4.62,6 12.69,11 20.86,11 z"
     id="path70" />
  <path
     class="e"
     d="m 108.22,193.54 a 17.72,17.72 0 0 1 0.12,1.94 v -1.94 z"
     id="path72" />
  <path
     class="f"
     d="m 70.810002,119.62 a 13.89,13.89 0 0 1 0.3,-1.71 l -0.68,-30.68 z"
     id="path74" />
  <path
     class="g"
     d="m 259.04,186.14 h -50.52 v -43.83 l -39.55,7.71 -0.3,43.48 c 0.1,0.7 -4,19.08 -17.95,19.08 -18.73,0 -21.06,-19.51 -21.06,-19.51 l -0.3,-28 -20.5,-0.15 -0.52,31 v 65.89 c 42.6,1.46 96.54,0.05 161.48,-7.63 a 20.28,20.28 0 0 0 0.41,-4.07 v -64 z"
     id="path76" />
  <path
     class="h"
     d="m 2.4850896e-6,249.42 v 0.69 A 20.12,20.12 0 0 0 20.120002,270.24 H 108.34 v -8.43 C 52.990002,259.92 16.760002,253.25 2.4850896e-6,249.42 Z"
     id="path78" />
  <path
     class="i"
     d="m 108.34,261.81 v 8.43 H 250.1 a 20.14,20.14 0 0 0 19.72,-16.06 c -64.94,7.68 -118.88,9.09 -161.48,7.63 z"
     id="path80" />
  <path
     class="j"
     d="M 250.1,0 H 145.36 v 62 l 62,-14.06 1.19,0.37 c 14.59,4.34 15,32.43 1.26,40.71 -1.33,0.31 -1.73,0.38 -3.15,0.73 l -62,11.07 h 0.14 v 0 h -0.14 -0.13 l 0.26,11 c 0,0 62.23,-12.24 62.43,-12.16 l 1.24,-0.2 c 13.32,-1.4 21.61,37.42 0,42.77 v 43.91 h 61.71 v -166 A 20.13,20.13 0 0 0 250.1,0 Z"
     id="path82" />
  <path
     class="f"
     d="m 145.36,62.01 v -62 H 20.120002 A 20.12,20.12 0 0 0 2.4850896e-6,20.13 V 69.71 L 66.290002,69.36 a 25.28,25.28 0 1 1 25,28.87 c -8.17,0 -16.24,-5 -20.87,-11 l 0.68,30.68 c 1.88,-7.68 11,-13.46 19.19,-13.46 8.83,0 18.669998,6.66 19.489998,15.17 h 0.3 l -0.21,31.32 17.95,0.27 c 0,0 -3,-35.19 17,-39.33 l -0.26,-11 h 0.13 C 122.3,97.92 118.11,69.22 145.36,62.01 Z"
     id="path84" />
  <path
     class="k"
     d="m 89.540002,211.69 c -9,0 -18.81,-7.26 -18.81,-16.22 v -1.93 l 0.38,-75.62 a 13.89,13.89 0 0 0 -0.3,1.71 l -0.38,-32.39 a 25.19,25.19 0 0 1 -4.43,-14.29 24.82,24.82 0 0 1 0.29,-3.58 l -16.64,0.09 h -1.12 v 0 L 2.4850896e-6,69.68 V 249.42 C 16.760002,253.25 53.000002,259.92 108.34,261.81 v -66.34 c 0,8.96 -9.839998,16.22 -18.799998,16.22 z"
     id="path86" />
</svg>
